<svg xmlns="http://www.w3.org/2000/svg" viewBox="0 0 1509.6 525.67"><defs><style>.cls-1{fill:#fff;}.cls-2{fill:#57c2e4;}</style></defs><title>PACE-Bricks_Font_DarkBackground</title><g id="Ebene_2" data-name="Ebene 2"><g id="Ebene_2-2" data-name="Ebene 2"><path class="cls-1" d="M231.19,91.22H198.83a7.35,7.35,0,0,0-7.2,7.3v90a7.27,7.27,0,1,0,14.54,0v-29H229.3c20.63,0,41.44-10.67,41.44-34.51v-.29C270.74,104.37,255.22,91.22,231.19,91.22Zm-1.46,54.85H206.17V104.81h24.15c16.35,0,25.73,7.42,25.73,20.34v.29C256.05,138,245.72,146.07,229.73,146.07Z"/><path class="cls-1" d="M332,96.06c-1.62-3.92-4.57-6-8.54-6h-.58c-4,0-6.82,1.94-8.65,5.93l-41.19,89.36a8.06,8.06,0,0,0-.89,3.72,6.76,6.76,0,0,0,6.76,6.72,7.21,7.21,0,0,0,6.92-4.79L296,168.45h53.73l10.17,22.26c1.43,3.23,4,5.09,7.07,5.09a7,7,0,0,0,7.06-7,9,9,0,0,0-.86-3.49ZM343.86,155H301.92l21-46.27Z"/><path class="cls-1" d="M469.74,169.39a6.72,6.72,0,0,0-4.67,2c-9.12,8.3-17.84,11.84-29.14,11.84-21.19,0-37.78-17.6-37.78-40.07v-.29c0-22.68,16.24-39.78,37.78-39.78,10.73,0,19.41,3.44,28.14,11.13l.17.13a8.26,8.26,0,0,0,4.63,1.56,7.44,7.44,0,0,0,7.34-7.16,7.84,7.84,0,0,0-2.88-5.8c-8.07-6.65-18.81-13.45-37.26-13.45-29.67,0-52.9,23.57-52.9,53.66v.29c0,30.42,22.55,53.37,52.47,53.37,15.38,0,27-4.55,38.72-15.2a6.92,6.92,0,0,0,2.43-5.2A7.22,7.22,0,0,0,469.74,169.39Z"/><path class="cls-1" d="M565.79,181.63h-56.5V149.44h49.25a6.74,6.74,0,0,0,6.76-6.72,6.84,6.84,0,0,0-6.76-6.73H509.29V104.67h55.78a6.73,6.73,0,1,0,0-13.45H502a7.35,7.35,0,0,0-7.2,7.3v89.26a7.35,7.35,0,0,0,7.2,7.3h63.84a6.73,6.73,0,1,0,0-13.45Z"/><path class="cls-1" d="M370.4,395.31c23.8-5.13,41.75-25.63,41.75-56,0-28.56-22-62.25-72.51-62.25H191.34V521.28H344.77c49.07,0,72.14-32.23,72.14-66.28C416.91,423.51,396.77,399.34,370.4,395.31ZM265.31,337.09h57.12a15,15,0,0,1,14.65,15c0,8.79-7,15.75-14.65,15.75H265.31Zm59.32,124.13H265.31V427.9h59.32c10.62,0,17.21,8.06,17.21,16.85C341.84,453.9,335.25,461.22,324.63,461.22Z"/><path class="cls-1" d="M664.81,360.89c0-45.77-30.76-83.86-87.88-83.86H446.57V521.28h74V442.91h26.73L581,521.28h84.22l-44.31-86.42C640.28,425.34,664.81,403,664.81,360.89Zm-99.23,20.5h-45V338.55h45c12.45,0,24.16,8.06,24.16,21.24C589.74,373.34,578,381.39,565.58,381.39Z"/><rect class="cls-1" x="694.84" y="277.03" width="73.97" height="244.25"/><path class="cls-1" d="M927.73,338.18c23.81,0,42.85,16.48,49.07,35.52L1040.52,344c-14.65-33.69-46.87-71-112.79-71-74.7,0-132.56,50.9-132.56,126.34,0,75.07,57.86,126.33,132.56,126.33,65.92,0,98.51-38.81,112.79-71.4L976.8,425c-6.22,19-25.26,35.52-49.07,35.52-33.69,0-57.49-27.1-57.49-61.15S894,338.18,927.73,338.18Z"/><polygon class="cls-1" points="1292.09 277.03 1201.64 277.03 1137.56 368.58 1137.56 277.03 1063.59 277.03 1063.59 521.28 1137.56 521.28 1137.56 453.53 1151.11 435.22 1206.03 521.28 1296.12 521.28 1199.81 390.55 1292.09 277.03"/><path class="cls-1" d="M1409.63,365.65c-26-4.4-35.88-7.69-35.88-17.21,0-6.23,4-12.82,22.33-12.82,19.41,0,46.87,8.06,68.11,24.17l39.55-52.36c-27.83-22.71-63.71-34.06-103.63-34.06-67,0-101.43,37.72-101.43,79.1,0,61.15,61.52,70.67,101.8,78,24.17,4.4,34.42,9.16,34.42,18.68s-13.18,14.28-27.1,14.28a113.81,113.81,0,0,1-78.73-31.49l-38.45,54.93c26,23.43,61.52,38.81,113.52,38.81,65.55,0,105.46-31.12,105.46-84.95C1509.6,384.32,1449.91,372.61,1409.63,365.65Z"/><path class="cls-2" d="M126.43,8.1a8.37,8.37,0,0,0-2.75-5.88h0a8.6,8.6,0,0,0-12,.49L2.26,120.15a8.41,8.41,0,0,0,.49,11.95,8.59,8.59,0,0,0,12-.48L124.17,14.18A8.36,8.36,0,0,0,126.43,8.1Z"/><path class="cls-2" d="M179.14,2.71,69.76,120.15a8.39,8.39,0,0,0,.49,11.95,8.58,8.58,0,0,0,12-.48L191.67,14.18a8.42,8.42,0,0,0-.49-12A8.61,8.61,0,0,0,179.14,2.71Z"/><path class="cls-2" d="M738.62,182.94l-68.9,25.19,25.2,68.9,68.9-25.19Zm-56.19,37.89a11.19,11.19,0,0,1-.38-6.41,10.49,10.49,0,1,0,17.74-6.48,11.14,11.14,0,0,1,3.84,5.14,11.29,11.29,0,1,1-21.2,7.75ZM709.15,261a11.26,11.26,0,0,1-14.86-13.13A10.49,10.49,0,1,0,712,241.41,11.27,11.27,0,0,1,709.15,261Zm6.76-52.44a11.19,11.19,0,0,1-.39-6.41,10.49,10.49,0,1,0,20.28-2.58,10.2,10.2,0,0,0-2.54-3.9,11.14,11.14,0,0,1,3.84,5.14,11.28,11.28,0,1,1-21.19,7.75Zm26.71,40.2a11.27,11.27,0,0,1-14.86-13.13A10.48,10.48,0,1,0,748,233.08a10.53,10.53,0,0,0-2.53-3.91,11.28,11.28,0,0,1-2.89,19.62Z"/></g></g></svg>