<svg xmlns="http://www.w3.org/2000/svg" viewBox="0 0 1509.6 525.67"><defs><style>.cls-1{fill:#57c2e4;}.cls-2{fill:#1d1d1b;}.cls-3{fill:#fff;}</style></defs><title>PACE-Bricks_Font_LightBackground</title><g id="Ebene_2" data-name="Ebene 2"><g id="Ebene_2-2" data-name="Ebene 2"><path class="cls-1" d="M126.43,8.1a8.37,8.37,0,0,0-2.75-5.88h0a8.6,8.6,0,0,0-12,.49L2.26,120.15a8.41,8.41,0,0,0,.49,11.95,8.59,8.59,0,0,0,12-.48L124.17,14.18A8.36,8.36,0,0,0,126.43,8.1Z"/><path class="cls-1" d="M193.92,8.1a8.4,8.4,0,0,0-2.74-5.88,8.61,8.61,0,0,0-12,.49L69.76,120.15a8.39,8.39,0,0,0,.49,11.95,8.58,8.58,0,0,0,12-.48L191.67,14.18A8.39,8.39,0,0,0,193.92,8.1Z"/><path class="cls-2" d="M231.19,91.22H198.83a7.34,7.34,0,0,0-7.2,7.3v90a7.27,7.27,0,1,0,14.54,0v-29H229.3c20.63,0,41.44-10.67,41.44-34.51v-.29C270.74,104.37,255.22,91.22,231.19,91.22Zm-1.46,54.85H206.17V104.81h24.15c16.35,0,25.73,7.42,25.73,20.34v.29C256.05,138,245.72,146.07,229.73,146.07Z"/><path class="cls-2" d="M332,96.06c-1.62-3.92-4.57-6-8.54-6h-.58c-4,0-6.82,1.94-8.65,5.93l-41.19,89.36a8.06,8.06,0,0,0-.89,3.72,6.76,6.76,0,0,0,6.76,6.72,7.21,7.21,0,0,0,6.92-4.79L296,168.45h53.73l10.17,22.26c1.43,3.23,4,5.09,7.07,5.09a7,7,0,0,0,7.06-7,9,9,0,0,0-.86-3.49ZM343.86,155H301.92l21-46.27Z"/><path class="cls-2" d="M469.74,169.39a6.72,6.72,0,0,0-4.67,2c-9.12,8.3-17.84,11.84-29.14,11.84-21.19,0-37.78-17.6-37.78-40.07v-.29c0-22.68,16.24-39.78,37.78-39.78,10.73,0,19.41,3.44,28.14,11.13l.17.13a8.26,8.26,0,0,0,4.63,1.56,7.44,7.44,0,0,0,7.34-7.16,7.84,7.84,0,0,0-2.88-5.8c-8.07-6.65-18.81-13.45-37.26-13.45-29.67,0-52.9,23.57-52.9,53.66v.29c0,30.42,22.55,53.37,52.47,53.37,15.38,0,27-4.55,38.72-15.2a6.92,6.92,0,0,0,2.43-5.2A7.22,7.22,0,0,0,469.74,169.39Z"/><path class="cls-2" d="M565.79,181.63h-56.5V149.44h49.25a6.74,6.74,0,0,0,6.76-6.72,6.84,6.84,0,0,0-6.76-6.73H509.29V104.67h55.78a6.73,6.73,0,1,0,0-13.45H502a7.35,7.35,0,0,0-7.2,7.3v89.26a7.35,7.35,0,0,0,7.2,7.3h63.84a6.73,6.73,0,1,0,0-13.45Z"/><path class="cls-2" d="M191.34,277h148.3c50.53,0,72.51,33.69,72.51,62.25,0,30.4-17.95,50.9-41.75,56,26.37,4,46.51,28.2,46.51,59.69,0,34.05-23.07,66.28-72.14,66.28H191.34Zm131.09,90.82c7.69,0,14.65-7,14.65-15.75a15,15,0,0,0-14.65-15H265.3v30.76Zm2.2,93.37c10.62,0,17.21-7.32,17.21-16.48,0-8.78-6.59-16.84-17.21-16.84H265.3v33.32Z"/><path class="cls-2" d="M547.27,442.91H520.54v78.37h-74V277H576.93c57.12,0,87.88,38.09,87.88,83.86,0,42.11-24.53,64.45-43.94,74l44.31,86.42H581Zm18.31-104.36h-45v42.84h45c12.45,0,24.16-8.05,24.16-21.6C589.74,346.61,578,338.55,565.58,338.55Z"/><path class="cls-2" d="M694.84,277h74V521.28h-74Z"/><path class="cls-2" d="M795.17,399.34C795.17,323.9,853,273,927.73,273c65.92,0,98.14,37.35,112.79,71L976.8,373.7c-6.22-19-25.26-35.52-49.07-35.52-33.69,0-57.49,27.1-57.49,61.16s23.8,61.15,57.49,61.15c23.81,0,42.85-16.48,49.07-35.52l63.72,29.3c-14.28,32.59-46.87,71.4-112.79,71.4C853,525.67,795.17,474.41,795.17,399.34Z"/><path class="cls-2" d="M1151.11,435.22l-13.55,18.31v67.75h-74V277h74v91.55L1201.64,277h90.45l-92.28,113.52,96.31,130.73H1206Z"/><path class="cls-2" d="M1329.07,431.93a113.81,113.81,0,0,0,78.73,31.49c13.92,0,27.1-4.76,27.1-14.28s-10.25-14.28-34.42-18.68c-40.28-7.32-101.8-16.84-101.8-78,0-41.38,34.42-79.1,101.43-79.1,39.92,0,75.8,11.35,103.63,34.06l-39.55,52.36c-21.24-16.11-48.7-24.17-68.11-24.17-18.31,0-22.33,6.59-22.33,12.82,0,9.52,9.88,12.81,35.88,17.21,40.28,7,100,18.67,100,75.07,0,53.83-39.91,84.95-105.46,84.95-52,0-87.52-15.38-113.52-38.81Z"/><rect class="cls-1" x="680.09" y="193.31" width="73.36" height="73.36" transform="translate(-35.39 260.13) rotate(-20.08)"/><path class="cls-3" d="M699.79,207.94a10.5,10.5,0,1,1-17.74,6.48,11.19,11.19,0,0,0,.38,6.41,11.29,11.29,0,1,0,21.2-7.75A11.14,11.14,0,0,0,699.79,207.94Z"/><path class="cls-3" d="M733.26,195.7a10.31,10.31,0,0,1,2.54,3.9,10.49,10.49,0,1,1-20.28,2.58,11.29,11.29,0,1,0,17.74-6.48Z"/><path class="cls-3" d="M712,241.41a10.49,10.49,0,1,1-17.17,11.11,10.4,10.4,0,0,1-.57-4.62A11.28,11.28,0,1,0,712,241.41Z"/><path class="cls-3" d="M745.51,229.17a10.49,10.49,0,1,1-17.75,6.49,11.28,11.28,0,1,0,17.75-6.49Z"/></g></g></svg>