<svg xmlns="http://www.w3.org/2000/svg" viewBox="0 0 3856.05 1005.36"><defs><style>.cls-1,.cls-10,.cls-5,.cls-7{fill:#1d1d1b;}.cls-1{opacity:0.8;}.cls-2{fill:#49a4bf;}.cls-3{fill:#57c2e4;}.cls-4{fill:#36849e;}.cls-5{opacity:0.25;}.cls-11,.cls-6{fill:#fff;}.cls-8{isolation:isolate;}.cls-9{fill:#f3d4b7;}.cls-10,.cls-11{stroke:#1d1d1b;stroke-miterlimit:10;stroke-width:1.81px;}.cls-12{fill:#9a8d7d;}</style></defs><title>PACE-Bricks_Header_LightBackground</title><g id="Ebene_2" data-name="Ebene 2"><g id="Ebene_2-2" data-name="Ebene 2"><polygon class="cls-1" points="2396.4 880.45 3641.34 1005.36 3856.05 836.23 3372.44 804.87 2457.94 846.75 2396.4 880.45"/><polygon class="cls-2" points="3019.21 450.53 2823.79 601.86 2687.73 588.65 2656.37 585.61 2488.91 569.4 2420.47 562.76 2472.19 522.72 2581.33 438.23 2615.9 411.47 2685.51 418.23 2695.16 419.17 2851.75 434.32 3019.21 450.53"/><polygon class="cls-3" points="2823.77 601.85 2823.77 914.54 2420.46 875.48 2420.46 562.79 2453.97 566.03 2508.27 571.3 2546.43 574.98 2622.92 582.4 2653.23 585.33 2707.53 590.6 2785.06 598.1 2823.77 601.85"/><polygon class="cls-4" points="3019.2 763.24 2823.77 914.55 2823.77 601.86 3019.2 450.55 3019.2 763.24"/><path class="cls-4" d="M2620.39,428.89v27.68c0,13.16,28.73,23.83,64.17,23.83s64.17-10.67,64.17-23.83V428.89Z"/><ellipse class="cls-3" cx="2684.56" cy="428.89" rx="64.17" ry="23.83"/><path class="cls-4" d="M2518.83,504.24v27.68c0,13.16,28.73,23.83,64.17,23.83s64.17-10.67,64.17-23.83V504.24Z"/><ellipse class="cls-3" cx="2583" cy="504.24" rx="64.17" ry="23.83"/><path class="cls-4" d="M2804.87,444.52V472.2c0,13.16,28.73,23.83,64.17,23.83s64.17-10.67,64.17-23.83V444.52Z"/><ellipse class="cls-3" cx="2869.04" cy="444.52" rx="64.17" ry="23.83"/><path class="cls-4" d="M2703.31,519.87v27.68c0,13.16,28.73,23.83,64.17,23.83s64.17-10.67,64.17-23.83V519.87Z"/><ellipse class="cls-3" cx="2767.48" cy="519.87" rx="64.17" ry="23.83"/><path class="cls-5" d="M2869,421l-50.19,38.82a0,0,0,0,1,0,0l0,0-.12,27.46L2802,500.15a149.79,149.79,0,0,0-29.57-3.75h-.89l-51.61,39.93v27.38l-13,10.08-267.26-25.9L2471.78,523l109.14-84.5,34.57-26.75,20,1.95c11.76-5.12,29.18-8.36,48.71-8.36,31.14,0,57.07,8.24,62.93,19.18l68.91,6.64c11.6-6.13,30.82-10.19,52.65-10.19Z"/><path class="cls-6" d="M2672.41,830.08a39.33,39.33,0,0,0-5.18-2.62c-2.9-1.16-5.88-2-8.77-3.21-2.32-1-3.37-3-3.36-5.69s1.17-4.84,3.46-5.21a20.64,20.64,0,0,1,5.33-.12l.36,0c3.74.43,6.9,2.64,7.3,7.34.07.76.38,1,.76,1a3.51,3.51,0,0,0,.56,0,3.51,3.51,0,0,1,.55,0l.18,0a1,1,0,0,0,.21,0c.58.06.55-.6.51-1.15-.32-3.51-1.79-6.21-4.69-7.8a16.44,16.44,0,0,0-6.36-2,18.78,18.78,0,0,0-5.54.32c-3.75.76-5.44,3.13-5.31,7.43s1.13,6.7,5.36,8.45l1,.41c3.47,1.28,7,2.45,10.38,3.87a5.72,5.72,0,0,1,2.5,2.4c1.87,3.49.37,8.2-2.88,9.1a12.63,12.63,0,0,1-4.73.41,15.11,15.11,0,0,1-4.84-1.36,8.3,8.3,0,0,1-4.72-6.66c-.1-.63-.13-1.27-.2-2l-2.59-.26c-.37,4.82,1.77,8.9,5.65,10.72a20,20,0,0,0,6.39,1.77,20.43,20.43,0,0,0,5.35-.2c5.38-.88,6.92-5.71,5.68-11.4A5.43,5.43,0,0,0,2672.41,830.08Z"/><path class="cls-6" d="M2703.63,842.19c3.13-5.91,3.15-12.33.58-19a14.62,14.62,0,0,0-6.86-7.83,16.25,16.25,0,0,0-6.15-1.84,22.62,22.62,0,0,0-3.19-.07,11.26,11.26,0,0,0-7.34,3c-4.52,4.25-6.08,13.38-3.35,20.52a22.87,22.87,0,0,0,3.15,5.61,15.21,15.21,0,0,0,10.75,5.51,15.44,15.44,0,0,0,7.17-.84,2,2,0,0,1,.94-.18,1.68,1.68,0,0,1,1.1.66c1.13,1.26,2.32,2.45,3.56,3.74l1.64-1.9-4.55-4.79a12,12,0,0,0,1.53-1.16A6.11,6.11,0,0,0,2703.63,842.19Zm-6.13,2.41a10.57,10.57,0,0,1-6.23,1.2,13.29,13.29,0,0,1-9.09-5c-2.94-3.78-3.63-8.21-3.38-12.81.18-3.23.91-6.22,2.83-8.55a10.92,10.92,0,0,1,1.47-1.49,10.24,10.24,0,0,1,7.84-2.08h.09a12.46,12.46,0,0,1,10.3,7.16l.2.42a19.23,19.23,0,0,1,.87,2.32,24.08,24.08,0,0,1,.9,5.36,19.54,19.54,0,0,1-1.27,8.31A9.77,9.77,0,0,1,2697.5,844.6Z"/><path class="cls-6" d="M2553.87,805.07c-4.63-1-9.31-1.3-14.11-1.93,0,.9,0,1.44,0,2l.08,23.51c0,1.76,0,2.2.88,2.29a9,9,0,0,0,1.17,0c.07,0,.14-.07.33-.19,0-3.68,0-7.47,0-11.41l1.54.15.77.07,1.85.2,1.49.15c1.43.14,2.86.26,4.29.27,3.92,0,6.1-2.61,6.17-7.11C2558.36,809.25,2556.67,805.66,2553.87,805.07Zm-1.57,12.82a59.76,59.76,0,0,1-6-.36l-1.36-.14-2.15-.21a1.13,1.13,0,0,1-.62-.79c0-3.52-.06-7-.07-10.61,2.09.21,4.1.34,6.08.54,1.29.12,2.56.28,3.83.49,2.54.43,3.78,2.58,3.86,5.86C2556,815.79,2554.72,817.88,2552.3,817.89Z"/><path class="cls-6" d="M2619.37,820.76l-1.84-.19c-.05.94-.09,1.76-.13,2.57a8,8,0,0,0-6.11-3.88l-.18,0c-2.33-.23-4.5.06-6.22,1.87-2.72,2.85-2.64,10,0,13.44a9.19,9.19,0,0,0,6.14,3,7.38,7.38,0,0,0,6.54-2.33c-.08,1.53-.06,3.09-.27,4.58-.34,2.45-1.62,3.87-3.75,4a13.31,13.31,0,0,1-2.09-.06,24.75,24.75,0,0,1-2.56-.4,3.91,3.91,0,0,1-2.84-2.73c-.38-1.13-.59-1.55-1.13-1.61a4,4,0,0,0-1.24.19c.23,1.81.72,3.59,2.22,4.54a12.55,12.55,0,0,0,5.44,2,9.46,9.46,0,0,0,5.4-1.07c2.31-1.21,2.74-3.85,2.74-6.62,0-5.36,0-10.73-.06-16.09C2619.45,821.51,2619.4,821.1,2619.37,820.76Zm-7.91,15h-.06c-4.18-.42-6.43-3.2-6.43-8,0-4.55,2.34-7,6.31-6.66s6.24,3.42,6.22,7.9S2615.17,836.1,2611.46,835.76Z"/><path class="cls-6" d="M2728,848.46l-.36,0c-2.91-.28-5.82-.58-8.72-.87-2.18-.22-4.36-.43-6.61-.62-1-.11-1.35-.52-1.36-1.77,0-9,0-18.06-.06-27.09,0-.53,0-1.06,0-1.66l-2.64-.27a7.64,7.64,0,0,0-.07.8q0,15.42.08,30.81c0,.94.32,1.2,1.07,1.27,6.12.55,12.25,1.14,18.38,1.73.74.08,1.32.1,1.31-1.07S2728.49,848.51,2728,848.46Z"/><path class="cls-6" d="M2648.4,833c0-6.39-3-10.17-8.15-10.8l-.25,0c-5.08-.51-8.19,2.57-8.31,8.21-.12,6.12,3,10.25,8.38,11l.33,0c3.92.39,7.37-2.19,7.57-6-.78.21-1.83.11-2.1.62-1.5,2.75-3,3.85-5.41,3.61a10.12,10.12,0,0,1-1.56-.3,7.07,7.07,0,0,1-4.91-7.78Zm-14.51-3.23c.08-3.7,2.43-6.13,5.75-6l.32,0c3.42.34,5.93,3.09,6.34,7.16Z"/><path class="cls-6" d="M2590.07,826.57a14.63,14.63,0,0,0-1.86-.73c-2-.6-4-1.13-6-1.77a2.7,2.7,0,0,1-2-2.44,2.63,2.63,0,0,1,1.57-2.92,3.61,3.61,0,0,1,1.37-.32,20.55,20.55,0,0,1,2.35.06l.64.08c2.44.41,3.5,1.59,4.07,4.46l2,.19c0-2.5-1-4.37-3-5.37a11.79,11.79,0,0,0-4.15-1.22,11.38,11.38,0,0,0-4.55.49c-1.62.52-2.48,2.29-2.35,4.42s1,3.54,2.82,4.19c2.34.83,4.72,1.49,7.08,2.21,1.73.52,2.56,1.47,2.64,3.07a2.67,2.67,0,0,1-2.43,3.11,14.31,14.31,0,0,1-3.07,0l-.63-.08c-3-.4-4-1.46-4.86-4.75l-2-.2c.19,2.15.69,4.09,2.43,5.1a13.43,13.43,0,0,0,5.38,1.84,10.41,10.41,0,0,0,5.31-.86c1.66-.73,2.15-2.49,2-4.54A4.52,4.52,0,0,0,2590.07,826.57Z"/><path class="cls-6" d="M2567.42,814.9l-.19,0c-5-.5-8.1,2.7-8.18,8.58-.08,6.08,3.06,10.15,8.26,10.71h.1c5.29.52,8.42-2.67,8.47-8.65C2575.93,819.36,2572.89,815.54,2567.42,814.9Zm4.72,15.93a4.42,4.42,0,0,1-1.67,1,7.48,7.48,0,0,1-3.24.47,6.44,6.44,0,0,1-4.2-2.29c-2.34-2.59-2.63-8.39-.63-11.23a5.64,5.64,0,0,1,5.21-2,6.88,6.88,0,0,1,3.64,1.46,7,7,0,0,1,.86.86,9.56,9.56,0,0,1,1.7,6C2573.81,827.4,2573.46,829.51,2572.14,830.83Z"/><path class="cls-6" d="M2601.65,835.29l-.44,0c-1.55-.27-2.08-.88-2.11-2.69-.06-3.71,0-7.42-.07-11.14,0-.74.23-1,.81-.93h.12l1,.12,1.59.15V819l-3.54-.35c0-2,0-3.94,0-5.83l-1.87-.18c0,.26-.07.39-.08.52,0,.87,0,1.74,0,2.61,0,2.56,0,2.56-2.18,2.53a2.37,2.37,0,0,0-.38.08c0,.52,0,1,0,1.57l2.57.42c0,.61,0,1.1,0,1.6,0,3.75,0,7.52.06,11.27,0,1.37.37,2.72,1.63,3.22a25.52,25.52,0,0,0,3.86.9c0-.91,0-1.44,0-2Z"/><path class="cls-6" d="M2627.59,821.33a12.51,12.51,0,0,0-2.9,2.13c0-.57-.07-1.37-.12-2.27l-.62-.06-.55,0a5.76,5.76,0,0,0-.7,0c0,6,0,11.83.06,17.75l1.95.19c0-1.6,0-3.11,0-4.62a66.65,66.65,0,0,1,.26-7c.41-3.09,2.11-4.45,4.78-4.18l.36,0,.43,0,.82.07c0-.78,0-1.44,0-2.33A13.07,13.07,0,0,0,2627.59,821.33Z"/><path class="cls-6" d="M2611.77,682.15a2.2,2.2,0,0,0-1.11-2,6.75,6.75,0,0,0-2.33-1,8,8,0,0,0-1.11-.21,3.35,3.35,0,0,0-2.3.43,1.3,1.3,0,0,0-.51.9,3.24,3.24,0,0,0,.59,1.89,5.12,5.12,0,0,0,2.84,2.3,3.69,3.69,0,0,0,.46.08A3.31,3.31,0,0,0,2611.77,682.15Z"/><path class="cls-6" d="M2653.73,682.39a6.72,6.72,0,0,0-1.1,0c-1.66.09-3.27.8-3.13,1.94a3.92,3.92,0,0,0,3.15,2.69,2,2,0,0,0,.42,0,3.45,3.45,0,0,0,2.28-1.2,2.77,2.77,0,0,0,.85-1.91C2656.09,683,2655,682.52,2653.73,682.39Z"/><path class="cls-6" d="M2684,735.28a4.53,4.53,0,0,0-.31-.78h0a3.73,3.73,0,0,0-3.34-2.14,10.34,10.34,0,0,0-2.32.08,36.53,36.53,0,0,1-8.56.33,10.24,10.24,0,0,1-5.59-1.86,148.49,148.49,0,0,0,16.89-42.12c1.5-6.62,4.42-22.33.51-30.41,0,0,0-.08,0-.12a13,13,0,0,0-.74-1.34c-7.26-11.28-17.89-18-30.72-19.44l-.51-.05a45.83,45.83,0,0,0-16.94,1.4c-1-.3-1.93-.57-2.94-.82a42.13,42.13,0,0,0-7.32-1.54l-.69-.07c-6.33-.63-11.83.65-16.39,3.77a75.59,75.59,0,0,0-13.89-5.54,52.35,52.35,0,0,0-9.06-1.78c-7.09-.71-13,.57-17.51,3.82-7.59,5.43-11.07,16.11-10.33,31.77.24,5.27,2.9,21.67,7.08,37.54,2.64,10,5.37,18,8.19,23.94,3.1,6.59,6.29,10.7,9.57,12.27a7.39,7.39,0,0,0,2.48.71c2.27.23,5-.67,7.91-4.35,4.47-5.74,8.88-10.83,10.85-13.08a17.36,17.36,0,0,0,7.8,3.2v0c-.54.69-1,1.3-1.37,1.82-1.89,2.57-2.28,3.1-8.4,3.94-1.73.24-6.35.87-6.4,4.57a4.57,4.57,0,0,0,.5,2.12c1.27,2.86,5.2,4.45,5.73,4.66a24.5,24.5,0,0,0,6.32,1.56,15.6,15.6,0,0,0,12.55-4c-.05,14.3.53,28.38,2,32.82,1.26,3.67,4.32,12.64,13.88,13.58a19,19,0,0,0,4.66-.14c10-1.46,14.29-6.08,15.93-17.06.82-5.5,2.19-18.24,2.93-26a1.62,1.62,0,0,1,.32-.82s.11-.08.54,0a8.68,8.68,0,0,1,1.85.48l.25.07,1.42.28.09,0,1.3.16c4.49.44,9.72-.16,12.87-1.53C2678.64,743.55,2685.14,739.48,2684,735.28Zm-34.64-93.08,1,.12c11.5,1.43,20.62,7.26,27.09,17.32a4.79,4.79,0,0,1,.34.59c4.15,9-1.33,40.12-16.47,66l-.48-.73-.2-.31c4-7.29,3.22-15,2.49-21.81a61.83,61.83,0,0,1-.53-7.89,63.74,63.74,0,0,1,.65-6.93,48.58,48.58,0,0,0,.59-8.62,4,4,0,0,0,.06-1.19c-.26-3.15-3.4-12.77-9.76-21.83A52.22,52.22,0,0,0,2639,642.39,44.8,44.8,0,0,1,2649.31,642.2Zm8.76,78.61a27.81,27.81,0,0,1-1.06-2.59c-.3-.84-.94-2.23-1.83-4.13-3.15-6.72-10.11-21.6-8.35-29.08a6.61,6.61,0,0,1,.85-2.09c1-1.52,3.2-3,8.13-2.48a30.35,30.35,0,0,1,4.07.72,52.18,52.18,0,0,1-.57,6.37,65.76,65.76,0,0,0-.68,7.48,63.65,63.65,0,0,0,.55,8.57c.17,1.64.35,3.3.46,4.95a29.35,29.35,0,0,1-.75,9.93,18.52,18.52,0,0,1-.77,2.24l0,.11m-67.93-41.48c0,.52,0,1.27.1,2.27a106.77,106.77,0,0,1-.35,18.69,27.91,27.91,0,0,0,5.52,20.35c.45.58.92,1.14,1.41,1.66-1.93,2.19-6.14,7.05-10.61,12.79-2.11,2.7-3.78,3.14-4.88,3a3.39,3.39,0,0,1-1.22-.37c-2.24-1.08-4.67-4.37-7.13-9.53a138.37,138.37,0,0,1-7.84-23c-4.22-16-6.7-32-6.91-36.41-.66-14,2.26-23.4,8.65-28,4.29-3,9.73-3.69,15.12-3.15,7.53.74,15,3.77,19.11,5.71l-.05.06c-11.41,12.11-10.95,34.87-10.92,35.75m9.48,40.1c-.47-.49-.92-1-1.36-1.57a22.61,22.61,0,0,1-4.43-16.48,111.4,111.4,0,0,0,.37-19.58c0-.27,0-.52,0-.76s0-.46,0-.65a21.11,21.11,0,0,1,8.56-3.74,14,14,0,0,1,4-.24,9.09,9.09,0,0,1,2.21.49c2.51.9,4,3,4.68,6.42a82.06,82.06,0,0,1,1.52,13.23,37.65,37.65,0,0,1-3.27,17c-.47,1.15-.91,2.24-1.28,3.37l-.29.89a57.94,57.94,0,0,0-1.86,6.24A14.54,14.54,0,0,1,2599.62,719.35Zm17,17.14c-3.49,5.27-8.1,6.49-12.37,6.07a20.92,20.92,0,0,1-5.37-1.33,9.58,9.58,0,0,1-2.42-1.38,11.75,11.75,0,0,1,2.7-.63c7.19-1,8.3-2.07,10.71-5.36.55-.75,1.18-1.6,2-2.63a2.1,2.1,0,0,0,.41-.8,1.56,1.56,0,0,1,1.23-.54,3.26,3.26,0,0,1,1.22.52,5.43,5.43,0,0,1,2.08,3.26A3.79,3.79,0,0,1,2616.65,736.49Zm36.28,3.87c0-.06,0-.11,0-.17-.07,1-.23,2.88-.45,5.25-.74,7.68-2.12,20.57-2.92,25.91-1.38,9.25-4.39,12.45-12.87,13.69a16,16,0,0,1-3.79.13c-6-.59-8.46-5.26-10.2-10.37-1.2-3.52-1.89-17.72-1.74-34.22,0-1.61,0-3.24.07-4.89,0-.12,0-.24,0-.37s0-.25,0-.38v-.07a2.25,2.25,0,0,0-.08-.69h0a12.38,12.38,0,0,0-.25-1.39,10.33,10.33,0,0,0-4.4-6.42,6.89,6.89,0,0,0-2.74-1,4.3,4.3,0,0,0-1.28.06,56.88,56.88,0,0,1,1.71-5.76l.3-.88c.33-1,.74-2,1.18-3.1a41.62,41.62,0,0,0,3.6-16.27,79.87,79.87,0,0,0-1.61-16.74c-1.22-6.48-5-10.28-10.67-10.85a16.26,16.26,0,0,0-1.87-.07c-.64,0-1.28.07-1.9.14a25.4,25.4,0,0,0-7.66,2.33c-.4.19-.76.37-1.1.56.5-7,2.4-20.12,9.64-27.79.32-.34.64-.66,1-1s.46-.43.7-.63c4.22-3.57,9.54-5,15.85-4.42l.54.06a37.59,37.59,0,0,1,6.71,1.41,37,37,0,0,1,5.33,2.11,46,46,0,0,1,17.32,15.41,60.68,60.68,0,0,1,8.08,16.54,35.21,35.21,0,0,0-3.6-.58c-5-.49-8.63.61-10.83,3.3a8.9,8.9,0,0,0-.58.79c-5.53,8.55,3.14,27.07,7.31,36,.76,1.64,1.42,3,1.63,3.64a37.17,37.17,0,0,0,4.38,8.48c.4.59.78,1.17,1.07,1.68C2656.56,730.28,2652.54,731.58,2652.93,740.36Zm20.31.21a24.39,24.39,0,0,1-9.79,1.37l-1.39-.1c-3.11-.31-4.75-1.08-5.17-1.52-.25-5.36,1.49-5.75,3.32-6.15l.75-.18a7.63,7.63,0,0,0,.76.73,13.91,13.91,0,0,0,7.82,2.83,40.43,40.43,0,0,0,9-.29A19.64,19.64,0,0,1,2673.24,740.57Z"/><polygon class="cls-2" points="3230.59 641.4 2827.28 602.32 3022.71 451 3426.02 490.09 3230.59 641.4"/><polygon class="cls-3" points="3230.59 641.41 3230.59 954.1 2827.28 915 2827.28 602.31 2842.94 603.83 2880.05 607.43 2927.47 612.04 2957.71 614.97 3006.96 619.73 3055.79 624.46 3108.84 629.61 3230.59 641.41"/><polygon class="cls-4" points="3426.02 802.78 3230.59 954.09 3230.59 641.4 3426.02 490.09 3426.02 802.78"/><path class="cls-3" d="M132.9,336.32a8.82,8.82,0,0,0-2.89-6.18h0a9,9,0,0,0-12.65.51L2.38,454.1a8.82,8.82,0,0,0,.52,12.56,9,9,0,0,0,12.64-.51l115-123.45A8.81,8.81,0,0,0,132.9,336.32Z"/><path class="cls-3" d="M203.84,336.32a8.77,8.77,0,0,0-2.88-6.18,9,9,0,0,0-12.65.51L73.32,454.1a8.82,8.82,0,0,0,.52,12.56,9,9,0,0,0,12.65-.51l115-123.45A8.73,8.73,0,0,0,203.84,336.32Z"/><path class="cls-7" d="M243,423.68H209a7.73,7.73,0,0,0-7.57,7.68v94.58a7.65,7.65,0,1,0,15.29,0V495.48H241c21.68,0,43.56-11.22,43.56-36.28v-.3C284.59,437.51,268.27,423.68,243,423.68Zm-1.52,57.66H216.72V438H242.1c17.19,0,27,7.8,27,21.39v.3C269.15,472.83,258.29,481.34,241.49,481.34Z"/><path class="cls-7" d="M349,428.77c-1.7-4.12-4.8-6.3-9-6.3h-.61c-4.2,0-7.18,2-9.1,6.24L287,522.64a8.5,8.5,0,0,0-.94,3.91,7.1,7.1,0,0,0,7.11,7.07,7.61,7.61,0,0,0,7.28-5l10.7-23.72h56.48l10.69,23.4c1.5,3.41,4.21,5.36,7.43,5.36a7.41,7.41,0,0,0,7.42-7.37,9.52,9.52,0,0,0-.89-3.67Zm12.46,62H317.37l22-48.64Z"/><path class="cls-7" d="M493.76,505.86a7.09,7.09,0,0,0-4.9,2.09c-9.59,8.72-18.75,12.44-30.63,12.44-22.27,0-39.72-18.5-39.72-42.12V478c0-23.84,17.08-41.81,39.72-41.81,11.28,0,20.4,3.61,29.58,11.7l.18.13a8.71,8.71,0,0,0,4.86,1.64,7.83,7.83,0,0,0,7.72-7.53,8.23,8.23,0,0,0-3-6.09c-8.48-7-19.77-14.14-39.16-14.14-31.19,0-55.62,24.77-55.62,56.4v.3c0,32,23.72,56.11,55.16,56.11,16.17,0,28.36-4.79,40.71-16a7.25,7.25,0,0,0,2.55-5.47A7.58,7.58,0,0,0,493.76,505.86Z"/><path class="cls-7" d="M594.73,518.72H535.34V484.89h51.77a7.1,7.1,0,0,0,7.11-7.07,7.19,7.19,0,0,0-7.11-7.07H535.34V437.82H594a7.07,7.07,0,1,0,0-14.14H527.62a7.72,7.72,0,0,0-7.56,7.68v93.83a7.71,7.71,0,0,0,7.56,7.67h67.11a7.07,7.07,0,1,0,0-14.14Z"/><path class="cls-7" d="M201.12,619H357c53.12,0,76.22,35.42,76.22,65.44,0,31.95-18.86,53.5-43.88,58.89,27.71,4.24,48.88,29.64,48.88,62.74,0,35.8-24.25,69.67-75.83,69.67H201.12Zm137.8,95.46c8.09,0,15.4-7.31,15.4-16.55a15.78,15.78,0,0,0-15.4-15.78h-60v32.33Zm2.31,98.16c11.17,0,18.09-7.7,18.09-17.32,0-9.24-6.92-17.71-18.09-17.71H278.88v35Z"/><path class="cls-7" d="M575.26,793.37h-28.1v82.37H469.41V619h137c60,0,92.38,40,92.38,88.15,0,44.27-25.79,67.75-46.19,77.75l46.57,90.84H610.67Zm19.25-109.7H547.16v45h47.35c13.08,0,25.4-8.47,25.4-22.71C619.91,692.14,607.59,683.67,594.51,683.67Z"/><path class="cls-7" d="M730.38,619h77.76V875.74H730.38Z"/><path class="cls-7" d="M835.85,747.57c0-79.3,60.82-132.8,139.34-132.8,69.29,0,103.16,39.26,118.56,74.67l-67,31.18c-6.54-20-26.56-37.33-51.58-37.33-35.41,0-60.43,28.48-60.43,64.28s25,64.28,60.43,64.28c25,0,45-17.32,51.58-37.34l67,30.79c-15,34.26-49.27,75.06-118.56,75.06C896.67,880.36,835.85,826.48,835.85,747.57Z"/><path class="cls-7" d="M1210,785.29l-14.24,19.24v71.21H1118V619h77.76v96.23L1263.11,619h95.07l-97,119.33,101.24,137.41h-94.69Z"/><path class="cls-7" d="M1397.06,781.82a119.61,119.61,0,0,0,82.75,33.11c14.63,0,28.49-5,28.49-15s-10.78-15-36.18-19.64c-42.35-7.69-107-17.7-107-82,0-43.5,36.18-83.15,106.62-83.15,42,0,79.68,11.94,108.93,35.8l-41.57,55c-22.32-16.94-51.19-25.41-71.59-25.41-19.25,0-23.48,6.93-23.48,13.47,0,10,10.39,13.48,37.72,18.09,42.34,7.32,105.08,19.64,105.08,78.91,0,56.59-42,89.3-110.86,89.3-54.65,0-92-16.16-119.32-40.8Z"/><rect class="cls-3" x="714.88" y="530.99" width="77.11" height="77.11" transform="translate(-149.77 293.37) rotate(-20.08)"/><path class="cls-6" d="M735.59,546.37a11,11,0,1,1-18.66,6.82,11.86,11.86,0,1,0,18.66-6.82Z"/><path class="cls-6" d="M770.77,533.51a11,11,0,1,1-18.65,6.82,11.87,11.87,0,1,0,18.65-6.82Z"/><path class="cls-6" d="M748.45,581.56a11,11,0,1,1-18.65,6.82,11.87,11.87,0,1,0,18.65-6.82Z"/><path class="cls-6" d="M783.64,568.7a11,11,0,1,1-18,11.67,10.86,10.86,0,0,1-.61-4.85,11.7,11.7,0,0,0,.4,6.73,11.86,11.86,0,1,0,22.28-8.14A11.72,11.72,0,0,0,783.64,568.7Z"/><polygon class="cls-2" points="3636.95 680.84 3233.64 641.76 3429.07 490.44 3832.38 529.53 3636.95 680.84"/><polygon class="cls-3" points="3636.95 680.85 3636.95 993.54 3515.2 981.75 3462.15 976.59 3413.32 971.86 3364.07 967.1 3333.83 964.17 3286.41 959.56 3249.3 955.97 3233.64 954.44 3233.64 641.75 3636.95 680.85"/><polygon class="cls-4" points="3832.38 842.22 3636.95 993.53 3636.95 680.84 3832.38 529.53 3832.38 842.22"/><path class="cls-4" d="M3433.57,507.88v27.67c0,13.17,28.73,23.84,64.17,23.84s64.17-10.67,64.17-23.84V507.88Z"/><ellipse class="cls-3" cx="3497.74" cy="507.88" rx="64.17" ry="23.83"/><path class="cls-4" d="M3332,583.22V610.9c0,13.16,28.73,23.83,64.17,23.83s64.17-10.67,64.17-23.83V583.22Z"/><path class="cls-3" d="M3460.34,583.22c0,13.16-28.73,23.83-64.17,23.83S3332,596.38,3332,583.22s28.73-23.83,64.17-23.83S3460.34,570.06,3460.34,583.22Z"/><path class="cls-4" d="M3618.05,523.5v27.68c0,13.17,28.73,23.84,64.17,23.84s64.17-10.67,64.17-23.84V523.5Z"/><ellipse class="cls-3" cx="3682.22" cy="523.5" rx="64.17" ry="23.83"/><path class="cls-4" d="M3516.48,598.85v27.68c0,13.16,28.73,23.83,64.17,23.83s64.17-10.67,64.17-23.83V598.85Z"/><ellipse class="cls-3" cx="3580.65" cy="598.85" rx="64.17" ry="23.83"/><path class="cls-6" d="M2953.48,820.88c0,.32,0,.63,0,.93,0,6,0,11.9.06,17.85s0,11.9.05,17.85a16.78,16.78,0,0,1-.6,4.74,12.59,12.59,0,0,1-.58,1.63,10.23,10.23,0,0,1-2.1,3.07,8.26,8.26,0,0,1-2.33,1.65,8,8,0,0,1-1.6.57,12.23,12.23,0,0,1-3.81.26,13,13,0,0,1-2-.38,12.79,12.79,0,0,1-1.4-.47,9.32,9.32,0,0,1-3-2,10.53,10.53,0,0,1-1.83-2.33c-.2-.34-.37-.69-.54-1s-.21-.47-.3-.71a14.14,14.14,0,0,1-.86-3.53c-.07-.65-.1-1.3-.16-2l.11,0c.87,0,1.21.07,1.4.28a2.08,2.08,0,0,1,.29,1.07c0,.11,0,.21,0,.33a13.58,13.58,0,0,0,.48,2.43,9.41,9.41,0,0,0,1.62,3.19,8.15,8.15,0,0,0,1.53,1.47,8.89,8.89,0,0,0,3.31,1.44,12.63,12.63,0,0,0,1.56.25,9,9,0,0,0,2.38,0l.53-.11a6.76,6.76,0,0,0,2.57-1.22,7.29,7.29,0,0,0,1.22-1.15,7.75,7.75,0,0,0,.82-1.15,8.56,8.56,0,0,0,.81-1.7,11.38,11.38,0,0,0,.65-3.15c0-.38,0-.76,0-1.14l-.13-35.86v-1.24Z"/><path class="cls-6" d="M3115.86,878l3.45,8.33-.43,0-.4,0h-.17a3.57,3.57,0,0,1-.57-.1,1.29,1.29,0,0,1-.6-.67c-1.7-4.07-3.4-8.16-5.09-12.23q-1-2.4-2-4.8c-.41-1-.8-1.93-1.21-2.88-.08-.2-.16-.39-.25-.59l-.11-.15a1,1,0,0,0-.47-.29,34.84,34.84,0,0,1-6.13-.14c-1.51-.15-3-.35-4.51-.54h-.16l-.25,0-.6-.06.07,20.16-1.75-.17-.17-49.27c2.69.27,5.34.48,8,.74,1.69.17,3.39.36,5.08.59a8.87,8.87,0,0,1,5.83,3.66,16.49,16.49,0,0,1,1.09,1.59l.33.57c.21.38.4.75.58,1.13a21.23,21.23,0,0,1,1.94,7c0,.4.08.8.1,1.21s0,1,.05,1.56c0,.9,0,1.79-.11,2.66a10.22,10.22,0,0,1-2.81,6.68,9.47,9.47,0,0,1-1.55,1.19,10.62,10.62,0,0,1-1.49.7c-.25.1-.52.19-.78.27l-.19.06-.43.13c.38.91.77,1.84,1.14,2.75Q3113.57,872.46,3115.86,878Zm-6.64-15.67c3-.58,5.4-2.19,6.15-5.81a20.49,20.49,0,0,0,.39-4.58,19,19,0,0,0-2.56-9.76c-1.51-2.49-3.49-4.19-6.1-4.49-1.29-.15-2.58-.28-3.87-.41l-6.63-.64a1.24,1.24,0,0,0-.31,0l.09,25.19,2.79.27,1.36.14,1.32.14a26,26,0,0,0,7.37-.1"/><path class="cls-6" d="M3040.44,829.09a13,13,0,0,1,6.51,2.35c3.93,2.82,5.56,7,5.73,12,0,.15,0,.22-.08.34l-.39-.07-1.12-.2-.06-.41c-.09-.69-.17-1.37-.29-2a5.24,5.24,0,0,0-.15-.79c-.88-4-3.11-6.88-6.31-8.23-.24-.1-.49-.2-.75-.29a13.35,13.35,0,0,0-1.6-.39l-1.21-.18-.5,0-.71-.06a14.49,14.49,0,0,0-2.38.05,8.53,8.53,0,0,0-3.19,1,5.43,5.43,0,0,0-.68.42,9.09,9.09,0,0,0-3.62,6.44,12.75,12.75,0,0,0-.15,2q0,6.09,0,12.19t.08,12.18a13.74,13.74,0,0,0,.91,4.88,12.66,12.66,0,0,0,2.41,3.95,11.66,11.66,0,0,0,2,1.75,10,10,0,0,0,2.39,1.17,9.18,9.18,0,0,0,1.81.43l.84.1.59.06c.49,0,1,.06,1.46.06a21.43,21.43,0,0,0,2.27-.1l.59-.05a6.12,6.12,0,0,0,1.28-.3l.59-.23a6.23,6.23,0,0,0,.91-.51,7.35,7.35,0,0,0,2.65-3.29,6.88,6.88,0,0,0,.37-1.08A8.72,8.72,0,0,0,3051,871a9.71,9.71,0,0,0,.1-1.22c0-1.68,0-3.37,0-5,0-.85,0-1.7,0-2.55s0-1.67,0-2.51l0-.18a2.42,2.42,0,0,1-.05-.24l-8.93-.89v-1.93l10.73,1.06v.87l0,10.72c0,6.13-3.3,10.25-8.59,10.64a21.23,21.23,0,0,1-3.74,0,15.14,15.14,0,0,1-2.72-.51,12.75,12.75,0,0,1-4.58-2.37,14,14,0,0,1-3.47-4.31,15.17,15.17,0,0,1-1-2.22c-.11-.33-.21-.66-.31-1a18.16,18.16,0,0,1-.53-3.19c0-.36,0-.74,0-1.11q-.06-6.06-.08-12.1c0-4,0-8.07,0-12.1a15.88,15.88,0,0,1,.19-2.54c.07-.4.15-.8.24-1.18a11.69,11.69,0,0,1,.57-1.76,9.8,9.8,0,0,1,9.37-6.31A22.19,22.19,0,0,1,3040.44,829.09Z"/><path class="cls-6" d="M3084.41,833.5v1.92l-18.83-1.87.07,21.71,17.22,1.71v2l-17.19-1.71.07,21.68,18.83,1.86v1.94l-20.55-2-.17-49.22Z"/><path class="cls-6" d="M3017.75,826.85v1.94L2999.22,827l.07,21.73,17.44,1.73v2l-17.46-1.73.08,21.74,18.55,1.83v1.91l-20.27-2-.17-49.28Z"/><path class="cls-6" d="M2989.38,872.55c.08.27.15.55.26,1-.31,0-.61,0-.88-.06a2.85,2.85,0,0,1-.58-.12,1.38,1.38,0,0,1-.57-.79c-1.25-4.16-2.46-8.34-3.69-12.51-.07-.25-.15-.5-.25-.8l-1.06-.1-6.55-.65-9.83-1c-.54-.06-.78.11-.94.68-1.13,3.84-2.33,7.66-3.43,11.52-.21.73-.5,1.06-1.06,1l-.31-.06a1.09,1.09,0,0,0-.26,0l-.53,0c1.09-3.72,2.13-7.29,3.19-10.87q5.21-17.73,10.44-35.47c.16-.56.29-1.15,1-1.18h.19c.63.06.9.59,1.09,1.26,1.25,4.42,2.52,8.82,3.78,13.24Q2984.37,855,2989.38,872.55Zm-23.28-17.1,17,1.69c-2.87-10.15-5.71-20.17-8.63-30.43-2.82,9.72-5.58,19.19-8.36,28.74"/><path class="cls-6" d="M2992.85,803.43a.81.81,0,0,1,.52.45.75.75,0,0,1-.33.62c-.79.34-1.59.6-2.39.9l-1.93-.19c-.59-.49-.61-1.07,0-1.21a34.53,34.53,0,0,1,4.08-.57Z"/><path class="cls-6" d="M2975.43,798l.23,0a2.73,2.73,0,0,1,.41.1l.48.19c0,.16,0,.3,0,.44l-1.49.12-1.64.13a1.83,1.83,0,0,1,1.81-1Z"/><path class="cls-6" d="M2975.84,799.25a5.07,5.07,0,0,1,1.26.29l-.48.81,1.24.44a2.18,2.18,0,0,1-2.14.87,3.09,3.09,0,0,1-1.42-.51l.73-.6-1.67-.53v-.24A4.06,4.06,0,0,1,2975.84,799.25Z"/><path class="cls-6" d="M3073.69,780.58c1.07.53,2.19,1,3.24,1.65a2.8,2.8,0,0,1,.65.64,1.63,1.63,0,0,1,.36.8l0,.15-.1.24a2,2,0,0,1-.43.49,1.51,1.51,0,0,1-.26.18l-.17.07-1.55.38c-.92.22-1.84.43-2.77.63l-1.17.23a5.07,5.07,0,0,1-.54.09l-.27,0c-.53.05-1.06.08-1.59.12l-.41,0c1-.79,1.76-1.35,2.32-1.84A10.67,10.67,0,0,0,3073.69,780.58Z"/><path class="cls-6" d="M3064.13,764.66a7.94,7.94,0,0,1,5.21,3.21l.06.09a13.41,13.41,0,0,1,1.29,1.92,15.69,15.69,0,0,1,1,2.28,14.27,14.27,0,0,1,.68,2.4,13,13,0,0,1,.24,3.55c0,.37-.09.75-.16,1.11a9.42,9.42,0,0,1-.29,1,5,5,0,0,1-.33.79,6.43,6.43,0,0,1-1.42,1.88,8.76,8.76,0,0,1-2.68,1.66,1.68,1.68,0,0,1-.56.13H3067a1.55,1.55,0,0,1-1.15-.77,2.33,2.33,0,0,1-.33-.67,30.64,30.64,0,0,1-1.11-4c-.09-.45-.17-.9-.23-1.36a22.09,22.09,0,0,0-.42-2.18,15.51,15.51,0,0,0-.5-1.64,13.36,13.36,0,0,0-1.07-2.34,12.53,12.53,0,0,0-1.25-1.79c-.24-.31-.49-.64-.71-1a3.77,3.77,0,0,1-.78-2.23,2.21,2.21,0,0,1,.14-.78,2.3,2.3,0,0,1,2-1.34,18,18,0,0,1,2.32,0Z"/><path class="cls-6" d="M3017.87,800.28a5.57,5.57,0,0,1,1.12.23l.3.1a3.78,3.78,0,0,1,1.6,1,4,4,0,0,1-3,.73l-.23,0a3.88,3.88,0,0,1-1.31-.4,1.86,1.86,0,0,1-.46-.35.79.79,0,0,1-.11-.47,2.13,2.13,0,0,1,0-.27l.08-.18a2.41,2.41,0,0,1,1.75-.41Z"/><path class="cls-6" d="M3030.55,801h.09a2.7,2.7,0,0,1,1.75.93,2.33,2.33,0,0,1-1.9.61h-.07a2.83,2.83,0,0,1-.69-.19,1.77,1.77,0,0,1-.34-.16,2.25,2.25,0,0,1-.84-.75,3.22,3.22,0,0,1,1.3-.43A3.27,3.27,0,0,1,3030.55,801Z"/><path class="cls-6" d="M3033.63,790l2.34.37c.78.13,1.55.27,2.33.46a1.78,1.78,0,0,1,.73.42,1.47,1.47,0,0,1,.4.49l.06.16v.2a1.92,1.92,0,0,1-.15.64,4.93,4.93,0,0,1-.23.46,3,3,0,0,1-.21.32,1.84,1.84,0,0,1-.57.46c-.21.13-.44.24-.65.39a2.09,2.09,0,0,0-.28.22,1,1,0,0,0-.38.7,1.52,1.52,0,0,0,.61,1.05l.05,0c.14.11.28.21.41.33a2.34,2.34,0,0,1,.74,1.21,1.22,1.22,0,0,1-.22,1,1.52,1.52,0,0,1-.7.47q-.42.15-.87.27a7.94,7.94,0,0,1-1.09.29,10.75,10.75,0,0,1-2,.26c-5,0-10,0-15-.11l-.21,0a5.52,5.52,0,0,1-.78-.13,8.7,8.7,0,0,1-1.52-.56,1.89,1.89,0,0,1-.62-.56c-.14-.17-.28-.36-.42-.54l-.14-.18c.19-.2.37-.46.55-.68a1.2,1.2,0,0,1,.6-.44,19.66,19.66,0,0,1,4-.32c2.41.06,4.82.31,7.23.4a4.08,4.08,0,0,0,1.48-.2c.15-.06.31-.12.45-.19a1.19,1.19,0,0,0,.38-.46,2.07,2.07,0,0,0,.26-.87l0-.17a2,2,0,0,0-.85-.75,14.79,14.79,0,0,0-1.85-.6l-.76-.23a4.79,4.79,0,0,1-.95-.3l-.19-.11-.19-.15-.41-.35a4,4,0,0,1-.5-.53.56.56,0,0,1-.1-.32,1.89,1.89,0,0,1,.19-.6,2.51,2.51,0,0,1,.32-.46l.19-.2.18-.11.18-.06c.37-.08.75-.14,1.12-.2s.94-.14,1.41-.19c.85-.09,1.71-.15,2.57-.19a6.43,6.43,0,0,1,.76,0,2.22,2.22,0,0,1,.37,0c.65.06,1.31.18,2,.24Z"/><path class="cls-6" d="M3042.58,673.32l.1.24a10.58,10.58,0,0,1,.5,1.23,2,2,0,0,1,.08.48,11.49,11.49,0,0,1-.13,2.27c0,.28-.1.56-.16.84-.14.59-.29,1.18-.43,1.76-.31,1.18-.63,2.36-1,3.59l-.51,1.9,1-.8c.34-.25.66-.5,1-.76,0,.18,0,.39,0,.66s0,.32,0,.53,0,.38.05.62l4.74-5.33c.11.62.24,1.41.41,2.33.7-.67,1.39-1.32,2.06-1.94l1.85-1.74c0,.12,0,.25.05.37,0,.31,0,.6,0,.91a9.9,9.9,0,0,1-2.61,5.94,19.23,19.23,0,0,1-2.85,2.74c-.29.25-.59.49-.91.72l.54,0,1.6-.06-.09.14-1,1.39L3046,692.7l-.83-.43a7.77,7.77,0,0,0-1.55-.51,4.28,4.28,0,0,0-.59-.1l-.57,0c-2.61,0-4.55,2-6.3,4.31-.13-.23-.26-.48-.39-.74l-.37-.75a3.94,3.94,0,0,0-.9-1.21,1.9,1.9,0,0,0-.72-.37c-.58-.17-1.26-.19-1.88-.34,0-.43,0-.89.06-1.35.08-1.89.17-4,.27-6.13l.51.45.84.73.33.29a13.67,13.67,0,0,0,3.18-9.11c.44.64.71,1,1,1.42.23-.46.45-.93.69-1.41s.47-1,.74-1.42a8.08,8.08,0,0,1,1.41-2A5.11,5.11,0,0,1,3042.58,673.32Z"/><path class="cls-6" d="M3056.15,703c.39,0,.79.1,1.18.17a1.18,1.18,0,0,1,.35.11l.35.2.52.36.18.12a3,3,0,0,0-.16.36c-.05.12-.1.25-.16.38a1.24,1.24,0,0,1-.4.59c-1.09.78-2.19,1.55-3.3,2.3s-2.23,1.49-3.36,2.18c-.28.17-.57.32-.85.47-.51.27-1,.54-1.53.78l-1.18.56c-.39.17-.76.36-1.13.53.52-2.07,1-4.18,1.58-6.39.17-.73.36-1.48.55-2.24l2-.29A22.93,22.93,0,0,1,3056.15,703Z"/><g class="cls-8"><path class="cls-6" d="M2979.28,714.26l.78,1.43c.37.66.73,1.32,1.08,2,.62,1.11,1.23,2.22,1.84,3.34l1.26-.8,2.18-1.38a7.54,7.54,0,0,0,.22.88,3.47,3.47,0,0,0,2.24,2.47l-1.47-.17a48.85,48.85,0,0,1-7.33-1.41,29.09,29.09,0,0,1-2.89-1,6.23,6.23,0,0,1-1-.52,2.59,2.59,0,0,1-.86-.72,1,1,0,0,1-.2-.44.76.76,0,0,1,0-.3,1.92,1.92,0,0,1,.7-1A39.87,39.87,0,0,1,2979.28,714.26Z"/><path class="cls-6" d="M2990.75,711.67c.33.9.63,1.82.93,2.73l-3.46,1.7-4.92,2.42c-.32-.55-.63-1.1-.93-1.66a26.6,26.6,0,0,1-3.5-10c0-.23,0-.45,0-.67s0-.45,0-.66a7,7,0,0,1,.28-1.33c.6-1.86,2-3.1,3.71-2.93a3.29,3.29,0,0,1,1,.25,6.26,6.26,0,0,1,1.6,1,9.05,9.05,0,0,1,1.38,1.46c.3.38.58.77.84,1.16a27,27,0,0,1,2,3.78C2990.07,709.86,2990.42,710.76,2990.75,711.67Zm-7.27-4.36c1.87,1.79,2.75,4.22,4.3,6.34a13.44,13.44,0,0,0-2.76-7.08,2.55,2.55,0,0,0-1.51-.85,1.37,1.37,0,0,0-1.24.54c-.94,1.13-.21,4.5,1.18,5.36,0-1.37-.66-2.8,0-4.31"/><path class="cls-6" d="M2989.41,717.91l.33,0a6.13,6.13,0,0,1,2,.56l1.32.65c1.91.94,3.81,1.93,5.71,2.88l1.41.69c.64.31,1.29.58,1.93.86l1.7.73c.73.29,1.46.58,2.21.85a1.89,1.89,0,0,0,.47.11h.37c.39,0,.79,0,1.19,0l.25,0a2.54,2.54,0,0,1,.38.11c.39.14.82.4.88.63l0,.21a2.16,2.16,0,0,1-.29,1.18l-.18.19a2,2,0,0,1-.47.2,6.17,6.17,0,0,1-.94.16,3.06,3.06,0,0,0-.35,0c-.43-.08-.84-.16-1.25-.26a22.93,22.93,0,0,1-2.35-.74l-1.11-.45c-1.48-.63-2.87-1.36-4.28-2.08-2.66-1.36-5.36-2.64-8-3.92l-.15-.05c-.37-.12-.81-.08-1.09-.32a2.83,2.83,0,0,1-.55-.63c-.07-.14-.14-.26-.19-.39a1,1,0,0,1-.08-.36.53.53,0,0,1,.07-.28,1.55,1.55,0,0,1,.39-.48.64.64,0,0,1,.42-.21Z"/><path class="cls-6" d="M3029.74,710.57l-2.73,3.35-1.34,1.6-1.62,1.75c-1.09,1.17-2.2,2.33-3.31,3.46a4.11,4.11,0,0,1-.51.45,1.46,1.46,0,0,1-1,.31,2.25,2.25,0,0,1-1.08-.47l-.23-.13a2.19,2.19,0,0,0-.92-.31,1.79,1.79,0,0,0-.57,0,2.2,2.2,0,0,0-1,.53,3.06,3.06,0,0,0-.9,1.75,1.38,1.38,0,0,1-.3.75.71.71,0,0,1-.28.16,1.67,1.67,0,0,1-.34,0c-1-.06-2-.14-3-.21l-1.52-.12c-.14,0-.28-.08-.42-.09h-.12a5.19,5.19,0,0,1-1.75.1,16.26,16.26,0,0,1-5.27-2c-3.24-1.61-6.44-3.35-9.7-5.06.2-.08.41-.13.62-.2a2.5,2.5,0,0,0,.6-.27,1.83,1.83,0,0,0,.47-.52l.28-.39c1.56.32,3.1.54,4.63.71.88.08,1.69.14,2.51.17.62,0,1.24,0,1.86.06,9,.09,17.69-2.25,26.3-5.19Z"/><path class="cls-6" d="M3031.75,711.55a1.17,1.17,0,0,1,.72.43,1.9,1.9,0,0,1,.25.38,1.24,1.24,0,0,1,.14.64,1.5,1.5,0,0,1-.19.61l-.16.25-.18.23-4.58,5.14c-1.52,1.71-3.05,3.42-4.6,5.1a5.94,5.94,0,0,1-1.41,1.12,5,5,0,0,1-2.87.59l-.09.18-.05.11a17.81,17.81,0,0,1-2.37-1.86,1,1,0,0,1-.18-.54,2.58,2.58,0,0,1,0-.48,1,1,0,0,1,.16-.56,1.33,1.33,0,0,1,1-.28l.18,0a.47.47,0,0,1,.21.11,2.37,2.37,0,0,0,1.44.83,1.88,1.88,0,0,0,1-.19,5.4,5.4,0,0,0,1.19-.85c.64-.56,1.27-1.16,1.87-1.77,1-1,2-2.09,3-3.17,1.53-1.7,3-3.52,4.42-5.32a2.76,2.76,0,0,1,.58-.56A.88.88,0,0,1,3031.75,711.55Z"/><path class="cls-6" d="M3029.5,702.17a8.12,8.12,0,0,0,.43.94,3.7,3.7,0,0,0,.25.43,3.23,3.23,0,0,0,.71.8,2.19,2.19,0,0,0,1.05.47,6.4,6.4,0,0,1-.11,1.06,3.35,3.35,0,0,1-1.32,2.07,7.23,7.23,0,0,1-1.8.91q-2.85,1.06-5.73,2a74,74,0,0,1-14.75,3.16c-1,.1-2,.17-3.05.22a44.12,44.12,0,0,1-6.5-.13,35.92,35.92,0,0,1-5.17-.91,1.55,1.55,0,0,1-.89-.71c-.47-1.1-.92-2.2-1.37-3.31l-1.37-3.4c.69.22,1.38.47,2.09.68a33.18,33.18,0,0,0,4.6,1.06q1,.16,2.1.27a49.75,49.75,0,0,0,11.57-.37c2.34-.32,4.64-.76,6.92-1.3l2.27-.58c3-.82,6-1.8,8.9-2.91l.55-.2Z"/><path class="cls-6" d="M3033.44,694.48l.12,0c.25.07.51.51.68.94l0,.07a2.56,2.56,0,0,1,.1.34,8.36,8.36,0,0,1,.2,1.07l0,.52c0,.2,0,.38,0,.58a4.87,4.87,0,0,1-.55,1.91c-.13.25-.23.49-.34.75s-.26.67-.4,1a4.18,4.18,0,0,1-.28.56,1.67,1.67,0,0,1-.43.49,1,1,0,0,1-.6.26.61.61,0,0,1-.23-.09,2,2,0,0,1-.65-.87l-.07-.26c-.18-.66-.24-1.34-.36-2a10.81,10.81,0,0,1,.64-3.15,5.7,5.7,0,0,1,.55-1.07,4.29,4.29,0,0,1,.36-.48A1.61,1.61,0,0,1,3033.44,694.48Z"/><path class="cls-6" d="M3041.47,711.6c.49,0,1,.1,1.45.16l1.49.23c.47.07.93.17,1.39.26a1.43,1.43,0,0,1,.09.27l0,.06-7.26,2.94c-2.28.93-4.56,1.87-6.9,2.81l-.51.21a6.17,6.17,0,0,1,.77-1.24l.3-.37c.14-.17.28-.32.41-.49,1-1.1,1.88-2.16,1.67-4a5,5,0,0,0-.15-.79,30.22,30.22,0,0,1,4.35-.25Q3040,711.45,3041.47,711.6Z"/><path class="cls-6" d="M3046.85,697.25a16.48,16.48,0,0,1,.28,5.17c-.09,1-.24,2-.4,3-.23,1.42-.64,2.76-1,4.14a1.15,1.15,0,0,1-.24.52.69.69,0,0,1-.67.24l-.14,0-1.44-.23-1.44-.19-.4,0a33.61,33.61,0,0,0-5.3-.13,26.83,26.83,0,0,0-2.84.33,1.29,1.29,0,0,1-.34,0l-.28,0-.51-.06c1.64-5.56,3.19-10.84,6.81-14.7a6.46,6.46,0,0,1,2.16-1.5,3.9,3.9,0,0,1,.47-.2,4.61,4.61,0,0,1,1.32-.24l.39,0,.23,0a3.31,3.31,0,0,1,1.62.8,4.46,4.46,0,0,1,.85,1A6.88,6.88,0,0,1,3046.85,697.25Zm-2.18,3.15c.26-1.65-.49-2.88-2-3h0a3.14,3.14,0,0,0-2.14.61c-1.69,1.35-2.19,3.5-2.32,5.87.61-.81,1-1.78,1.64-2.57a7.61,7.61,0,0,1,2.12-2.08,1.17,1.17,0,0,1,.69-.19c.5.05.78.62.68,1.49-.13,1.17-.38,2.33-.58,3.49a5.49,5.49,0,0,0,1.91-3.6"/></g><path class="cls-6" d="M3008.65,682.94l.17,0a15.86,15.86,0,0,1,3.69.87,111.64,111.64,0,0,1,17.4,7.77c.86.49,1.24.94,1.21,1.55a1.45,1.45,0,0,1,0,.28,3.58,3.58,0,0,1-.45,1,9.23,9.23,0,0,0-1.26,3.58,9.75,9.75,0,0,0-.08,1.34,1.26,1.26,0,0,1-.42,1.16,1.42,1.42,0,0,1-.39.21c-1.41.55-2.83,1-4.25,1.53a69.53,69.53,0,0,1-21.27,4h-.74l-3.51-.17,0,.23c-1.23-.27-2.45-.6-3.66-.93L2990,704a1.49,1.49,0,0,1-.7-.4,1.11,1.11,0,0,1-.34-.65,1.82,1.82,0,0,1,0-.62,7.14,7.14,0,0,0-.06-1.46,8.65,8.65,0,0,1,.23-3.25,7.26,7.26,0,0,1,1.43-2.75c.5-.6,1-1.18,1.52-1.76a67.93,67.93,0,0,1,7-6.91,14.79,14.79,0,0,1,3.08-2.06,12,12,0,0,1,2.44-.89A12.08,12.08,0,0,1,3008.65,682.94Z"/><path class="cls-6" d="M2981.27,771.1l0,5.89-.38-.19-2-1c-.75-.39-1.46-.77-2.15-1.21a1.22,1.22,0,0,1-.7-1.29l.06-.14a1.23,1.23,0,0,1,.63-.57l.63-.25C2978.65,771.88,2980,771.53,2981.27,771.1Z"/><path class="cls-6" d="M2980.12,801.38a3.34,3.34,0,0,1,1.52.55,2.63,2.63,0,0,1-2.24.87l-.11,0a2.4,2.4,0,0,1-1.36-.64,2.29,2.29,0,0,1,1.57-.76A3.21,3.21,0,0,1,2980.12,801.38Z"/><path class="cls-6" d="M2985.15,802.38l.24,0,.45.09a3.82,3.82,0,0,1,1.66.78,3.62,3.62,0,0,1-2.39.89,5.78,5.78,0,0,1-.93,0c-.24,0-.48-.07-.71-.12a3.09,3.09,0,0,1-1.56-.8A3.91,3.91,0,0,1,2985.15,802.38Z"/><path class="cls-6" d="M3002,793c.38,0,.78.1,1.17.16,1.69.25,3.38.67,5.06,1.07a7.11,7.11,0,0,1,1.59.93v.28a2.53,2.53,0,0,0,0,.28,9.47,9.47,0,0,1-2.12.67c-4.27.35-8.55.63-12.82.95-.46,0-.93.07-1.39.12-.26,0-.51.06-.77.09-.42,0-.86.11-1.28.18a2.25,2.25,0,0,0-.68.29c-.21.14-.43.28-.65.4,0,.14,0,.27,0,.4a6.88,6.88,0,0,0,1.49.65c.79.2,1.59.32,2.38.52l.21,0,.67.2a1.68,1.68,0,0,1,.61.5l.16.23a.72.72,0,0,1,.15.42,1.36,1.36,0,0,1-.92,1l-1.06.13a14.54,14.54,0,0,1-3,.07l-.22,0c-3.47-.43-6.94-1-10.41-1.64a4.53,4.53,0,0,1-1.34-.52c-.3-.16-.59-.34-.86-.52l-.24-.2a1.77,1.77,0,0,1-.24-.23,1.17,1.17,0,0,1-.31-.72.76.76,0,0,1,.18-.48,1.46,1.46,0,0,1,.65-.47,5.49,5.49,0,0,1,.57-.2,14.45,14.45,0,0,1,2.27-.44c2.37-.31,4.78-.4,7.15-.73a23.68,23.68,0,0,0,3.43-.69c.38-.1.75-.22,1.12-.35,1.78-.63,3.51-1.42,5.32-1.92a13,13,0,0,1,3.11-.51A7,7,0,0,1,3002,793Z"/><path class="cls-6" d="M3038.18,800h.05l.13,0c.33.18.64.38,1,.57l.48.29-1.32.91-.13-.23h-.13l-.19,0-.1,0c-.31-.24-.6-.52-.91-.79l-.05-.06c.32-.2.64-.43,1-.61A.42.42,0,0,1,3038.18,800Z"/><path class="cls-6" d="M2986.88,763.13c.52,1.54,1,3,1.51,4.49l2,5.6q1,2.79,2,5.58a2.12,2.12,0,0,1,.16.93,1.37,1.37,0,0,1-.37.78,7.5,7.5,0,0,1-1,1,5.23,5.23,0,0,1-1.07.71,4.35,4.35,0,0,1-.59.25,4.86,4.86,0,0,1-2,.23h-.06c-2.37-.23-3.87-1.48-4.38-4.23a21,21,0,0,1-.15-7.17,17.26,17.26,0,0,1,.7-2.79c.11-.3.22-.59.34-.89a14.38,14.38,0,0,1,.84-1.72,15.85,15.85,0,0,1,1.65-2.41l.1-.09a2.88,2.88,0,0,1,.28-.21Z"/><path class="cls-6" d="M3023.41,752.2l1,.33c1.7.58,3.39,1.13,5,1.81a2.59,2.59,0,0,1,1.73,2,1.66,1.66,0,0,1,0,.33,4.39,4.39,0,0,1,0,1,2.51,2.51,0,0,1-.1.44,2.07,2.07,0,0,1-1.25,1.49,12.42,12.42,0,0,1-4,.65,13.5,13.5,0,0,1-1.68-.08l-.5-.06c-.73-.09-1.46-.21-2.18-.34l-.81-.11a10.65,10.65,0,0,0-2.94.12,9.1,9.1,0,0,0-1.15.26c-.3.09-.61.19-.92.31a13.4,13.4,0,0,0-1.79.87c-.79.46-1.57.92-2.35,1.41a3.1,3.1,0,0,1-2.05.51,4.42,4.42,0,0,1-1.62-.51,3.37,3.37,0,0,1-.31-.21,2.88,2.88,0,0,1-.38-.28,3.35,3.35,0,0,1-.63-.68c-.08-.12-.16-.25-.23-.38l0-.07a3,3,0,0,1-.33-1.29,2.75,2.75,0,0,1,0-.7,3.5,3.5,0,0,1,.55-1.37,6,6,0,0,1,.88-1,6.65,6.65,0,0,1,1.59-1.1,6.19,6.19,0,0,1,.58-.28c.39-.18.79-.33,1.19-.47h.18a4.45,4.45,0,0,1,.65.38c.54.35,1.07.84,1.61,1.14a3.18,3.18,0,0,0,.57.25l.84.22a14.26,14.26,0,0,0,1.41.23l.29,0a9.14,9.14,0,0,0,2.9-.27,7.74,7.74,0,0,0,1.21-.39l.44-.22a4.28,4.28,0,0,0,.61-.4A5.84,5.84,0,0,0,3023.41,752.2Z"/><path class="cls-6" d="M3030.19,736.81h0a3.47,3.47,0,0,1,2.31,1.36,4.22,4.22,0,0,1,.93,2.71,3.79,3.79,0,0,1-.14,1,3.36,3.36,0,0,1-.84,1.53,2.72,2.72,0,0,1-.42.34,2.76,2.76,0,0,1-1,.4,3.58,3.58,0,0,1-.58,0h-.31a3.27,3.27,0,0,1-1.84-.82,4,4,0,0,1-1.15-1.74,4.5,4.5,0,0,1-.22-1.48,3.65,3.65,0,0,1,.35-1.59,1.86,1.86,0,0,1,.22-.42A2.77,2.77,0,0,1,3030.19,736.81Z"/><path class="cls-6" d="M2999,742.31a3.07,3.07,0,0,1,1.28.42,4.12,4.12,0,0,1,1.84,2.63,4.4,4.4,0,0,1,.14,1.09,3.91,3.91,0,0,1-.46,1.81,2.91,2.91,0,0,1-1.53,1.39,2.7,2.7,0,0,1-1.21.14H2999a3.42,3.42,0,0,1-2.28-1.33,4.09,4.09,0,0,1-.58-1,5,5,0,0,1-.29-1,4.68,4.68,0,0,1-.06-.76,3.67,3.67,0,0,1,.07-.75,3.77,3.77,0,0,1,.18-.68,3,3,0,0,1,2.46-2A2.8,2.8,0,0,1,2999,742.31Z"/><path class="cls-6" d="M3063.32,781.7c.29,1.58.62,3.15,1,4.87l-2.34,0-2.39,0c-.48,0-1,0-1.46,0q-10-.07-20-.81c-3.37-.24-6.76-.53-10.13-.87s-6.76-.71-10.15-1.12c-3.19-.4-6.38-.88-9.57-1.37s-6.37-1-9.57-1.53l-2.88-.45a2.47,2.47,0,0,1-.41-.09,1.68,1.68,0,0,1-.51-.22,2.42,2.42,0,0,1-.95-1.39c-.37-1-.73-2.06-1.09-3.1-.16-.44-.31-.88-.46-1.31-2.58-7.31-5.12-14.63-7.18-22.09-.36-1.28-.69-2.57-1-3.86-.19-.76-.38-1.52-.55-2.28-.33-1.4-.61-2.8-.85-4.21-.18-1-.33-2-.46-3a42.9,42.9,0,0,1-.23-9,15.62,15.62,0,0,1,.21-1.55c.28-1.55.74-3,1.13-4.55a1,1,0,0,1,.9-.55c2.29.26,4.59.56,6.87.86l3.36.48a3.52,3.52,0,0,1,.52.12,10.6,10.6,0,0,1,1.51.75l2.36,1.27,1.19.62a26.28,26.28,0,0,0,6.14,2.27c.19,0,.38.06.58.09l.25,0a5.57,5.57,0,0,0,1.08,0,4,4,0,0,0,1.66-.45,2.27,2.27,0,0,0,1.07-1.21c.05-.11.07-.24.11-.36a2.47,2.47,0,0,0,.1-.43,7.39,7.39,0,0,0,.06-1.67c.29,0,.58,0,.86-.06.85-.08,1.71-.15,2.57-.2a1.72,1.72,0,0,1,.55.27,10,10,0,0,0,2,1.54,4.87,4.87,0,0,0,5.87-.61,27.88,27.88,0,0,0,2.44-2.19l1.17-1.16,1.2-1.14a7.36,7.36,0,0,1,2-1.36c6.23-2.58,12.49-5.09,18.72-7.69a1.71,1.71,0,0,1,.77-.16,1.48,1.48,0,0,1,1,.67,22.82,22.82,0,0,1,2.35,3.56,29.46,29.46,0,0,1,2.24,5.48c.17.55.33,1.1.47,1.65s.28,1.12.41,1.69c2.65,12,4.49,24,6.12,36.12a3,3,0,0,1,0,.31v.37c-.46.1-.84.15-1.21.24a5.24,5.24,0,0,0-.73.27,3.52,3.52,0,0,0-2,2.73,4.75,4.75,0,0,0,0,.53,4.93,4.93,0,0,0,0,.76c0,.11,0,.22.06.33a5.64,5.64,0,0,0,.29.94,6,6,0,0,0,.6,1.12c.4.6.84,1.18,1.29,1.75a11.38,11.38,0,0,1,2,3.9,12,12,0,0,1,.31,1.47c.13.81.27,1.62.41,2.43Zm-31.75-33.27c5.6.56,10.25-4.32,10.19-10.72s-4.67-12.09-10.23-12.68-10.23,4.36-10.2,10.74,4.68,12.1,10.24,12.66m-30.51,5.31a7.23,7.23,0,0,0,1.15-.12,8.76,8.76,0,0,0,5.2-3,10.56,10.56,0,0,0,1.44-2.16,11.44,11.44,0,0,0,.84-2.3,12.54,12.54,0,0,0,.29-1.53,12.21,12.21,0,0,0,.1-1.61,13.17,13.17,0,0,0-6.83-11.65,6.36,6.36,0,0,0-.59-.28,8.76,8.76,0,0,0-1.57-.52,9.56,9.56,0,0,0-1.19-.21,8.93,8.93,0,0,0-2.07,0,8.64,8.64,0,0,0-4.06,1.66,9.56,9.56,0,0,0-1.12,1,11.37,11.37,0,0,0-3,7.95c0,.52.05,1,.11,1.54a12.06,12.06,0,0,0,.23,1.36,13.33,13.33,0,0,0,5,7.85,10.53,10.53,0,0,0,2.79,1.47,10.3,10.3,0,0,0,2,.46,7.92,7.92,0,0,0,1.19,0m31.31,5.29a6.32,6.32,0,0,0,.32-2.29,4.48,4.48,0,0,0-.29-1.42,5.14,5.14,0,0,0-2.35-2.5l-.28-.16a14.28,14.28,0,0,0-4.6-1.61l-1-.15-1.06-.13-.87-.07c0,.11,0,.21,0,.32s0,.21.05.3a2.78,2.78,0,0,1-.47,1.88,2.74,2.74,0,0,1-.39.45,3.81,3.81,0,0,1-.65.54,6.68,6.68,0,0,1-2.91,1.14l-.22,0a7.85,7.85,0,0,1-1.68,0l-.22,0a8.75,8.75,0,0,1-1.14-.19,4.63,4.63,0,0,1-3-2.06l-.1-.09a.87.87,0,0,0-.45-.16.53.53,0,0,0-.26,0,33,33,0,0,0-4.76,2.65,4.43,4.43,0,0,0-1.61,2.51,3.87,3.87,0,0,0-.1.67,5.44,5.44,0,0,0,0,1.39,5.69,5.69,0,0,0,4.89,4.74,4.3,4.3,0,0,0,2.4-.44c1.05-.52,2-1.19,3.05-1.77l.24-.13.37-.19a9.4,9.4,0,0,1,2-.74,9.14,9.14,0,0,1,2.09-.27,8.21,8.21,0,0,1,1,.05,3.55,3.55,0,0,1,.47.06l1.28.18,1.29.18.9.1.38,0,1.27.06,1,0c.26,0,.52,0,.77-.06a8.48,8.48,0,0,0,2.21-.51,3.8,3.8,0,0,0,2-1.72,4.39,4.39,0,0,0,.29-.62m-15.92-10.67c-2.78.09-4.89,1.6-4.71,3.37.16,1.54,2,2.77,4.33,3a7.18,7.18,0,0,0,1,0c2.78-.1,4.89-1.61,4.71-3.37-.16-1.55-2-2.78-4.33-3a9,9,0,0,0-1,0m0,20.24a1.51,1.51,0,0,0,1.53-1.68v-.1a22.86,22.86,0,0,0-.31-2.79c-.06-.35-.1-.71-.15-1.1l-.88.47c-.45.24-.86.45-1.25.67s-.64.34-.95.53a1.27,1.27,0,0,0-.4.51l0,.13c.12.25.23.52.34.78s.23.52.35.78a5.22,5.22,0,0,0,.88,1.36,1.45,1.45,0,0,0,.87.44m6.65-2.13c0-.54,0-1.09,0-1.64,0-.29,0-.58,0-.87s0-.58,0-.86l-4.41-.44c.05.22.11.43.16.64.16.63.32,1.23.47,1.79s.3,1.11.47,1.65a1.63,1.63,0,0,0,1.44,1.28,2.14,2.14,0,0,0,.36,0,1.66,1.66,0,0,0,1-.41,1.19,1.19,0,0,0,.32-.44,1.72,1.72,0,0,0,.14-.63v-.08"/><path class="cls-6" d="M3025,800.94a1.9,1.9,0,0,1,.71.31c.24.16.48.34.73.52l.26.17-.8.55-.92.62-1.37-1.14-.4-.35a2.93,2.93,0,0,0,.44-.21,5.47,5.47,0,0,1,.89-.42A2.49,2.49,0,0,1,3025,800.94Z"/><path class="cls-6" d="M3034.74,800.58l.18.06a6.74,6.74,0,0,1,1.2.82l-1,.72-.39.28-1.42-1.34a11.33,11.33,0,0,1,1.07-.5A.89.89,0,0,1,3034.74,800.58Z"/><polygon class="cls-2" points="2661.85 196.8 2258.55 157.72 2453.98 6.4 2857.29 45.49 2661.85 196.8"/><polygon class="cls-3" points="2661.86 196.79 2661.86 509.48 2623.15 505.73 2545.61 498.23 2491.31 492.96 2461 490.03 2384.52 482.61 2346.35 478.94 2292.06 473.66 2258.54 470.42 2258.54 157.73 2661.86 196.79"/><polygon class="cls-4" points="2857.29 358.18 2661.85 509.49 2661.85 196.8 2857.29 45.49 2857.29 358.18"/><path class="cls-4" d="M2458.48,23.83V51.51c0,13.16,28.73,23.83,64.17,23.83s64.17-10.67,64.17-23.83V23.83Z"/><path class="cls-3" d="M2586.82,23.83c0,13.17-28.73,23.84-64.17,23.84S2458.48,37,2458.48,23.83,2487.21,0,2522.65,0,2586.82,10.67,2586.82,23.83Z"/><path class="cls-4" d="M2356.91,99.18v27.68c0,13.16,28.73,23.83,64.17,23.83s64.17-10.67,64.17-23.83V99.18Z"/><path class="cls-3" d="M2485.25,99.18c0,13.16-28.73,23.83-64.17,23.83s-64.17-10.67-64.17-23.83,28.73-23.84,64.17-23.84S2485.25,86,2485.25,99.18Z"/><path class="cls-4" d="M2643,39.46V67.14C2643,80.3,2671.69,91,2707.13,91s64.17-10.67,64.17-23.83V39.46Z"/><ellipse class="cls-3" cx="2707.13" cy="39.46" rx="64.17" ry="23.83"/><path class="cls-4" d="M2541.39,114.81v27.68c0,13.16,28.73,23.83,64.17,23.83s64.17-10.67,64.17-23.83V114.81Z"/><ellipse class="cls-3" cx="2605.56" cy="114.81" rx="64.17" ry="23.83"/><path class="cls-6" d="M2401.7,366c1.74.17,2.74,1.7,2.75,3.7l.1,29.42c0,7.13-3,12.55-8.42,15.43a13.21,13.21,0,0,1-8.23,1.76l-1.24-.12c-6.25-.62-11.24-4.55-14.26-11.12a21.32,21.32,0,0,1-2.28-9.65V394c0-7.15,3-12.56,8.43-15.45a13.22,13.22,0,0,1,8.22-1.75l1.25.12a18.34,18.34,0,0,1,10.49,6.18l0-14c0-1.72,1-3.33,2.72-3.16Zm-4.61,37.8a13.94,13.94,0,0,0,1.47-6.42,14.21,14.21,0,0,0-5-11.06,12,12,0,0,0-6.5-2.93c-4.74-.47-8.22,2-10.2,6.7a14.38,14.38,0,0,0-1.23,5.3,14.09,14.09,0,0,0,6.27,12.05,11.51,11.51,0,0,0,5.25,1.94c4.49.45,7.73-1.52,10-5.58"/><g class="cls-8"><polygon class="cls-6" points="2490.28 270.31 2490.34 289.3 2473.76 287.65 2473.7 268.67 2490.28 270.31"/><path class="cls-6" d="M2544.32,285.88l2.13,1.67-1.27,2.31c-4.32,9.54-13.09,11.89-22.18,11-.67-.07-1.34-.15-2-.25-14.75,39.42-46.15,55.28-84.42,51.49-20-2-38.3-12.55-48.57-33v-.49l-1.72-3.57a64.53,64.53,0,0,1-3.92-28.13l.42-2.87,110.13,10.9a30.52,30.52,0,0,0,11.47-.81c1.7-.81,3.83-1.57,5.52-2.37a31.39,31.39,0,0,1-3.86-12.55c-.45-5.88.8-13.55,4.19-17.59l1.69-2.26,2.13,2.15c5.55,5.41,9.82,12.16,10.7,20a24.79,24.79,0,0,1,7.48-.37A22.9,22.9,0,0,1,2544.32,285.88Zm-129.1,37.82c4.68.47,8.91-3.49,8.89-8.85s-3.85-10.11-9-10.61-8.91,3.49-8.89,8.84,4.28,10.16,9,10.62"/></g><polygon class="cls-6" points="2408.21 262.18 2408.28 281.17 2391.69 279.53 2391.63 260.54 2408.21 262.18"/><polygon class="cls-6" points="2428.62 264.2 2428.68 283.19 2412.1 281.55 2412.04 262.56 2428.62 264.2"/><polygon class="cls-6" points="2428.54 240.35 2428.6 259.34 2412.02 257.69 2411.96 238.71 2428.54 240.35"/><polygon class="cls-6" points="2449.46 266.27 2449.52 285.25 2432.93 283.61 2432.87 264.62 2449.46 266.27"/><polygon class="cls-6" points="2449.38 242.41 2449.44 261.4 2432.85 259.76 2432.79 240.77 2449.38 242.41"/><polygon class="cls-6" points="2469.87 268.29 2469.93 287.27 2453.35 285.63 2453.28 266.64 2469.87 268.29"/><polygon class="cls-6" points="2469.79 244.43 2469.85 263.42 2453.27 261.78 2453.2 242.79 2469.79 244.43"/><polygon class="cls-6" points="2469.71 220.1 2469.77 239.08 2453.18 237.44 2453.12 218.46 2469.71 220.1"/><path class="cls-6" d="M2556.17,394.12a3.51,3.51,0,0,1,3,3.72c0,2.85-2.23,3.2-4.22,3-2.5-.25-5,1.21-6.73,3a12.28,12.28,0,0,0-3.21,8.82l0,16c0,1.71-1,3.33-2.73,3.15l-.5-.05c-1.74-.17-2.75-1.69-2.76-3.69l-.05-16.85c0-6.57,2.7-11.44,7.18-14.71a14.87,14.87,0,0,1,9.47-2.48Z"/><path class="cls-6" d="M2534,400.48l.25.6c1.25,2.4-.24,4.26-2,5.51l-5.22,4.63c-4.48,3.55-8.21,6.89-11.94,10.24a10.15,10.15,0,0,0,3.63,1,12.91,12.91,0,0,0,3.11-.09,12.94,12.94,0,0,1,4.67-1.3l.31.07.5.05a2.83,2.83,0,0,1,1.5,1.87c.76,1.79.51,3.47-1,4.18l-.5.24a12.84,12.84,0,0,1-7.85,1.77,18.61,18.61,0,0,1-8.87-3.71,21.62,21.62,0,0,1-6-7.45l-.25-.6c-3.51-7.2-3-14.58.93-20.75a14.68,14.68,0,0,1,5.22-4.91l.75-.49a13.41,13.41,0,0,1,8-1.71,18.22,18.22,0,0,1,8,3A20.3,20.3,0,0,1,2534,400.48Zm-11.21,5.18a58,58,0,0,0,4.47-4.13,14.39,14.39,0,0,0-4.75-4.18,9.72,9.72,0,0,0-3.68-1.16,10.78,10.78,0,0,0-6,1.33c-4,2.18-5.71,6.3-5.45,11.46a12.33,12.33,0,0,0,1.52,5.86,7.6,7.6,0,0,1,1.26,2.12c4.23-3.86,8.45-7.44,12.68-11.3"/><path class="cls-6" d="M2497.15,420.53l1,1.24a3.59,3.59,0,0,1,.51,1.48v.86a2.47,2.47,0,0,1-2.49,2.32l-.5-.05c-1-.1-2-1.34-2.75-2.27-1.25-1.55-2.76-3.13-4-5l-4.51-5.31,0,8c0,1.71-1,3.33-2.73,3.16l-.49-.05c-1.75-.17-2.76-1.7-2.76-3.7l-.15-44c0-1.72,1-3,2.74-2.87l.49,0a3.19,3.19,0,0,1,2.75,3.42l.07,20.28,6.71-7.05c.75-.49,3-3.42,4-3.32l1,.1a3.09,3.09,0,0,1,2.26,3.09v.56c0,1.15-1.24,2.17-1.74,3-1.24,1.6-2.73,2.87-4,4.46l-7,7.31,9,11.17Z"/><path class="cls-6" d="M2472.11,389.21l.24.31a4.91,4.91,0,0,1,.51,1.77v.57a2.41,2.41,0,0,1-2.5,2.61l-.24,0a29.46,29.46,0,0,1-4.25-2.41c-.75-.65-2.5-.83-3.5-.93l-.59-.07c-4.44-.44-7.71,2.32-9.61,6.77a12.54,12.54,0,0,0-1,5.33,14.1,14.1,0,0,0,7,12.7,13,13,0,0,0,5.49,1.67c1.5.15,3.74-.76,5-1.21l1.24.12a3.07,3.07,0,0,1,2.26,3.08v.57c0,4-6.47,4.21-8.72,4.28-.4,0-.8,0-1.2-.08-7.89-.78-13.9-6.71-16.31-15.65a16.83,16.83,0,0,1-.51-4.9v-1.43c0-7.14,2.94-12.56,8.42-15.44a13.17,13.17,0,0,1,8.22-1.75l1.25.12a14.74,14.74,0,0,1,8.5,3.7Z"/><path class="cls-6" d="M2424.69,380.81c6.73.66,11.74,4.87,15,11.76a20.86,20.86,0,0,1,2,8.77v1.43c0,7.13-2.95,12.56-8.42,15.43a13.14,13.14,0,0,1-8.23,1.76l-1.24-.12c-6.25-.62-11.24-4.55-14.26-11.12a21.32,21.32,0,0,1-2.28-9.65v-1.42c0-7.15,2.95-12.56,8.43-15.45a16.16,16.16,0,0,1,8.22-1.47Zm10.06,26.69a13.7,13.7,0,0,0,1.48-6.42,15,15,0,0,0-5.28-11.37,10.41,10.41,0,0,0-6-2.59c-4.74-.47-8.22,2-10.2,6.69a8.59,8.59,0,0,0-1.23,5.31,15,15,0,0,0,5.78,11.71,11.48,11.48,0,0,0,5.74,2.28c4.24.42,7.47-1.83,9.7-5.61"/><path class="cls-6" d="M3362.59,861.41l.34,0a5.49,5.49,0,0,1,4.62,5.63c0,2.79-2,5.08-4.59,4.82a7,7,0,0,0-5.21,1.37,12.38,12.38,0,0,0-4,4.38,29.37,29.37,0,0,0-3.54,8l.06,18.92c0,2.88-2.15,5.06-4.76,4.8s-4.62-2.85-4.63-5.73l-.14-39.23c0-2.89,2.08-5,4.6-4.72a5.66,5.66,0,0,1,4.8,5.65v.69a10.31,10.31,0,0,1,1.82-1.8A16.16,16.16,0,0,1,3362.59,861.41Z"/><path class="cls-6" d="M3386.2,863.66c11.31,1.12,20.3,11.66,21,25.16v.5a3,3,0,0,1-.09.89,3.86,3.86,0,0,1-4.51,3.54L3375,891a15.42,15.42,0,0,0,3,6.86,14.59,14.59,0,0,0,8.37,5.3,11.54,11.54,0,0,0,1.22.18c2.83.28,5.92-.3,7.81-1.77a4.48,4.48,0,0,1,6.52.35c1.14,1.51,2,4.58,0,6.47-4.24,4.06-9.37,5.64-15.54,5-11.91-1.28-21.17-13.44-21.3-27C3365.11,872.91,3374.29,862.48,3386.2,863.66Zm-11.67,18.84,24.61,2.44c-.88-4.07-5.34-10.38-12.91-11.82a11.19,11.19,0,0,0-11.7,9.38"/><path class="cls-6" d="M3446.7,849.74c2.61.26,4.71,3,4.72,5.84l.13,39.42.07,19.52c0,2.88-2.07,5.17-4.68,4.91a5.58,5.58,0,0,1-4.63-4.74,17.85,17.85,0,0,1-11.81,3.11c-11.74-1.16-21.17-13.44-21.21-26.88-.05-13.64,9.31-24.06,21-22.89a20.93,20.93,0,0,1,11.67,5.32l-.07-18.71C3441.92,851.76,3444,849.48,3446.7,849.74Zm-8.08,53.93a13.66,13.66,0,0,0,3.45-9.5,16.76,16.76,0,0,0-3.51-10.41,11.83,11.83,0,0,0-8.19-4.88,9.58,9.58,0,0,0-8.16,3.26,13.94,13.94,0,0,0-3.45,9.72,16.54,16.54,0,0,0,3.52,10.19,12,12,0,0,0,8.19,4.9,9.42,9.42,0,0,0,8.15-3.28"/><path class="cls-6" d="M3463.25,851.38c2.69.27,4.71,2.85,4.72,5.84v2.09c0,3-2,5.28-4.68,5s-4.7-3-4.71-5.94v-2.09C3458.56,853.3,3460.64,851.12,3463.25,851.38Z"/><path class="cls-6" d="M3463.32,871.39c2.69.27,4.7,2.75,4.72,5.94l.13,38.82c0,3-2,5.18-4.69,4.92s-4.7-2.86-4.71-5.85l-.13-38.82C3458.63,873.21,3460.71,871.13,3463.32,871.39Z"/><path class="cls-6" d="M3489.9,873.92c6,.59,10.27,4.3,13.07,6.77a6.3,6.3,0,0,1,1.41,7.5,4,4,0,0,1-3.81,1.95,4.7,4.7,0,0,1-2.62-1.2c-2.79-2.36-5.23-4.19-8-4.47a7.46,7.46,0,0,0-5.21,1.28,2.74,2.74,0,0,0-1.39,2.15,1.35,1.35,0,0,0,.18.81,2.94,2.94,0,0,0,1,1.09,18.13,18.13,0,0,0,6.36,3,34.53,34.53,0,0,1,8.27,3.81,16.36,16.36,0,0,1,6.19,6.48,15.26,15.26,0,0,1,1.68,6.73,13.41,13.41,0,0,1-5.44,11,16.66,16.66,0,0,1-11.29,2.86c-6.79-.77-12-4.87-15.51-8.4a6,6,0,0,1-.63-7.43,3.81,3.81,0,0,1,3.58-1.67,4.62,4.62,0,0,1,2.94,1.52c2.22,2.37,6,5,9.37,5.31l.21,0a9.72,9.72,0,0,0,5.9-1.31,3.76,3.76,0,0,0,1.56-2.83,1.79,1.79,0,0,0-.26-1,3.3,3.3,0,0,0-1.14-1.31,20.82,20.82,0,0,0-7-3.47,33,33,0,0,1-7.66-3.35,17.68,17.68,0,0,1-6-6.36,14.52,14.52,0,0,1-1.5-6.43,13,13,0,0,1,5.1-10.44A15.7,15.7,0,0,1,3489.9,873.92Z"/><path class="cls-6" d="M3483.3,750s0,12,0,13.23-1.38,2.64-4.52,4.21c-6.18,3.08-38.19,15-45,18.39-3.66,1.83-6.45,2.55-9.08,2.29a15.63,15.63,0,0,1-6.93-2.8c-5.4-3.47-39.56-22.63-45.72-26.6-3.07-2-4.7-3.56-4.7-4.89l0-13.42c-.05-1.35,1.43-2.46,4.44-3.52,6-2.1,39.9-14,47.06-16.22,3.77-1.17,6.25-1.69,8.64-1.45a19.6,19.6,0,0,1,7.12,2.53c6.11,3.15,38,20.83,44.06,23.95C3481.79,747.29,3483.35,748.64,3483.3,750ZM3450,754.3l15.86-5.62-15.93-8.76-17.57,6.22,15.91,8.76,1.73-.6m-33.45-29.15,2.62,5.73-8.65,2.73,11.61,2.33,3.65,7.28,2.23-6,10-.19-7.8-4.11,2.05-5.47-7.63,2.11-8.12-4.43m-31.72,16.44c0,3.52,6.45,7,14.39,7.8s14.35-1.44,14.34-4.95-6.45-7-14.38-7.8-14.36,1.43-14.35,5m40.43,24.24,8.07-12.83-26.85,2.07,18.78,10.76"/><path class="cls-6" d="M3478.34,769.51a3.42,3.42,0,0,0,.42.22c3.11,1.61,4.67,3,4.62,4.3,0,0,0,12,0,13.23s-1.38,2.64-4.52,4.21c-6.18,3.08-38.18,15-45,18.39-3.66,1.83-6.45,2.55-9.08,2.29a15.63,15.63,0,0,1-6.93-2.8c-5.4-3.47-39.56-22.63-45.72-26.6-3.07-2-4.7-3.56-4.7-4.9l0-13.41c-.05-1.35,1.43-2.46,4.44-3.52l.54-.18c3.77,2.35,13.83,8.12,23.58,13.7S3415,785.29,3417.54,787a16.27,16.27,0,0,0,7.22,2.89c2.71.27,5.6-.45,9.4-2.34,3.47-1.73,13.6-5.72,23.41-9.58C3466.37,774.47,3474.72,771.19,3478.34,769.51Z"/><path class="cls-6" d="M3479.93,792.82c2.38,1.35,3.57,2.52,3.52,3.7,0,0,.05,12,.06,13.23s-1.38,2.64-4.53,4.21c-6.17,3.08-38.17,15-45,18.39-3.65,1.83-6.44,2.55-9.08,2.29a15.59,15.59,0,0,1-6.92-2.8c-5.4-3.47-39.56-22.63-45.72-26.6-3.08-2-4.7-3.56-4.7-4.9l-.05-13.42c0-1.19,1.11-2.19,3.45-3.14.29.21.6.42.94.64,3.19,2.05,13.85,8.16,24.17,14.07,9.75,5.58,19,10.85,21.55,12.53a16.19,16.19,0,0,0,7.21,2.89c2.71.27,5.61-.45,9.4-2.34,3.47-1.73,13.6-5.72,23.41-9.58,9.54-3.75,18.54-7.3,21.58-8.81Z"/><polygon class="cls-2" points="3230.59 325.16 2827.28 286.07 3022.71 134.76 3426.02 173.85 3230.59 325.16"/><polygon class="cls-3" points="3230.59 325.17 3230.59 637.86 3108.84 626.07 3055.79 620.91 3006.96 616.18 2957.71 611.42 2927.47 608.49 2880.05 603.88 2842.94 600.28 2827.28 598.76 2827.28 286.07 3230.59 325.17"/><polygon class="cls-4" points="3426.02 486.54 3230.59 637.85 3230.59 325.16 3426.02 173.85 3426.02 486.54"/><path class="cls-4" d="M3027.21,152.19v27.68c0,13.16,28.73,23.83,64.17,23.83s64.17-10.67,64.17-23.83V152.19Z"/><ellipse class="cls-3" cx="3091.38" cy="152.19" rx="64.17" ry="23.83"/><path class="cls-4" d="M2925.64,227.54v27.68c0,13.16,28.73,23.83,64.17,23.83S3054,268.38,3054,255.22V227.54Z"/><path class="cls-3" d="M3054,227.54c0,13.16-28.73,23.83-64.17,23.83s-64.17-10.67-64.17-23.83,28.73-23.84,64.17-23.84S3054,214.38,3054,227.54Z"/><path class="cls-4" d="M3211.69,167.82V195.5c0,13.16,28.73,23.83,64.17,23.83S3340,208.66,3340,195.5V167.82Z"/><ellipse class="cls-3" cx="3275.86" cy="167.82" rx="64.17" ry="23.83"/><path class="cls-4" d="M3110.12,243.17v27.68c0,13.16,28.73,23.83,64.17,23.83s64.17-10.67,64.17-23.83V243.17Z"/><ellipse class="cls-3" cx="3174.29" cy="243.17" rx="64.17" ry="23.83"/><path class="cls-6" d="M3023.92,361.61c33.73,3.35,61.18,37.35,61.31,75.95s-27.11,67.2-60.83,63.86-61.18-37.34-61.31-75.95S2990.2,358.27,3023.92,361.61Zm28.8,93.8a39.44,39.44,0,0,0,9.16-16.66l-13.09,1.62c-.14,0-2.78.5-6.81,1a27,27,0,0,0,5.59-16.9c0-9.71-2.11-15.06-5.56-22.18-2.12-4.42-5.24-13.47-2.57-20.2-6.09,4.95-7.7,20.86-8,31.85-1.08-5.41-.93-13.76-2.34-18.87-3.73-13.6-7.9-19.35-4.62-25.25-3.71-.1-7.38,7-7.36,13.42,0,6.21-1.41,16.19-4.89,21.38-.29-12-3.84-20-7.14-20.63,3.43,10.23-5.92,21.55-5.87,35.56a32.39,32.39,0,0,0,5.89,18.12c-3.81-1.17-6.29-2.07-6.42-2.12-4.9-1.75-11.74-4.16-12.19-4.2,1.34,4.49,2.74,8.89,8.64,17.64.19.27.39.53.57.81l57,5.64m.27,18.06,0-11.91-57.4-5.68,0,11.91,57.4,5.68m-28.62,19c9.6.95,17.35-5.62,17.32-14.66l-34.76-3.45c0,9.05,7.84,17.16,17.44,18.11"/><path class="cls-6" d="M2945.44,520.86a12.23,12.23,0,0,1,.62,3.91,10.63,10.63,0,0,1-.64,3.8,7.34,7.34,0,0,1-1.87,2.82,7.58,7.58,0,0,1-3.08,1.67,11.67,11.67,0,0,1-4.22.29l-4.22-.42,0,11.29-3.55-.35-.1-30.2,7.78.77a13.6,13.6,0,0,1,4.35,1.09,9.3,9.3,0,0,1,3.08,2.2A8.74,8.74,0,0,1,2945.44,520.86Zm-3.36,6.06a7.29,7.29,0,0,0,.4-2.5,6.24,6.24,0,0,0-6.28-6.75l-4.23-.42,0,12.43,4.23.42a7.09,7.09,0,0,0,2.7-.2,4.66,4.66,0,0,0,2-1.1,4.71,4.71,0,0,0,1.18-1.88"/><path class="cls-6" d="M2958.82,525.15a4.42,4.42,0,0,1,1.41.35,5,5,0,0,1,1.16.67l-.42,2.76c-.08.33-.27.49-.57.46a2.49,2.49,0,0,1-.79-.27,4.29,4.29,0,0,0-1.49-.35,3.6,3.6,0,0,0-2.86.85,7.68,7.68,0,0,0-1.91,3.12l.05,13.6-3.29-.33-.07-21.35,1.88.19a1.09,1.09,0,0,1,.74.3,1.74,1.74,0,0,1,.28.83l.23,3.35a8.45,8.45,0,0,1,2.36-3.25A4.38,4.38,0,0,1,2958.82,525.15Z"/><path class="cls-6" d="M2980.71,533.81a16.73,16.73,0,0,1,.63,4.61,15,15,0,0,1-.6,4.49,9,9,0,0,1-1.76,3.28,6.61,6.61,0,0,1-2.79,1.92,8.19,8.19,0,0,1-3.69.41,9.22,9.22,0,0,1-3.69-1.14,9,9,0,0,1-2.81-2.47,11.58,11.58,0,0,1-1.8-3.64,15.85,15.85,0,0,1-.64-4.61,14.73,14.73,0,0,1,.6-4.48,9.1,9.1,0,0,1,1.78-3.29,6.85,6.85,0,0,1,2.81-1.93,8,8,0,0,1,3.68-.42,9.33,9.33,0,0,1,3.7,1.15,9.1,9.1,0,0,1,2.8,2.48A11.77,11.77,0,0,1,2980.71,533.81Zm-4.1,10.07a10.17,10.17,0,0,0,1.35-5.77,11.79,11.79,0,0,0-1.39-6.08,5.12,5.12,0,0,0-4.13-2.53,4.75,4.75,0,0,0-2.43.3,4.14,4.14,0,0,0-1.71,1.41,6.83,6.83,0,0,0-1,2.44,15.39,15.39,0,0,0-.33,3.37,16.17,16.17,0,0,0,.36,3.42,8,8,0,0,0,1,2.62,5.5,5.5,0,0,0,1.72,1.74,5.42,5.42,0,0,0,2.43.79,4.1,4.1,0,0,0,4.12-1.71"/><path class="cls-6" d="M3004.4,529.71a6.69,6.69,0,0,1,2.63.79,6.33,6.33,0,0,1,2,1.76,8.42,8.42,0,0,1,1.23,2.67,13.73,13.73,0,0,1,.44,3.48l0,13.6-3.27-.32,0-13.6a6.81,6.81,0,0,0-1-3.9,3.66,3.66,0,0,0-2.79-1.57,3.55,3.55,0,0,0-1.53.18,3.26,3.26,0,0,0-1.28.83,4.12,4.12,0,0,0-.87,1.5,6.85,6.85,0,0,0-.31,2.19l0,13.6-3.28-.33-.05-13.6a7,7,0,0,0-.92-3.91,3.37,3.37,0,0,0-2.63-1.53,3.44,3.44,0,0,0-2.25.53,6.47,6.47,0,0,0-1.9,1.84l0,15.91-3.27-.32-.08-21.35,2,.19a1,1,0,0,1,.88.87l.25,2.21a8.78,8.78,0,0,1,2.3-2.15,5,5,0,0,1,6,.87,7.93,7.93,0,0,1,1.69,3.41,6.49,6.49,0,0,1,1-1.9,5.18,5.18,0,0,1,1.42-1.24,5,5,0,0,1,1.68-.64A6.46,6.46,0,0,1,3004.4,529.71Z"/><path class="cls-6" d="M3030.56,543a.58.58,0,0,1-.62.23L3017.53,542a13.93,13.93,0,0,0,.49,3.57,8.82,8.82,0,0,0,1.22,2.62,5.74,5.74,0,0,0,1.85,1.67,6.55,6.55,0,0,0,4.52.62,8.33,8.33,0,0,0,1.54-.55,10.82,10.82,0,0,0,1.07-.6,1.21,1.21,0,0,1,.74-.26.82.82,0,0,1,.63.43l.93,1.46a5.71,5.71,0,0,1-1.45,1.32,7.63,7.63,0,0,1-1.81.84,10.14,10.14,0,0,1-2,.41,10.69,10.69,0,0,1-2,0,9.08,9.08,0,0,1-3.57-1.1,9.32,9.32,0,0,1-2.82-2.47,11.75,11.75,0,0,1-1.86-3.75,17.59,17.59,0,0,1-.68-5,13.54,13.54,0,0,1,.58-4.12,9.23,9.23,0,0,1,1.71-3.18,7,7,0,0,1,2.74-2,7.59,7.59,0,0,1,3.64-.44,8,8,0,0,1,3.1.94,8.18,8.18,0,0,1,2.45,2.1,10,10,0,0,1,1.62,3.15,13.88,13.88,0,0,1,.6,4.12A2.62,2.62,0,0,1,3030.56,543Zm-12.92-3.32,10.13,1a8.48,8.48,0,0,0-.32-2.42,6.27,6.27,0,0,0-.92-2,4.87,4.87,0,0,0-1.49-1.37,4.76,4.76,0,0,0-2-.63,4.28,4.28,0,0,0-3.73,1.2,7.14,7.14,0,0,0-1.67,4.19"/><path class="cls-6" d="M3039.19,526.56l0,7.35,5.35.53v2.72l-5.35-.53.05,12.81a3.2,3.2,0,0,0,.58,2.06,2.09,2.09,0,0,0,1.47.8,2.16,2.16,0,0,0,.9-.07,3.26,3.26,0,0,0,.65-.28l.47-.3a.51.51,0,0,1,.34-.12c.17,0,.32.14.46.4l1,1.88a5.27,5.27,0,0,1-2,1.23,6.19,6.19,0,0,1-2.47.27,4.67,4.67,0,0,1-3.39-1.75,6.71,6.71,0,0,1-1.21-4.19l0-13.06-2.25-.23a.69.69,0,0,1-.49-.25.87.87,0,0,1-.21-.64v-1.5l3.05-.13.73-6.53a.77.77,0,0,1,.24-.49.62.62,0,0,1,.51-.14Z"/><path class="cls-6" d="M3051.85,525.05l0,12.56a9.14,9.14,0,0,1,2.64-2.07,6,6,0,0,1,3.35-.53,6.18,6.18,0,0,1,4.66,2.67,9,9,0,0,1,1.19,2.68,13.13,13.13,0,0,1,.42,3.35l0,13.6-3.28-.33,0-13.6a6.83,6.83,0,0,0-1-3.85,3.83,3.83,0,0,0-3-1.63,4.54,4.54,0,0,0-2.71.54,7.83,7.83,0,0,0-2.32,1.93l0,15.72-3.27-.32-.11-31Z"/><path class="cls-6" d="M3084.05,548.32a.58.58,0,0,1-.62.23L3071,547.32a14.38,14.38,0,0,0,.49,3.57,8.71,8.71,0,0,0,1.23,2.62,5.64,5.64,0,0,0,1.85,1.67,6.67,6.67,0,0,0,4.51.62,9.37,9.37,0,0,0,1.54-.55,11.78,11.78,0,0,0,1.07-.6,1.23,1.23,0,0,1,.75-.26.77.77,0,0,1,.62.43l.93,1.45a5.74,5.74,0,0,1-1.45,1.33,7.85,7.85,0,0,1-1.81.84,11,11,0,0,1-2,.41,10.8,10.8,0,0,1-2.05,0,9,9,0,0,1-6.39-3.58,11.8,11.8,0,0,1-1.86-3.74,17.24,17.24,0,0,1-.68-5,13.86,13.86,0,0,1,.59-4.12,9.19,9.19,0,0,1,1.7-3.19,7,7,0,0,1,2.74-2,7.71,7.71,0,0,1,3.64-.45,8,8,0,0,1,5.55,3,10,10,0,0,1,1.63,3.16,13.84,13.84,0,0,1,.59,4.12A2.51,2.51,0,0,1,3084.05,548.32ZM3071.13,545l10.14,1a9.39,9.39,0,0,0-.32-2.43,6.13,6.13,0,0,0-.93-2,4.7,4.7,0,0,0-3.48-2,4.26,4.26,0,0,0-3.74,1.2,7.11,7.11,0,0,0-1.67,4.18"/><path class="cls-6" d="M3103.44,539.85l.07,21.35-2-.19a1,1,0,0,1-.88-.87l-.27-2.32a9.1,9.1,0,0,1-2.72,2.2,6,6,0,0,1-3.45.6,6.5,6.5,0,0,1-2.7-.85,6.25,6.25,0,0,1-2-1.83,8.43,8.43,0,0,1-1.2-2.66,13.64,13.64,0,0,1-.4-3.36l0-13.6,3.28.32,0,13.61a6.73,6.73,0,0,0,1,3.84,3.82,3.82,0,0,0,3,1.63,4.77,4.77,0,0,0,2.7-.52,7.47,7.47,0,0,0,2.33-1.94l-.06-15.73Z"/><path class="cls-6" d="M3114.41,540.6a8.49,8.49,0,0,1,3.31,1,9.06,9.06,0,0,1,2.54,2.06l-.74,1.3a.64.64,0,0,1-.68.4,1.36,1.36,0,0,1-.62-.29,9.51,9.51,0,0,0-.86-.6,7.47,7.47,0,0,0-1.21-.66,5.86,5.86,0,0,0-1.66-.4,4.42,4.42,0,0,0-1.48.09,2.86,2.86,0,0,0-1.13.56,2.35,2.35,0,0,0-.72.91,2.71,2.71,0,0,0-.24,1.18,2.42,2.42,0,0,0,.41,1.41,4.29,4.29,0,0,0,1.1,1.06,10.82,10.82,0,0,0,1.56.86l1.77.83c.61.29,1.2.6,1.78.94a7.68,7.68,0,0,1,1.55,1.21,5.42,5.42,0,0,1,1.1,1.65,5.58,5.58,0,0,1,.42,2.25,7.48,7.48,0,0,1-.45,2.69,5.28,5.28,0,0,1-1.35,2,5.59,5.59,0,0,1-2.21,1.22,7.5,7.5,0,0,1-3,.23,8.83,8.83,0,0,1-3.53-1.07,10.09,10.09,0,0,1-2.7-2.14l.77-1.35a1,1,0,0,1,.35-.39.8.8,0,0,1,.53-.09,1.21,1.21,0,0,1,.7.36q.38.33.9.75a7.74,7.74,0,0,0,1.27.77,5.72,5.72,0,0,0,1.87.49,4.24,4.24,0,0,0,1.67-.13,3.13,3.13,0,0,0,1.2-.64,2.73,2.73,0,0,0,.7-1.05,3.65,3.65,0,0,0,.23-1.33,2.65,2.65,0,0,0-.42-1.51,4.23,4.23,0,0,0-1.1-1.09,9.61,9.61,0,0,0-1.56-.87c-.58-.27-1.18-.54-1.78-.83s-1.21-.6-1.79-.94a7.54,7.54,0,0,1-1.56-1.24,5.63,5.63,0,0,1-1.1-1.72,6.27,6.27,0,0,1-.43-2.37,6.08,6.08,0,0,1,.44-2.3,5,5,0,0,1,1.28-1.86,5.64,5.64,0,0,1,2.07-1.15A7.12,7.12,0,0,1,3114.41,540.6Z"/><ellipse class="cls-1" cx="2001.62" cy="885.04" rx="237.95" ry="52.77"/><g id="Hand_R" data-name="Hand R"><path class="cls-9" d="M2270.48,523.72s20.79.75,38.84-6.83,42.74-14.48,38.65-40.81c-2.51-16.18-41.42-7.86-41.42-7.86s-28.49,10.51-47.41,9.44"/><path class="cls-7" d="M2270.48,526.44c15.93.5,31-3.52,45.65-9.42,13.1-5.28,28.67-11.46,33.56-26.07,2-5.9,2.72-14.76-1-20.17-3.05-4.44-8.73-6.12-13.78-6.85a75.39,75.39,0,0,0-29,1.66c-15.5,4.16-30.35,10.07-46.76,9.36-3.48-.15-3.48,5.27,0,5.42,14.89.64,30.1-3.51,44.12-8.16a71,71,0,0,1,18.41-3.26c5.44-.33,11.22-.41,16.5,1.18,6.67,2,7.9,6.62,7.48,13.28-1,15.5-16.32,22.43-28.87,27.54-14.92,6.07-30,10.58-46.3,10.06-3.49-.11-3.49,5.31,0,5.43Z"/></g><g id="Ear_R" data-name="Ear R"><path class="cls-3" d="M2082.39,172.18s.45-47.44,25.76-47,14.91,55.12,14.91,55.12"/><path class="cls-7" d="M2085.1,172.18c.16-13,2.34-31.38,12.69-40.47,6.69-5.88,16.52-4.87,20.76,3.14s4.15,17.88,3.82,26.53a123.75,123.75,0,0,1-1.93,18.21c-.64,3.41,4.58,4.87,5.23,1.44,2.84-15.1,5-34.87-2.44-48.92-4.59-8.6-14.36-11.84-23.35-8-9.59,4.05-14.27,14.73-16.83,24.16a96.8,96.8,0,0,0-3.37,24c0,3.48,5.38,3.49,5.42,0Z"/></g><g id="Feet_R" data-name="Feet R"><path class="cls-9" d="M2093.59,829.71s35.7,61.67,54.89,49.58-24.75-64.12-24.75-64.12"/><path class="cls-7" d="M2091.25,831.08a239,239,0,0,0,14.48,21.86c7.57,10.26,16.35,21.93,27.9,28,8.58,4.49,20.06,2.86,22.11-8.12,2.2-11.74-6-24.92-11.87-34.39a216.22,216.22,0,0,0-18.22-25.14c-2.25-2.68-6.07,1.18-3.84,3.83a207.9,207.9,0,0,1,12.93,17.22c6.43,9.45,13.8,20.38,15.61,31.91,1.6,10.12-6.06,14.42-14.65,9.65-10.49-5.84-18.6-16.56-25.58-26a240.8,240.8,0,0,1-14.19-21.48c-1.75-3-6.43-.29-4.68,2.74Z"/></g><g id="Tail"><path class="cls-3" d="M1784.2,713c-23.94-2.71-23.94-5.87-36.14-2.71s-45.18,23.5-32.53,33,14,12.65,30.72,9.94,51.51-10.4,51.51-10.4"/><path class="cls-7" d="M1784.2,710.27c-12-1.39-24.38-5.86-36.38-2.73-11.38,3-23.28,10.36-31.47,18.72-3.19,3.27-6.79,7.72-6.33,12.61.54,5.64,6.74,8.77,10.78,11.81,5.15,3.87,10.24,6.27,16.81,6.15,7.56-.14,15.21-2,22.6-3.43,12.79-2.48,25.54-5.18,38.27-8,3.4-.75,2-6-1.45-5.23q-13.11,2.89-26.28,5.59c-6.52,1.34-13,2.65-19.6,3.83-6.25,1.13-13.56,3.08-19.8,1a24.31,24.31,0,0,1-6.45-3.64c-2.61-1.88-6.67-4.12-8.59-6.67-2.62-3.49,1.5-7.82,3.88-10.24,7.37-7.53,18.08-14.24,28.27-17.12,11.57-3.28,24.15,1.36,35.74,2.72,3.46.4,3.43-5,0-5.43Z"/></g><g id="Eye_R" data-name="Eye R"><ellipse class="cls-6" cx="2251.77" cy="309.71" rx="81.87" ry="77.71"/><path class="cls-7" d="M2330.93,309.71c-.29,32.29-22.11,60.37-52.45,70.63-30.72,10.38-66.11,1.72-87.65-22.75a72.71,72.71,0,0,1-7-86.47c17.43-27.54,51.61-41,83.34-35,35.5,6.75,63.39,36.89,63.72,73.58,0,3.49,5.45,3.5,5.42,0-.31-34.29-23.13-64-55.15-75.41-32.89-11.69-71.65-2.35-94.63,24.18-22.29,25.75-25.68,63.63-7.38,92.55,18.67,29.51,54.77,43.79,88.78,37.62,38.16-6.93,68-39.74,68.38-78.94C2336.38,306.22,2331,306.22,2330.93,309.71Z"/><ellipse class="cls-10" cx="2312.56" cy="308.84" rx="21.08" ry="20.49"/><path class="cls-11" d="M2317.67,307.3a6.7,6.7,0,1,1-6.69-6.67A6.68,6.68,0,0,1,2317.67,307.3Z"/></g><g id="Body"><path class="cls-3" d="M1806.54,329.4c1.65-23.5,39.76-104.82,104.82-133.73s90.36-28.92,153.62-34.34,159,50.6,177.1,74.1,30.73,44.81,34.34,76.62,3.62,46.27,9,78.8-1.81,157.23-21.69,204.21c-13.14,31.07-33.4,108-77.49,168-22.58,30.76-51.43,57.09-88.77,70.56-110.24,39.76-175.32,16.91-191.57,16.26-46.8-1.86-56.52-15.31-110.24-79.52C1763.19,731.51,1758,685,1758,652.44c0-39.53,54.21-133.28,56-187.5C1817.23,368.52,1802.08,393.26,1806.54,329.4Z"/><path class="cls-7" d="M1809.25,329.4c.74-9.38,4.69-18.83,8.41-27.35a237.35,237.35,0,0,1,21.58-38.69,217.42,217.42,0,0,1,33.65-39c14-12.67,29.66-22.06,47-29.52,18.7-8.07,37.88-15.23,57.71-20,17-4.09,34.39-6.23,51.81-7.83,18.41-1.69,37.3-4.51,55.8-2.86,17.36,1.54,34.43,6.16,50.82,11.93,30.8,10.85,61.15,26.14,87.31,45.79,10.52,7.9,18.24,16.71,25.72,27.55,11.69,16.92,20.27,35.32,23.7,55.7s4,41.29,6.53,61.83c1.69,13.73,4.42,27.24,5,41.09,1.17,29.91-.83,60.1-3.82,89.86-3,30.34-6.68,62.05-17.11,90.89-4.23,11.72-8.93,23.26-13.1,35-5.93,16.75-12,33.45-18.72,49.89-16.17,39.41-36.39,78.33-65.53,109.8-14.25,15.39-30.67,28.79-49.25,38.63-20.39,10.79-43.44,17.3-65.8,22.63-33.24,7.93-67.59,11.38-101.69,8.43-17.21-1.49-34-5.15-51.25-6.52-11.54-.92-23-3.23-33.2-8.9-11.24-6.25-20.49-15.56-29.15-24.94-14-15.13-27.38-31-40.22-47.15-13.41-16.83-22.7-36.63-28.12-57.4a218.12,218.12,0,0,1-6.55-53c-.12-12.89,3.41-25.29,7.38-37.46,10.78-33.05,25.42-64.71,36.45-97.68,5-14.94,9.48-30.23,11.42-45.91,2.25-18.19,1.65-37.28.73-55.57a225.87,225.87,0,0,0-3.75-31.86c-1.44-7.34-3.15-14.6-3.88-22-1.15-11.76-.62-23.63.18-35.39.24-3.48-5.18-3.46-5.42,0-.84,12.4-1.39,24.93,0,37.31.88,7.68,2.66,15.18,4.1,22.76A225.83,225.83,0,0,1,1811.5,424c.66,18.89,1.34,38.59-2,57.25-6.35,35.06-21.41,68.37-34.24,101.39-5.93,15.25-11.9,30.6-16.13,46.42-3.5,13.08-4.14,25.54-3.37,39,1.08,18.8,4.25,37.58,10.51,55.38,7.47,21.28,19.38,39,33.75,56.22,12.4,14.83,24.6,30,38.22,43.75,8.69,8.76,18.27,16.95,29.67,21.93,11,4.8,22.91,6.42,34.79,7.07,6.74.36,13.23,1.6,19.88,2.73a307.85,307.85,0,0,0,80.83,3.1,367.31,367.31,0,0,0,61.6-11.48c22.19-6.07,44.41-13.28,64.08-25.45C2165.32,798.9,2192,764,2212.27,727c18.72-34.11,32.1-70.61,45.09-107.18,4.23-11.92,9.43-23.59,13.21-35.65,4.44-14.15,7.3-28.8,9.7-43.41a762.31,762.31,0,0,0,9.4-101.51c.36-12.77.5-25.6-.4-38.35-1.16-16.42-4.63-32.65-6.23-49.05-2.05-21-2.52-42.69-8.46-63-5.64-19.29-16.17-36.34-28.21-52.26-6.85-9.06-15.53-16.05-24.75-22.61a327.35,327.35,0,0,0-41.92-24.95c-31.16-15.74-65.95-29.35-101.23-30.7-9.6-.37-19.14.75-28.69,1.54-9.81.82-19.63,1.61-29.42,2.63-17.08,1.77-34,4.34-50.66,8.78-20.91,5.59-41.29,13.57-60.94,22.59-16.2,7.43-30.78,18.07-43.64,30.34A234.09,234.09,0,0,0,1811.4,303c-3.47,8.36-6.85,17.28-7.57,26.38C1803.56,332.88,1809,332.86,1809.25,329.4Z"/></g><path class="cls-9" d="M1860.1,829.1s-19,57.38,9.94,60.54,31.63-52.86,31.63-52.86"/><path class="cls-7" d="M1857.49,828.38a131.31,131.31,0,0,0-5,21.44c-1.61,10.65-2.82,23.56,2.84,33.3,5.46,9.38,17.91,11.82,27.22,6.77,10-5.39,14.77-17.47,17.65-27.78a117.46,117.46,0,0,0,4.17-25.33c.18-3.49-5.25-3.48-5.42,0-.74,14.75-3.81,34.22-14.67,45.05-6.74,6.73-19,7.53-24.27-1.45-5-8.46-3.65-20.31-2.23-29.55a131.89,131.89,0,0,1,4.93-21c1.09-3.32-4.14-4.75-5.23-1.44Z"/><path class="cls-3" d="M1854.34,821.26s4.27,21.46,13.09,27.18c0,0,1.59-15.36,3.1-16s22,16.26,19,18.67S1907,840.48,1907,834.52"/><path class="cls-7" d="M1851.73,822c2,10,5.65,22.64,14.33,28.8,1.85,1.31,3.89-.51,4.08-2.34.38-3.62.81-7.27,1.53-10.84a11.82,11.82,0,0,0,.53-2.38c.09-.31.18-.63.29-.93a4.39,4.39,0,0,1-2.35.84c0,.27,3.44,2.3,3.68,2.49a82.06,82.06,0,0,1,10.11,9c.5.53,2.62,3.88,3.14,4s.86-2,.23-1.08a3.49,3.49,0,0,0-.8,2,2.73,2.73,0,0,0,3.43,2.62c3.83-1.16,7.65-4.94,10.66-7.41,3.69-3,8.67-7,9.11-12.13.3-3.47-5.12-3.45-5.42,0-.28,3.26-6.06,7.14-8.3,8.93q-2.51,2-5.15,3.79c-.56.39-3,1.81-2.34,1.59l3.43,2.61c-.12,1.41-1.19,2.3-.41,1.52a2.81,2.81,0,0,0,.79-1.3,5,5,0,0,0,.06-2.35c-.45-2-2.13-3.8-3.43-5.29a75.91,75.91,0,0,0-13.91-12.2c-3.35-2.32-6.5-3-8,1.64s-1.83,10.06-2.35,15l4.08-2.34c-7.31-5.19-10.15-17.21-11.84-25.56-.69-3.42-5.92-2-5.23,1.44Z"/><g id="Eye_L" data-name="Eye L"><path class="cls-6" d="M2183.07,328.4c0,50.9-44.08,92.17-98.44,92.17s-98.44-41.27-98.44-92.17,44.07-92.17,98.44-92.17S2183.07,277.5,2183.07,328.4Z"/><path class="cls-7" d="M2180.35,328.4c-.29,38.72-27,72-63.24,84.18-37.24,12.49-80.36,2.21-106.53-27.47-25.09-28.47-28.62-70.55-8.15-102.59,21.27-33.29,63-49.17,101.32-41.8,42.28,8.13,76.26,43.7,76.6,87.68,0,3.49,5.45,3.5,5.43,0-.32-40.72-28-75.67-65.94-89-39.2-13.73-85.43-3-113.09,28.43-26.65,30.24-30.82,75-9,109.16,22.4,35.06,65.61,51.73,106.06,44.54,45.23-8,81.61-46.42,82-93.16C2185.8,324.91,2180.38,324.91,2180.35,328.4Z"/><ellipse class="cls-10" cx="2113.3" cy="315.15" rx="31.93" ry="28.92"/><path class="cls-11" d="M2113.3,306.75a8.44,8.44,0,1,1-8.44-8.4A8.42,8.42,0,0,1,2113.3,306.75Z"/></g><path class="cls-3" d="M1886.31,246.27l-35.54-45.18S1833,172.34,1860.71,161s46.68,10.61,48.19,12.72,23.8,35.84,23.8,35.84"/><path class="cls-7" d="M1888.23,244.35,1867.1,217.5l-11.95-15.19c-.8-1-1.69-2-2.41-3.07.8,1.19-.8-1.64-1-2.13-2.82-5.75-4.75-12.67-3.48-19.07,2.16-11,14.06-16.25,24.19-17.4,13.15-1.49,28.37,5.72,35.15,15.89q11.43,17.16,22.79,34.36c1.91,2.9,6.61.19,4.68-2.73-7.44-11.26-14.85-22.55-22.38-33.75A45.1,45.1,0,0,0,1877.79,155c-10.79-.38-23.59,3.54-30.47,12.29-5.12,6.53-5.72,15-3.85,22.85,2.26,9.43,7.44,15.45,13.27,22.86l27.65,35.16c2.16,2.74,6-1.12,3.84-3.84Z"/><path class="cls-7" d="M1881.79,188.74s-.19,16.27,7.14,23.49,14,12.35,17.56,9.64-6.32-22.59-10.54-25S1889,187.84,1881.79,188.74Z"/><path class="cls-7" d="M1879.08,188.74c0,7.94,1.44,17.27,6.42,23.67,3.1,4,18.57,19.64,23.83,10.18,3.34-6-3.77-17.35-6.85-22.14-2.22-3.46-4.91-5.32-7.78-8.1-3.84-3.71-7.24-6.66-12.91-6.32-3.47.21-3.49,5.63,0,5.42,4.66-.28,6.72,2.64,9.84,5.48,1.94,1.77,3.86,2.91,5.4,5.09a51.63,51.63,0,0,1,4.55,8.11c1,2.12,3.42,6.43,3,8.89-.27,1.43-.37,1.11-2.24.36a23.63,23.63,0,0,1-6.12-4.13c-3.67-3.08-7.12-6.22-9-10.74a42.35,42.35,0,0,1-2.72-15.77C1884.52,185.25,1879.1,185.25,1879.08,188.74Z"/><g id="Nose"><path class="cls-12" d="M2285.65,336.28c0,13.16-14.83,23.83-33.13,23.83s-33.13-10.67-33.13-23.83,14.83-23.82,33.13-23.82S2285.65,323.13,2285.65,336.28Z"/><path class="cls-7" d="M2282.94,336.28c-.48,14.74-18,21.12-30.42,21.12-12.06,0-30.42-6.38-30.42-21.12s18.36-21.13,30.42-21.11c12.45,0,29.93,6.36,30.42,21.11.12,3.48,5.54,3.5,5.42,0-.42-12.84-11.35-21.47-22.92-24.77-13.54-3.86-30.07-1.64-40.75,8-8.82,8-10.62,20.57-3.16,30.11,8.61,11,24.39,14.54,37.65,12.7,13.73-1.9,28.68-10.76,29.18-26.06C2288.48,332.79,2283.06,332.8,2282.94,336.28Z"/><path class="cls-6" d="M2228.18,392.47v44.72s-2.49,6.22,15,7.11,19.43,0,19.43,0,9,3,12.45-11.55S2287.47,391,2287.47,391Z"/><path class="cls-7" d="M2225.47,392.47v28.22c0,4.92-.14,9.87,0,14.79,0,.74,0,2.34,0,1.19a8,8,0,0,0,.4,3.75c2.16,4.89,9.19,5.83,13.78,6.33,7,.75,14.68,1.27,21.71.46.5-.06,2.82-.28,1.18-.29-1.46,0-.25.1.15.18a9.67,9.67,0,0,0,3,.06c6.28-.72,9.81-6.53,11.48-12.09,4.34-14.45,8.17-29,12.89-43.37a2.74,2.74,0,0,0-2.62-3.43l-59.29,1.48c-3.48.09-3.49,5.51,0,5.43l59.29-1.49-2.61-3.43c-3.51,10.67-6.88,21.41-9.93,32.22-1.57,5.56-2.25,16.17-8.19,18.87-1.73.78-3.4.36-5.19.41-3,.1-9.15.21-13.16.07s-15.42.55-17.62-3.73c-.19-.38.05.28.13-.94,0-.85,0-1.73,0-2.58V392.47C2230.9,389,2225.47,389,2225.47,392.47Z"/><path class="cls-9" d="M2250.46,353.77s-15.19-7.15-30.85-3.24-34,20.18-32.53,35.85,17.46,26.2,27.1,26.5c3.64.12,12.16,3.32,32.06,3.32,17.8,0,20.78-1.69,31.32-2.11,13.5-.55,23.07-10.85,22.77-29.82s-13.26-28.62-27.11-27.71S2250.46,353.77,2250.46,353.77Z"/><path class="cls-7" d="M2251.82,351.43a49.85,49.85,0,0,0-60.2,14.55c-7.16,9.07-9.54,20.12-4.3,30.74,4.32,8.76,13.36,16.26,23,18.36a177.42,177.42,0,0,0,58,2.51c9.15-1.07,18.28-.54,25.54-7.21,8.18-7.54,10.21-20.09,8.9-30.66-1.4-11.24-8.2-21.19-19.26-24.66-6.42-2-13-.75-19.62-1.27a43.12,43.12,0,0,1-12.65-2.64c-3.24-1.3-4.65,3.94-1.44,5.23,15,6.07,35.71-2.94,44.76,14.51,4.68,9,4.44,22.28-.8,31.05-4.95,8.28-12.64,9-21.36,9.78-17.92,1.64-35.38,2.61-53.2-.79-6.29-1.2-11.77-1.76-17.26-5.61-8.54-6-14.62-16.62-11.06-27.09,3.9-11.47,15.74-20.66,26.95-24.34,9.88-3.25,21.86-2.14,31.32,2.22C2252.23,357.56,2255,352.89,2251.82,351.43Z"/></g><path class="cls-9" d="M1968.58,576.09s-3.52,18.77,0,36.38,14.08,43.41,35.2,38.72,9.39-35.79,9.39-35.79-6.46-25.23-2.94-42.24"/><path class="cls-7" d="M1966,575.37a100.73,100.73,0,0,0,1.54,44.31c3.44,12.5,9.85,27.67,22.68,33,10.91,4.54,24.5.14,27.92-11.74,2.46-8.56.26-17.56-2.16-25.84-3.75-12.81-5.59-28.1-3.09-41.24.65-3.41-4.58-4.87-5.23-1.44-2.47,13-.7,26.64,2,39.47,1.07,5.14,3,10.05,3.7,15.27,1.53,10.91-1.77,22.18-14.86,21.85-13.63-.34-20.91-15.71-24.52-26.84a93.79,93.79,0,0,1-2.73-45.38c.63-3.41-4.6-4.87-5.23-1.44Z"/><path class="cls-3" d="M1955.16,567.87c10.66,15.66,36.55,17.32,36.55,17.32s-4.21-6.48,0-13.1c0,0,3.82,8,11.65,11.59l13.85-15.81"/><path class="cls-7" d="M1952.82,569.24c8.63,12.06,24.51,17.68,38.89,18.66a2.74,2.74,0,0,0,2.35-4.08,10.08,10.08,0,0,1,0-10.36h-4.69A28.8,28.8,0,0,0,2002,586a2.76,2.76,0,0,0,3.28-.42l13.86-15.81c2.29-2.62-1.53-6.47-3.83-3.84l-13.86,15.82,3.28-.43a23.81,23.81,0,0,1-10.66-10.62,2.73,2.73,0,0,0-4.69,0c-2.69,5-3.06,10.85,0,15.84l2.34-4.08c-12.29-.84-26.81-5.63-34.21-16-2-2.81-6.71-.11-4.68,2.74Z"/><path class="cls-2" d="M2225.62,488c-38.36-2.89-79.72,46.52-86.82,88.46-13.38,78.92-37.72,106.25-59.16,133.74-29.18,37.4-28.31,67.47,9,87.55,31.18,16.77,72.47-11.33,79-16.06,28.22-31.13,48-69.28,63.84-107.91,6.75-16.43,12.79-33.14,18.72-49.89,4.17-11.75,8.87-23.29,13.1-35a233.19,233.19,0,0,0,8.55-30.41C2275.89,521,2261.25,490.63,2225.62,488Z"/></g></g></svg>