<svg xmlns="http://www.w3.org/2000/svg" viewBox="0 0 1632.61 1255.86"><defs><style>.cls-1{fill:#57c2e4;}.cls-10,.cls-2,.cls-4,.cls-7{fill:#1d1d1b;}.cls-11,.cls-3{fill:#fff;}.cls-4{opacity:0.8;}.cls-5{fill:#49a4bf;}.cls-6{fill:#36849e;}.cls-7{opacity:0.25;}.cls-8{isolation:isolate;}.cls-9{fill:#f3d4b7;}.cls-10,.cls-11{stroke:#1d1d1b;stroke-miterlimit:10;stroke-width:1.37px;}.cls-12{fill:#9a8d7d;}</style></defs><title>PACE-Bricks_Compact_LightBackground</title><g id="Ebene_2" data-name="Ebene 2"><g id="Ebene_2-2" data-name="Ebene 2"><path class="cls-1" d="M187.94,8.1a8.36,8.36,0,0,0-2.74-5.88h0a8.61,8.61,0,0,0-12,.49L63.78,120.15a8.39,8.39,0,0,0,.49,11.95,8.58,8.58,0,0,0,12-.48L185.69,14.18A8.39,8.39,0,0,0,187.94,8.1Z"/><path class="cls-1" d="M255.44,8.1a8.42,8.42,0,0,0-2.75-5.88,8.6,8.6,0,0,0-12,.49L131.27,120.15a8.41,8.41,0,0,0,.49,11.95,8.58,8.58,0,0,0,12-.48L253.18,14.18A8.36,8.36,0,0,0,255.44,8.1Z"/><path class="cls-2" d="M292.7,91.22H260.34a7.35,7.35,0,0,0-7.2,7.3v90a7.28,7.28,0,1,0,14.55,0v-29h23.12c20.63,0,41.45-10.67,41.45-34.51v-.29C332.26,104.37,316.73,91.22,292.7,91.22Zm-1.45,54.85H267.69V104.81h24.14c16.36,0,25.74,7.42,25.74,20.34v.29C317.57,138,307.24,146.07,291.25,146.07Z"/><path class="cls-2" d="M393.52,96.06c-1.62-3.92-4.57-6-8.53-6h-.58c-4,0-6.83,1.94-8.66,5.93l-41.18,89.36a8.06,8.06,0,0,0-.89,3.72,6.75,6.75,0,0,0,6.76,6.72,7.22,7.22,0,0,0,6.92-4.79l10.18-22.56h53.74l10.17,22.26c1.42,3.23,4,5.09,7.07,5.09a7,7,0,0,0,7.05-7,9.11,9.11,0,0,0-.85-3.49ZM405.37,155H363.44l21-46.27Z"/><path class="cls-2" d="M531.25,169.39a6.72,6.72,0,0,0-4.66,2c-9.12,8.3-17.84,11.84-29.15,11.84-21.18,0-37.78-17.6-37.78-40.07v-.29c0-22.68,16.24-39.78,37.78-39.78,10.74,0,19.42,3.44,28.15,11.13l.17.13a8.23,8.23,0,0,0,4.62,1.56,7.45,7.45,0,0,0,7.35-7.16,7.81,7.81,0,0,0-2.89-5.8c-8.07-6.65-18.81-13.45-37.25-13.45-29.67,0-52.91,23.57-52.91,53.66v.29c0,30.42,22.56,53.37,52.47,53.37,15.39,0,27-4.55,38.73-15.2a6.92,6.92,0,0,0,2.43-5.2A7.22,7.22,0,0,0,531.25,169.39Z"/><path class="cls-2" d="M627.31,181.63h-56.5V149.44h49.24a6.75,6.75,0,0,0,6.77-6.72,6.84,6.84,0,0,0-6.77-6.73H570.81V104.67h55.77a6.73,6.73,0,1,0,0-13.45H563.46a7.35,7.35,0,0,0-7.2,7.3v89.26a7.35,7.35,0,0,0,7.2,7.3h63.85a6.73,6.73,0,1,0,0-13.45Z"/><path class="cls-2" d="M252.85,277H401.16c50.53,0,72.5,33.69,72.5,62.25,0,30.4-17.94,50.9-41.74,56,26.36,4,46.5,28.2,46.5,59.69,0,34.05-23.07,66.28-72.14,66.28H252.85Zm131.09,90.82c7.69,0,14.65-7,14.65-15.75a15,15,0,0,0-14.65-15H326.82v30.76Zm2.2,93.37c10.62,0,17.21-7.32,17.21-16.48,0-8.78-6.59-16.84-17.21-16.84H326.82v33.32Z"/><path class="cls-2" d="M608.78,442.91H582.05v78.37h-74V277H638.44c57.13,0,87.89,38.09,87.89,83.86,0,42.11-24.54,64.45-43.94,74l44.3,86.42H642.47Zm18.31-104.36h-45v42.84h45c12.45,0,24.17-8.05,24.17-21.6C651.26,346.61,639.54,338.55,627.09,338.55Z"/><path class="cls-2" d="M756.35,277h74V521.28h-74Z"/><path class="cls-2" d="M856.69,399.34C856.69,323.9,914.55,273,989.25,273c65.91,0,98.14,37.35,112.78,71l-63.71,29.66c-6.23-19-25.27-35.52-49.07-35.52-33.69,0-57.49,27.1-57.49,61.16s23.8,61.15,57.49,61.15c23.8,0,42.84-16.48,49.07-35.52l63.71,29.3c-14.28,32.59-46.87,71.4-112.78,71.4C914.55,525.67,856.69,474.41,856.69,399.34Z"/><path class="cls-2" d="M1212.62,435.22l-13.55,18.31v67.75h-74V277h74v91.55L1263.15,277h90.45l-92.28,113.52,96.31,130.73h-90.08Z"/><path class="cls-2" d="M1390.59,431.93a113.81,113.81,0,0,0,78.73,31.49c13.91,0,27.09-4.76,27.09-14.28s-10.25-14.28-34.42-18.68c-40.28-7.32-101.8-16.84-101.8-78,0-41.38,34.42-79.1,101.44-79.1,39.91,0,75.8,11.35,103.63,34.06l-39.55,52.36c-21.24-16.11-48.7-24.17-68.11-24.17-18.31,0-22.34,6.59-22.34,12.82,0,9.52,9.89,12.81,35.89,17.21,40.28,7,100,18.67,100,75.07,0,53.83-39.92,84.95-105.47,84.95-52,0-87.51-15.38-113.51-38.81Z"/><rect class="cls-1" x="741.6" y="193.31" width="73.36" height="73.36" transform="translate(-31.65 281.25) rotate(-20.08)"/><path class="cls-3" d="M761.3,207.94a10.31,10.31,0,0,1,2.54,3.9,10.49,10.49,0,1,1-20.28,2.58,11.29,11.29,0,1,0,17.74-6.48Z"/><path class="cls-3" d="M794.78,195.7A10.5,10.5,0,1,1,777,202.18a11.27,11.27,0,0,0,14.86,13.14,11.31,11.31,0,0,0,6.72-14.48A11.14,11.14,0,0,0,794.78,195.7Z"/><path class="cls-3" d="M773.55,241.41a10.49,10.49,0,1,1-17.17,11.11,10.41,10.41,0,0,1-.58-4.62,11.28,11.28,0,1,0,17.75-6.49Z"/><path class="cls-3" d="M807,229.17a10.49,10.49,0,1,1-17.75,6.49A11.29,11.29,0,1,0,807,229.17Z"/><path class="cls-2" d="M1242.89,610.39a1.14,1.14,0,0,0,0-2.28,1.14,1.14,0,0,0,0,2.28Z"/><polygon class="cls-4" points="522.19 1160.83 1469.27 1255.86 1632.61 1127.19 1264.7 1103.34 569 1135.2 522.19 1160.83"/><polygon class="cls-5" points="995.99 833.77 847.32 948.89 743.82 938.85 719.96 936.53 592.56 924.2 540.5 919.15 579.84 888.69 662.87 824.41 689.17 804.05 742.12 809.2 749.46 809.91 868.6 821.44 995.99 833.77"/><polygon class="cls-1" points="847.31 948.89 847.31 1186.77 540.49 1157.05 540.49 919.17 565.99 921.64 607.29 925.65 636.33 928.44 694.51 934.09 717.57 936.32 758.87 940.33 817.86 946.03 847.31 948.89"/><polygon class="cls-6" points="995.98 1071.66 847.31 1186.77 847.31 948.89 995.98 833.78 995.98 1071.66"/><path class="cls-6" d="M692.59,817.31v21.06c0,10,21.86,18.13,48.82,18.13s48.81-8.12,48.81-18.13V817.31Z"/><ellipse class="cls-1" cx="741.41" cy="817.31" rx="48.82" ry="18.13"/><path class="cls-6" d="M615.32,874.63v21c0,10,21.86,18.14,48.82,18.14S713,905.7,713,895.68v-21Z"/><ellipse class="cls-1" cx="664.14" cy="874.63" rx="48.82" ry="18.13"/><path class="cls-6" d="M832.93,829.2v21.06c0,10,21.86,18.13,48.82,18.13s48.82-8.12,48.82-18.13V829.2Z"/><ellipse class="cls-1" cx="881.75" cy="829.2" rx="48.82" ry="18.13"/><path class="cls-6" d="M755.66,886.52v21.05c0,10,21.86,18.14,48.82,18.14s48.82-8.12,48.82-18.14V886.52Z"/><ellipse class="cls-1" cx="804.48" cy="886.52" rx="48.82" ry="18.13"/><path class="cls-7" d="M881.75,811.29l-38.19,29.53a0,0,0,0,1,0,0l0,0-.09,20.9-12.65,9.8a114.15,114.15,0,0,0-22.5-2.85h-.68L768.32,899v20.83l-9.92,7.67L555.08,907.83l24.45-18.92,83-64.28,26.3-20.36,15.19,1.49c8.94-3.89,22.19-6.36,37.05-6.36,23.69,0,43.42,6.27,47.87,14.59l52.42,5c8.83-4.66,23.45-7.75,40.06-7.75Z"/><path class="cls-3" d="M732.16,1122.51a31,31,0,0,0-3.94-2c-2.21-.89-4.47-1.53-6.67-2.44-1.76-.73-2.56-2.26-2.56-4.33s.89-3.68,2.64-4a15.22,15.22,0,0,1,4-.08l.27,0a5.81,5.81,0,0,1,5.56,5.58c0,.57.28.73.57.76a3.12,3.12,0,0,0,.43,0,2,2,0,0,1,.42,0,.35.35,0,0,1,.14,0l.16,0c.44,0,.41-.46.38-.88a7,7,0,0,0-3.56-5.93,12.48,12.48,0,0,0-4.84-1.51,14.26,14.26,0,0,0-4.22.24c-2.85.57-4.14,2.38-4,5.65s.86,5.1,4.08,6.43l.8.31c2.64,1,5.29,1.86,7.9,2.95a4.29,4.29,0,0,1,1.9,1.83c1.42,2.64.28,6.23-2.2,6.92a9.68,9.68,0,0,1-3.59.31,11.91,11.91,0,0,1-3.69-1,6.3,6.3,0,0,1-3.58-5.07c-.08-.48-.1-1-.16-1.5l-2-.19c-.28,3.67,1.35,6.77,4.3,8.15a14.94,14.94,0,0,0,4.87,1.35,15.36,15.36,0,0,0,4.06-.15c4.1-.67,5.27-4.34,4.32-8.67A4.13,4.13,0,0,0,732.16,1122.51Z"/><path class="cls-3" d="M755.91,1131.72c2.38-4.49,2.4-9.37.44-14.46a11.12,11.12,0,0,0-5.22-6,12.19,12.19,0,0,0-4.68-1.4,16.27,16.27,0,0,0-2.42-.05,8.56,8.56,0,0,0-5.59,2.27c-3.44,3.24-4.62,10.18-2.55,15.61a17.34,17.34,0,0,0,2.4,4.27,11.6,11.6,0,0,0,8.18,4.2,11.86,11.86,0,0,0,5.45-.64,1.53,1.53,0,0,1,.72-.14,1.23,1.23,0,0,1,.83.5c.86,1,1.77,1.86,2.72,2.84l1.24-1.44-3.46-3.64a10.7,10.7,0,0,0,1.17-.88A4.76,4.76,0,0,0,755.91,1131.72Zm-4.66,1.84a8,8,0,0,1-4.74.91,10.12,10.12,0,0,1-6.92-3.84c-2.23-2.87-2.76-6.24-2.57-9.74a11,11,0,0,1,2.15-6.51,8,8,0,0,1,1.13-1.12,7.69,7.69,0,0,1,6-1.59h.08a9.5,9.5,0,0,1,7.83,5.45l.15.33a13.08,13.08,0,0,1,.66,1.76,18,18,0,0,1,.69,4.07,15,15,0,0,1-1,6.33A7.44,7.44,0,0,1,751.25,1133.56Z"/><path class="cls-3" d="M642,1103.49c-3.52-.74-7.08-1-10.73-1.47v1.5l.06,17.89c0,1.34,0,1.67.68,1.74a8.6,8.6,0,0,0,.89,0s.1-.05.25-.14c0-2.81,0-5.69,0-8.69l1.17.12.58,0,1.41.15,1.13.12a32.61,32.61,0,0,0,3.27.2c3,0,4.64-2,4.69-5.4C645.4,1106.66,644.11,1103.93,642,1103.49Zm-1.19,9.75c-1.51,0-3-.12-4.54-.27l-1-.11-1.63-.16a.87.87,0,0,1-.48-.6c0-2.68,0-5.36-.05-8.08,1.59.16,3.12.26,4.62.41,1,.1,2,.22,2.92.38,1.93.33,2.88,2,2.93,4.46S642.63,1113.23,640.79,1113.24Z"/><path class="cls-3" d="M691.81,1115.42l-1.4-.14c0,.71-.07,1.33-.1,2a6.08,6.08,0,0,0-4.64-3h-.15a5.31,5.31,0,0,0-4.73,1.42c-2.06,2.17-2,7.58,0,10.22a7,7,0,0,0,4.67,2.26,5.62,5.62,0,0,0,5-1.77c-.06,1.16,0,2.35-.2,3.49-.26,1.86-1.23,2.93-2.86,3a12,12,0,0,1-1.58-.05,18.39,18.39,0,0,1-1.95-.31,3,3,0,0,1-2.16-2.07c-.29-.86-.45-1.19-.86-1.23a3.29,3.29,0,0,0-.94.14,4.44,4.44,0,0,0,1.69,3.46,9.5,9.5,0,0,0,4.14,1.53,7.23,7.23,0,0,0,4.1-.81c1.76-.92,2.09-2.93,2.08-5q0-6.12,0-12.24C691.87,1116,691.83,1115.68,691.81,1115.42Zm-6,11.42h0c-3.18-.31-4.89-2.43-4.9-6.07,0-3.46,1.79-5.36,4.8-5.06s4.75,2.6,4.73,6S688.61,1127.09,685.8,1126.84Z"/><path class="cls-3" d="M774.41,1136.49l-.27,0-6.64-.67c-1.65-.16-3.31-.32-5-.47-.79-.08-1-.4-1-1.35,0-6.87,0-13.73,0-20.6,0-.41,0-.81,0-1.27l-2-.2a5.66,5.66,0,0,0,0,.61q0,11.71.06,23.44c0,.71.24.9.81,1,4.66.42,9.32.87,14,1.32.57,0,1,.07,1-.82S774.83,1136.53,774.41,1136.49Z"/><path class="cls-3" d="M713.89,1124.72c0-4.85-2.25-7.73-6.19-8.21l-.2,0c-3.86-.38-6.23,2-6.32,6.25-.09,4.65,2.31,7.8,6.38,8.37a1.07,1.07,0,0,0,.25,0,5,5,0,0,0,5.76-4.57c-.6.15-1.39.08-1.6.47-1.14,2.09-2.27,2.93-4.12,2.74a7.4,7.4,0,0,1-1.19-.22,5.4,5.4,0,0,1-3.73-5.92Zm-11-2.45c.06-2.82,1.84-4.67,4.37-4.53l.24,0c2.61.26,4.51,2.35,4.83,5.44Z"/><path class="cls-3" d="M669.52,1119.84a10.55,10.55,0,0,0-1.41-.55c-1.53-.46-3.07-.86-4.59-1.35a2,2,0,0,1-1.52-1.85,2,2,0,0,1,1.19-2.23,2.68,2.68,0,0,1,1-.24,15.35,15.35,0,0,1,1.79.05l.49.06c1.85.3,2.66,1.21,3.09,3.39l1.51.15a4.24,4.24,0,0,0-2.26-4.09,9,9,0,0,0-3.15-.93,8.54,8.54,0,0,0-3.47.37c-1.23.39-1.88,1.75-1.79,3.37a3.21,3.21,0,0,0,2.15,3.18c1.78.63,3.59,1.13,5.38,1.68a2.4,2.4,0,0,1,2,2.34,2,2,0,0,1-1.84,2.36,10.76,10.76,0,0,1-2.34,0l-.48-.06c-2.26-.3-3.05-1.11-3.7-3.61l-1.54-.16c.15,1.64.53,3.12,1.85,3.88A10.24,10.24,0,0,0,666,1127a7.9,7.9,0,0,0,4-.66c1.27-.55,1.64-1.89,1.54-3.45A3.47,3.47,0,0,0,669.52,1119.84Z"/><path class="cls-3" d="M652.29,1111l-.14,0c-3.83-.38-6.17,2.06-6.23,6.52-.06,4.63,2.33,7.72,6.29,8.15h.07c4,.4,6.41-2,6.45-6.58S656.45,1111.45,652.29,1111Zm3.59,12.11a3.41,3.41,0,0,1-1.27.8,5.57,5.57,0,0,1-2.46.36,4.94,4.94,0,0,1-3.2-1.74c-1.78-2-2-6.39-.48-8.55a4.3,4.3,0,0,1,4-1.55,5.3,5.3,0,0,1,2.76,1.11,4.5,4.5,0,0,1,.65.66,7.22,7.22,0,0,1,1.3,4.56C657.15,1120.47,656.89,1122.08,655.88,1123.08Z"/><path class="cls-3" d="M678.33,1126.48l-.33,0c-1.18-.2-1.59-.66-1.61-2,0-2.82,0-5.65,0-8.47,0-.56.17-.76.62-.71H677l.76.09,1.21.11c0-.51,0-.88,0-1.36l-2.69-.27c0-1.56,0-3,0-4.44l-1.42-.14c0,.2-.06.3-.07.4v2c0,2,0,2-1.66,1.92a2.52,2.52,0,0,0-.29.06v1.2l2,.32v1.21c0,2.86,0,5.72,0,8.58a2.38,2.38,0,0,0,1.24,2.44,18.67,18.67,0,0,0,2.93.69v-1.48Z"/><path class="cls-3" d="M698.07,1115.86a9,9,0,0,0-2.21,1.62c0-.44-.06-1-.1-1.73l-.47,0-.42,0a5,5,0,0,0-.53,0c0,4.53,0,9,0,13.5l1.48.15c0-1.22,0-2.37,0-3.51a48.76,48.76,0,0,1,.19-5.29c.31-2.35,1.61-3.38,3.64-3.18l.27,0,.33,0,.62,0v-1.77A9.76,9.76,0,0,0,698.07,1115.86Z"/><path class="cls-3" d="M686,1010a1.65,1.65,0,0,0-.85-1.49,5.17,5.17,0,0,0-1.77-.81,6.6,6.6,0,0,0-.85-.15,2.56,2.56,0,0,0-1.74.32,1,1,0,0,0-.39.69,2.41,2.41,0,0,0,.45,1.43,3.86,3.86,0,0,0,2.16,1.75,2.17,2.17,0,0,0,.35.07A2.52,2.52,0,0,0,686,1010Z"/><path class="cls-3" d="M718,1010.16a4.7,4.7,0,0,0-.84,0c-1.26.07-2.48.61-2.38,1.47a3,3,0,0,0,2.4,2,1.61,1.61,0,0,0,.31,0,2.65,2.65,0,0,0,1.74-.91,2.11,2.11,0,0,0,.65-1.46C719.75,1010.64,718.91,1010.26,718,1010.16Z"/><path class="cls-3" d="M740.94,1050.39a2.81,2.81,0,0,0-.24-.59h0a2.82,2.82,0,0,0-2.53-1.62,7.24,7.24,0,0,0-1.78,0,27.73,27.73,0,0,1-6.51.26,7.92,7.92,0,0,1-4.25-1.42,112.88,112.88,0,0,0,12.85-32c1.15-5,3.36-17,.39-23.14l0-.08a9.16,9.16,0,0,0-.57-1c-5.52-8.58-13.61-13.7-23.37-14.79l-.38,0A34.83,34.83,0,0,0,701.63,977c-.73-.23-1.47-.44-2.23-.62a31,31,0,0,0-5.57-1.17l-.53-.06A18.22,18.22,0,0,0,680.83,978a57.37,57.37,0,0,0-10.57-4.21,38.74,38.74,0,0,0-6.89-1.36c-5.39-.53-9.85.44-13.31,2.91-5.78,4.13-8.43,12.26-7.87,24.17.19,4,2.21,16.49,5.39,28.56a108.76,108.76,0,0,0,6.23,18.21c2.36,5,4.79,8.13,7.28,9.33a5.34,5.34,0,0,0,1.89.54c1.72.18,3.83-.5,6-3.31,3.4-4.36,6.75-8.24,8.25-9.95a13.16,13.16,0,0,0,5.93,2.44v0c-.42.53-.76,1-1.05,1.39-1.44,2-1.74,2.36-6.39,3-1.31.18-4.83.66-4.87,3.47a3.33,3.33,0,0,0,.39,1.61c1,2.18,4,3.39,4.35,3.55a19,19,0,0,0,4.81,1.19,11.9,11.9,0,0,0,9.55-3.08c0,10.88.4,21.59,1.55,25,1,2.79,3.29,9.61,10.56,10.33a14.3,14.3,0,0,0,3.54-.11c7.59-1.1,10.87-4.62,12.12-13,.63-4.19,1.67-13.88,2.23-19.8a1.29,1.29,0,0,1,.24-.63.72.72,0,0,1,.41,0,6.57,6.57,0,0,1,1.41.36l.19.05,1.09.22h.06l1,.13a22.09,22.09,0,0,0,9.79-1.16C736.9,1056.68,741.84,1053.59,740.94,1050.39Zm-26.36-70.81.8.09c8.75,1.09,15.68,5.53,20.61,13.18a4.83,4.83,0,0,1,.26.45c3.16,6.85-1,30.52-12.53,50.25l-.37-.56-.15-.23c3.08-5.55,2.45-11.4,1.89-16.59a35.58,35.58,0,0,1,.09-11.28,37.64,37.64,0,0,0,.46-6.56,3.25,3.25,0,0,0,0-.91c-.2-2.39-2.59-9.71-7.43-16.6a39.71,39.71,0,0,0-11.49-11.09A33.88,33.88,0,0,1,714.58,979.58Zm6.67,59.8c-.28-.6-.55-1.25-.8-2s-.72-1.7-1.4-3.15c-2.39-5.11-7.69-16.43-6.35-22.12a5,5,0,0,1,.65-1.59c.75-1.16,2.43-2.26,6.18-1.88a22.8,22.8,0,0,1,3.1.54,38,38,0,0,1-.44,4.85,48.85,48.85,0,0,0-.51,5.68,49.68,49.68,0,0,0,.41,6.53c.14,1.25.27,2.5.35,3.76a22.36,22.36,0,0,1-.56,7.56,15.56,15.56,0,0,1-.59,1.7l0,.08m-51.68-31.55c0,.4,0,1,.08,1.73a80.94,80.94,0,0,1-.27,14.21,21.22,21.22,0,0,0,4.2,15.48c.35.45.71.87,1.08,1.27-1.48,1.67-4.68,5.36-8.08,9.73-1.6,2-2.87,2.39-3.71,2.3a2.57,2.57,0,0,1-.92-.28c-1.71-.82-3.56-3.32-5.43-7.25a104.87,104.87,0,0,1-6-17.46c-3.21-12.21-5.1-24.34-5.26-27.71-.5-10.64,1.72-17.8,6.58-21.27,3.26-2.32,7.4-2.81,11.5-2.4a47.39,47.39,0,0,1,14.54,4.35l0,0c-8.68,9.21-8.33,26.53-8.31,27.2m7.22,30.5a15,15,0,0,1-1-1.19,17.2,17.2,0,0,1-3.37-12.53,84.07,84.07,0,0,0,.28-14.9c0-.21,0-.4,0-.58s0-.35,0-.5a16.1,16.1,0,0,1,6.51-2.84,10.55,10.55,0,0,1,3.06-.18,6.39,6.39,0,0,1,1.68.37c1.91.68,3.07,2.28,3.56,4.88a60.41,60.41,0,0,1,1.15,10.06,28.51,28.51,0,0,1-2.48,12.91c-.36.88-.69,1.71-1,2.57l-.22.67a47.52,47.52,0,0,0-1.41,4.75A11,11,0,0,1,676.79,1038.27Zm13,13a9.54,9.54,0,0,1-9.41,4.62,15.64,15.64,0,0,1-4.08-1,7.19,7.19,0,0,1-1.84-1.05,8.16,8.16,0,0,1,2.05-.48c5.47-.75,6.31-1.58,8.15-4.08.42-.57.9-1.22,1.55-2a1.49,1.49,0,0,0,.32-.61,1.23,1.23,0,0,1,.94-.41,2.62,2.62,0,0,1,.92.4,4.07,4.07,0,0,1,1.58,2.47A2.84,2.84,0,0,1,689.74,1051.31Zm27.6,3a.53.53,0,0,0,0-.13c-.05.76-.17,2.19-.34,4-.56,5.85-1.61,15.65-2.22,19.72-1,7-3.34,9.46-9.79,10.41a11.87,11.87,0,0,1-2.88.09c-4.54-.45-6.44-4-7.76-7.88-.92-2.68-1.44-13.48-1.33-26,0-1.22,0-2.46.06-3.71v-.29a2.71,2.71,0,0,0,0-.29v-.05a2.33,2.33,0,0,0-.06-.53h0a8.47,8.47,0,0,0-.19-1.06,7.82,7.82,0,0,0-3.35-4.88,5.22,5.22,0,0,0-2.09-.78,3.23,3.23,0,0,0-1,.05,42.63,42.63,0,0,1,1.3-4.38l.23-.67c.25-.76.57-1.54.9-2.36a31.74,31.74,0,0,0,2.74-12.38,60.83,60.83,0,0,0-1.22-12.73c-.93-4.94-3.79-7.83-8.12-8.26a13.2,13.2,0,0,0-1.42-.05,13.73,13.73,0,0,0-1.45.11,19.09,19.09,0,0,0-5.83,1.77c-.3.14-.58.28-.83.42.37-5.36,1.82-15.3,7.33-21.14.24-.26.49-.5.74-.74l.54-.48c3.21-2.71,7.25-3.84,12-3.36l.41,0a29.61,29.61,0,0,1,5.11,1.08,28,28,0,0,1,4.05,1.6,35,35,0,0,1,13.18,11.73,45.93,45.93,0,0,1,6.15,12.58,25.39,25.39,0,0,0-2.74-.44c-3.81-.37-6.57.46-8.24,2.51a6.61,6.61,0,0,0-.44.6c-4.21,6.51,2.39,20.59,5.56,27.37.58,1.24,1.08,2.31,1.24,2.76a27.77,27.77,0,0,0,3.34,6.45c.3.46.59.9.81,1.28C720.1,1046.59,717.05,1047.58,717.34,1054.26Zm15.45.16a18.57,18.57,0,0,1-7.44,1l-1.07-.08c-2.36-.23-3.61-.82-3.93-1.15-.19-4.08,1.13-4.37,2.53-4.68l.57-.14a7.86,7.86,0,0,0,.58.56,10.63,10.63,0,0,0,6,2.15,30.82,30.82,0,0,0,6.86-.22A14.9,14.9,0,0,1,732.79,1054.42Z"/><polygon class="cls-5" points="1156.79 978.98 849.98 949.24 998.65 834.13 1305.46 863.87 1156.79 978.98"/><polygon class="cls-1" points="1156.8 978.98 1156.8 1216.86 849.98 1187.11 849.98 949.24 861.89 950.39 890.12 953.13 926.2 956.63 949.2 958.86 986.67 962.49 1023.82 966.09 1064.17 970.01 1156.8 978.98"/><polygon class="cls-6" points="1305.46 1101.74 1156.79 1216.86 1156.79 978.98 1305.46 863.87 1305.46 1101.74"/><polygon class="cls-5" points="1465.93 1008.98 1159.12 979.25 1307.79 864.13 1614.6 893.87 1465.93 1008.98"/><polygon class="cls-1" points="1465.93 1008.99 1465.93 1246.87 1373.31 1237.89 1332.95 1233.97 1295.81 1230.37 1258.34 1226.75 1235.34 1224.52 1199.26 1221.01 1171.03 1218.28 1159.11 1217.12 1159.11 979.24 1465.93 1008.99"/><polygon class="cls-6" points="1614.6 1131.75 1465.93 1246.86 1465.93 1008.98 1614.6 893.87 1614.6 1131.75"/><path class="cls-6" d="M1311.21,877.4v21.05c0,10,21.86,18.13,48.82,18.13s48.82-8.12,48.82-18.13V877.4Z"/><ellipse class="cls-1" cx="1360.03" cy="877.4" rx="48.82" ry="18.13"/><path class="cls-6" d="M1233.94,934.71v21.06c0,10,21.86,18.13,48.82,18.13s48.82-8.12,48.82-18.13V934.71Z"/><path class="cls-1" d="M1331.58,934.71c0,10-21.86,18.13-48.82,18.13s-48.82-8.11-48.82-18.13,21.86-18.13,48.82-18.13S1331.58,924.7,1331.58,934.71Z"/><path class="cls-6" d="M1451.55,889.29v21.05c0,10,21.86,18.13,48.82,18.13s48.82-8.12,48.82-18.13V889.29Z"/><ellipse class="cls-1" cx="1500.37" cy="889.29" rx="48.82" ry="18.13"/><path class="cls-6" d="M1374.28,946.6v21.06c0,10,21.86,18.13,48.82,18.13s48.82-8.12,48.82-18.13V946.6Z"/><ellipse class="cls-1" cx="1423.1" cy="946.6" rx="48.82" ry="18.13"/><path class="cls-3" d="M946,1115.52c0,.24,0,.47,0,.7q0,6.79,0,13.58t0,13.58a13.13,13.13,0,0,1-.46,3.61,8.55,8.55,0,0,1-.44,1.23,7.8,7.8,0,0,1-1.6,2.34,6,6,0,0,1-1.77,1.25,5.73,5.73,0,0,1-1.22.44,9,9,0,0,1-1.44.22,8.78,8.78,0,0,1-1.45,0,9.06,9.06,0,0,1-1.54-.28,10.17,10.17,0,0,1-1.06-.36,7.17,7.17,0,0,1-2.28-1.48,8.63,8.63,0,0,1-1.39-1.77c-.15-.26-.28-.53-.41-.81s-.16-.36-.23-.54a10.41,10.41,0,0,1-.65-2.68c0-.5-.08-1-.12-1.49l.08,0c.66,0,.92,0,1.07.21a1.73,1.73,0,0,1,.22.82c0,.08,0,.15,0,.25a10.28,10.28,0,0,0,.36,1.85,7.1,7.1,0,0,0,1.24,2.42,6.12,6.12,0,0,0,1.16,1.12,6.88,6.88,0,0,0,2.52,1.1,10,10,0,0,0,1.18.19,7.35,7.35,0,0,0,1.82,0l.4-.08a5.49,5.49,0,0,0,2-.92,6.22,6.22,0,0,0,1.54-1.75,6.21,6.21,0,0,0,.62-1.3,9.14,9.14,0,0,0,.5-2.39c0-.29,0-.58,0-.87l-.09-27.29v-.93Z"/><path class="cls-3" d="M1069.52,1159c.86,2.1,1.74,4.21,2.62,6.34l-.33,0-.3,0h-.13a3,3,0,0,1-.43-.08,1,1,0,0,1-.47-.51l-3.87-9.31-1.51-3.64c-.31-.74-.61-1.47-.92-2.2-.06-.15-.12-.29-.19-.44l-.08-.12a.67.67,0,0,0-.36-.22,27,27,0,0,1-4.67-.11c-1.14-.11-2.28-.27-3.43-.4l-.11,0-.2,0-.45,0,0,15.33-1.33-.13-.13-37.48c2,.2,4.06.37,6.07.57,1.3.13,2.58.27,3.87.44a6.77,6.77,0,0,1,4.44,2.79,13.54,13.54,0,0,1,.83,1.21l.24.43c.16.29.31.57.45.86a16.2,16.2,0,0,1,1.47,5.32c0,.31.06.62.08.92s0,.79,0,1.19a19.46,19.46,0,0,1-.08,2,7.75,7.75,0,0,1-2.13,5.08,6.76,6.76,0,0,1-.66.56,6,6,0,0,1-.53.34,8.23,8.23,0,0,1-1.12.54l-.6.2-.14.05-.33.09.87,2.1C1067.2,1153.36,1068.35,1156.15,1069.52,1159Zm-5-11.93a5.31,5.31,0,0,0,4.67-4.41,15.53,15.53,0,0,0,.3-3.49,14.53,14.53,0,0,0-2-7.42,6.36,6.36,0,0,0-4.64-3.42l-2.95-.31-5-.48a.7.7,0,0,0-.23,0l.06,19.15,2.13.21,1,.11,1,.1a19.23,19.23,0,0,0,5.62-.08"/><path class="cls-3" d="M1012.14,1121.76a9.89,9.89,0,0,1,5,1.79c3,2.14,4.23,5.32,4.36,9.09,0,.12,0,.17-.06.26l-.3-.05-.85-.15c0-.1,0-.21,0-.32-.07-.52-.12-1-.21-1.53a6,6,0,0,0-.12-.61,8.41,8.41,0,0,0-4.8-6.26c-.18-.08-.38-.15-.57-.22a11.44,11.44,0,0,0-1.22-.3l-.92-.13-.38,0-.54,0a10.9,10.9,0,0,0-1.81,0,6.54,6.54,0,0,0-2.43.76,4.76,4.76,0,0,0-.51.32,6.89,6.89,0,0,0-2.76,4.9,10.52,10.52,0,0,0-.11,1.51c0,3.09,0,6.18,0,9.28s0,6.17,0,9.26a10.46,10.46,0,0,0,.7,3.71,9.3,9.3,0,0,0,1.84,3,8.46,8.46,0,0,0,1.54,1.33,7.38,7.38,0,0,0,1.83.89,7.61,7.61,0,0,0,1.37.33l.64.08.45,0,1.11,0a14,14,0,0,0,1.72-.08l.45,0a5.37,5.37,0,0,0,1-.23l.45-.17a4.7,4.7,0,0,0,.69-.39,5.56,5.56,0,0,0,2-2.5,7,7,0,0,0,.48-1.7,7,7,0,0,0,.08-.93c0-1.28,0-2.56,0-3.84,0-.65,0-1.29,0-1.94s0-1.27,0-1.91l0-.13c0-.05,0-.11,0-.19l-6.79-.67v-1.47l8.17.81v.66l0,8.15c0,4.66-2.51,7.8-6.54,8.1a15.84,15.84,0,0,1-2.84,0,10.49,10.49,0,0,1-2.07-.39,8.69,8.69,0,0,1-1.62-.62,9.82,9.82,0,0,1-1.87-1.18,10.64,10.64,0,0,1-2.64-3.28,12.13,12.13,0,0,1-.73-1.69c-.08-.25-.16-.5-.23-.77a12.61,12.61,0,0,1-.4-2.42c0-.28,0-.57,0-.85,0-3.07,0-6.14-.06-9.21s0-6.13,0-9.2a12,12,0,0,1,.15-1.93q.08-.46.18-.9a9.13,9.13,0,0,1,.43-1.34,7.44,7.44,0,0,1,7.13-4.8A17.14,17.14,0,0,1,1012.14,1121.76Z"/><path class="cls-3" d="M1045.59,1125.12v1.45l-14.32-1.42.06,16.52,13.09,1.3v1.5l-13.09-1.29.06,16.48,14.33,1.42v1.48L1030.1,1161l-.13-37.44Z"/><path class="cls-3" d="M994.88,1120.05v1.48l-14.1-1.4.05,16.54L994.1,1138v1.49l-13.28-1.31,0,16.54,14.12,1.39v1.45L979.59,1156l-.13-37.49Z"/><path class="cls-3" d="M973.29,1154.82c.06.21.12.42.2.73-.24,0-.46,0-.67,0a1.64,1.64,0,0,1-.44-.09c-.18-.06-.36-.37-.44-.6q-1.41-4.74-2.8-9.52l-.19-.6-.8-.08-5-.49-7.48-.76c-.41,0-.59.08-.72.52-.85,2.93-1.77,5.83-2.6,8.77-.16.55-.38.8-.81.76l-.23-.05-.2,0-.41,0c.84-2.83,1.63-5.55,2.43-8.27q4-13.49,7.94-27c.13-.43.22-.88.73-.9H962c.48,0,.68.45.83,1,1,3.36,1.92,6.71,2.88,10.07Q969.47,1141.5,973.29,1154.82Zm-17.7-13,12.92,1.28c-2.19-7.71-4.35-15.34-6.57-23.14-2.14,7.39-4.24,14.6-6.35,21.86"/><path class="cls-3" d="M975.94,1102.24a.63.63,0,0,1,.39.34.54.54,0,0,1-.25.47c-.6.26-1.21.46-1.82.68l-1.46-.14c-.46-.37-.47-.81,0-.92a26.57,26.57,0,0,1,3.1-.43Z"/><path class="cls-3" d="M962.69,1098.08l.17,0,.31.08.36.14c0,.12,0,.23,0,.33-.37,0-.74.07-1.13.09l-1.25.1a1.41,1.41,0,0,1,1.38-.78Z"/><path class="cls-3" d="M963,1099.06a3.93,3.93,0,0,1,1,.22l-.36.61.94.34a1.67,1.67,0,0,1-1.62.66,2.5,2.5,0,0,1-1.09-.38c.19-.17.37-.31.56-.47l-1.28-.39v-.19A3.16,3.16,0,0,1,963,1099.06Z"/><path class="cls-3" d="M1037.43,1084.86c.81.4,1.67.76,2.47,1.25a1.9,1.9,0,0,1,.49.49,1.33,1.33,0,0,1,.28.61l0,.11-.07.18a1.63,1.63,0,0,1-.33.37,1.21,1.21,0,0,1-.2.14l-.13,0c-.39.11-.78.2-1.18.29-.7.17-1.4.33-2.11.48l-.89.18-.41.07-.21,0c-.4,0-.8.06-1.2.09l-.31,0c.78-.6,1.33-1,1.76-1.4A8,8,0,0,0,1037.43,1084.86Z"/><path class="cls-3" d="M1030.16,1072.74a6,6,0,0,1,4,2.45l.05.06a10.74,10.74,0,0,1,1,1.47,11.81,11.81,0,0,1,.8,1.73,11.46,11.46,0,0,1,.52,1.82,10,10,0,0,1,.18,2.7c0,.29-.07.58-.12.85s-.14.53-.22.78-.16.41-.25.6a5.21,5.21,0,0,1-1.09,1.43,6.61,6.61,0,0,1-2,1.26,1.41,1.41,0,0,1-.43.1h-.18a1.2,1.2,0,0,1-.88-.58,2.69,2.69,0,0,1-.25-.51,24.45,24.45,0,0,1-.85-3c-.06-.34-.12-.69-.17-1a15,15,0,0,0-.32-1.65,10.61,10.61,0,0,0-.38-1.25,10.22,10.22,0,0,0-.81-1.78,9.51,9.51,0,0,0-1-1.36c-.19-.24-.37-.49-.54-.74a2.93,2.93,0,0,1-.6-1.7,1.63,1.63,0,0,1,.11-.59,1.73,1.73,0,0,1,1.52-1,13.07,13.07,0,0,1,1.77,0Z"/><path class="cls-3" d="M995,1099.84a4.3,4.3,0,0,1,.85.18l.23.07a2.89,2.89,0,0,1,1.21.78,3,3,0,0,1-2.3.56l-.17,0a3.11,3.11,0,0,1-1-.31,1.18,1.18,0,0,1-.35-.26.58.58,0,0,1-.09-.36,1.36,1.36,0,0,1,0-.21l.06-.13a1.83,1.83,0,0,1,1.33-.31Z"/><path class="cls-3" d="M1004.61,1100.37h.08a2,2,0,0,1,1.32.7,1.72,1.72,0,0,1-1.44.46h-.06a2.55,2.55,0,0,1-.52-.15,1,1,0,0,1-.26-.12,1.85,1.85,0,0,1-.64-.57,2.4,2.4,0,0,1,1-.32A1.88,1.88,0,0,1,1004.61,1100.37Z"/><path class="cls-3" d="M1007,1092l1.78.28c.6.1,1.19.2,1.78.34a1.58,1.58,0,0,1,.56.33,1.11,1.11,0,0,1,.3.37l0,.12v.16a1.45,1.45,0,0,1-.11.48,3.9,3.9,0,0,1-.19.35l-.15.24a1.5,1.5,0,0,1-.43.36,5,5,0,0,0-.5.29,1.2,1.2,0,0,0-.21.17.75.75,0,0,0-.29.53,1.16,1.16,0,0,0,.46.8l0,0,.31.25a1.85,1.85,0,0,1,.57.92,1,1,0,0,1-.17.79,1.16,1.16,0,0,1-.53.36l-.66.21a9.1,9.1,0,0,1-2.37.41c-3.79,0-7.58,0-11.38-.08h-.16a4.34,4.34,0,0,1-.59-.11,6.2,6.2,0,0,1-1.16-.42,1.39,1.39,0,0,1-.46-.42l-.32-.42-.11-.13c.14-.16.28-.35.42-.52a.86.86,0,0,1,.46-.34,14.53,14.53,0,0,1,3-.24c1.83.05,3.67.24,5.5.3a3,3,0,0,0,1.12-.15,1.75,1.75,0,0,0,.34-.15.78.78,0,0,0,.3-.34,1.9,1.9,0,0,0,.2-.67l0-.12a1.5,1.5,0,0,0-.64-.58,14.42,14.42,0,0,0-1.41-.45l-.58-.18a4.4,4.4,0,0,1-.73-.22l-.14-.08-.14-.12a3.74,3.74,0,0,1-.31-.27,2.33,2.33,0,0,1-.38-.4.52.52,0,0,1-.08-.24,1.24,1.24,0,0,1,.15-.46,1.21,1.21,0,0,1,.24-.35l.14-.15.14-.09.14,0,.85-.16,1.07-.14c.65-.07,1.3-.11,2-.14h.59l.27,0c.5,0,1,.14,1.5.19Z"/><path class="cls-3" d="M1013.76,1003.25l.08.19a7.4,7.4,0,0,1,.38.94,1.13,1.13,0,0,1,.06.36,8.94,8.94,0,0,1-.09,1.72c0,.22-.08.43-.13.65l-.33,1.34c-.23.89-.47,1.79-.73,2.73l-.39,1.44.79-.6.76-.58c0,.13,0,.3,0,.5a3.88,3.88,0,0,1,0,.4c0,.14,0,.29,0,.47l3.6-4c.09.47.19,1.07.32,1.77l1.56-1.48,1.41-1.32a2.7,2.7,0,0,1,0,.28c0,.24,0,.46,0,.69a7.46,7.46,0,0,1-2,4.52,15.54,15.54,0,0,1-2.17,2.09c-.23.19-.45.37-.7.55l.42,0,1.21-.05-.07.11-.73,1.05c-.27.36-.55.71-.82,1l-.63-.33a6,6,0,0,0-1.18-.39l-.45-.07-.43,0c-2,0-3.46,1.5-4.79,3.29l-.3-.57-.28-.57a3.15,3.15,0,0,0-.68-.92,1.44,1.44,0,0,0-.55-.28c-.44-.13-1-.14-1.43-.26,0-.33,0-.68,0-1,.06-1.44.13-3,.21-4.66.12.11.25.23.39.34s.41.37.64.56l.24.22a10.29,10.29,0,0,0,2.42-6.94l.76,1.08c.18-.34.35-.7.53-1.07s.36-.73.56-1.08a6.57,6.57,0,0,1,1.07-1.5A4.34,4.34,0,0,1,1013.76,1003.25Z"/><path class="cls-3" d="M1024.09,1025.86c.3,0,.6.07.9.13a.79.79,0,0,1,.26.08,1.91,1.91,0,0,1,.27.16l.39.26.14.1a1.69,1.69,0,0,0-.12.27l-.12.29a1,1,0,0,1-.3.45c-.84.59-1.67,1.18-2.51,1.75s-1.7,1.13-2.56,1.66c-.22.13-.43.24-.65.35-.38.21-.78.42-1.17.6l-.89.43-.86.4c.39-1.58.78-3.18,1.2-4.86q.2-.84.42-1.71l1.55-.22A17.51,17.51,0,0,1,1024.09,1025.86Z"/><g class="cls-8"><path class="cls-3" d="M965.61,1034.4c.2.37.39.73.6,1.09l.82,1.5c.47.84.93,1.68,1.4,2.54l1-.61,1.65-1.05a4.37,4.37,0,0,0,.17.67,2.67,2.67,0,0,0,1.7,1.88l-1.12-.13a37.21,37.21,0,0,1-5.57-1.07c-.74-.22-1.47-.47-2.2-.76a6.15,6.15,0,0,1-.76-.4,2.19,2.19,0,0,1-.65-.55,1,1,0,0,1-.15-.33.59.59,0,0,1,0-.23,1.4,1.4,0,0,1,.53-.74A31.65,31.65,0,0,1,965.61,1034.4Z"/><path class="cls-3" d="M974.33,1032.43c.25.68.49,1.38.71,2.08l-2.63,1.3-3.74,1.83c-.24-.42-.48-.84-.71-1.26a20.22,20.22,0,0,1-2.66-7.59,4.63,4.63,0,0,1,0-.51c0-.17,0-.34,0-.5a5.16,5.16,0,0,1,.21-1,2.86,2.86,0,0,1,2.83-2.24,2.7,2.7,0,0,1,.75.2,4.27,4.27,0,0,1,1.21.79,6.82,6.82,0,0,1,1.05,1.1c.23.3.44.59.64.89a19.46,19.46,0,0,1,1.55,2.88C973.82,1031.06,974.08,1031.74,974.33,1032.43Zm-5.53-3.32c1.43,1.37,2.1,3.22,3.28,4.83a10.15,10.15,0,0,0-2.11-5.39,1.86,1.86,0,0,0-1.14-.64,1.06,1.06,0,0,0-1,.41c-.71.86-.16,3.42.9,4.07,0-1-.5-2.12,0-3.28"/><path class="cls-3" d="M973.31,1037.18l.26,0a4.57,4.57,0,0,1,1.48.43c.34.15.67.32,1,.49,1.45.71,2.89,1.46,4.34,2.19l1.07.52c.49.24,1,.45,1.47.66l1.3.55c.55.23,1.11.45,1.67.65a1.17,1.17,0,0,0,.36.08h.28c.3,0,.61,0,.91,0l.19,0a1.43,1.43,0,0,1,.29.08c.3.11.62.31.67.49v.15a1.55,1.55,0,0,1-.22.9l-.13.15a2.28,2.28,0,0,1-.36.15,4.15,4.15,0,0,1-.72.12l-.26,0a9.39,9.39,0,0,1-.95-.2,14.9,14.9,0,0,1-1.79-.56l-.85-.34c-1.12-.48-2.18-1-3.25-1.58-2-1-4.08-2-6.13-3l-.11,0c-.28-.08-.62,0-.83-.23a2,2,0,0,1-.41-.49,1.34,1.34,0,0,1-.15-.29.74.74,0,0,1-.06-.28.34.34,0,0,1,.05-.21,1.36,1.36,0,0,1,.29-.37.52.52,0,0,1,.33-.15Z"/><path class="cls-3" d="M1004,1031.6c-.69.85-1.37,1.7-2.07,2.54l-1,1.22-1.23,1.33q-1.24,1.33-2.52,2.64a3,3,0,0,1-.38.34,1.12,1.12,0,0,1-.78.23,1.63,1.63,0,0,1-.83-.36l-.17-.1a1.75,1.75,0,0,0-.7-.23,1.23,1.23,0,0,0-.43,0,1.61,1.61,0,0,0-.77.41,2.21,2.21,0,0,0-.68,1.33,1.17,1.17,0,0,1-.23.57.68.68,0,0,1-.22.12,1,1,0,0,1-.26,0l-2.29-.16-1.15-.09c-.11,0-.22-.06-.32-.07h-.09a4.3,4.3,0,0,1-1.33.08,12.5,12.5,0,0,1-4-1.54c-2.47-1.22-4.9-2.55-7.39-3.85l.48-.15a1.92,1.92,0,0,0,.46-.21,1.7,1.7,0,0,0,.36-.39c.07-.1.13-.2.21-.3,1.18.24,2.35.41,3.52.54.67.06,1.29.1,1.91.13s.94,0,1.41,0c6.87.06,13.46-1.72,20-4Z"/><path class="cls-3" d="M1005.53,1032.34a.85.85,0,0,1,.54.33,1.08,1.08,0,0,1,.2.29.93.93,0,0,1,.1.48,1.11,1.11,0,0,1-.14.47l-.12.19-.15.17-3.47,3.91c-1.16,1.3-2.33,2.61-3.51,3.88a4.13,4.13,0,0,1-1.07.86,3.9,3.9,0,0,1-2.18.45l-.07.13,0,.08a13,13,0,0,1-1.8-1.41.83.83,0,0,1-.14-.42,1.43,1.43,0,0,1,0-.36.83.83,0,0,1,.13-.42,1,1,0,0,1,.75-.21l.14,0a.32.32,0,0,1,.15.09,1.83,1.83,0,0,0,1.1.63,1.51,1.51,0,0,0,.73-.14,4.09,4.09,0,0,0,.91-.65c.48-.43,1-.88,1.42-1.35.78-.78,1.54-1.59,2.27-2.41,1.17-1.29,2.26-2.68,3.37-4a2.23,2.23,0,0,1,.44-.43A.68.68,0,0,1,1005.53,1032.34Z"/><path class="cls-3" d="M1003.81,1025.2c.11.26.21.5.33.72a2.46,2.46,0,0,0,.19.32,2.29,2.29,0,0,0,.54.61,1.54,1.54,0,0,0,.8.36,3.29,3.29,0,0,1-.09.81,2.46,2.46,0,0,1-1,1.57,5,5,0,0,1-1.37.7c-1.44.53-2.9,1-4.36,1.5a56.07,56.07,0,0,1-11.22,2.41c-.76.07-1.54.13-2.32.17a35.47,35.47,0,0,1-4.94-.11,26,26,0,0,1-3.94-.69,1.19,1.19,0,0,1-.67-.54c-.35-.83-.7-1.67-1-2.52s-.69-1.7-1.05-2.58c.53.16,1.06.35,1.59.51a24.88,24.88,0,0,0,3.5.81c.54.08,1.07.15,1.6.2a37,37,0,0,0,8.8-.28,51.53,51.53,0,0,0,5.27-1c.58-.13,1.15-.28,1.73-.43q3.42-.95,6.77-2.22l.41-.15Z"/><path class="cls-3" d="M1006.81,1019.36h.09c.19.06.39.39.52.72l0,.06a2.58,2.58,0,0,1,.08.26,5.76,5.76,0,0,1,.15.81c0,.13,0,.26,0,.4a3.09,3.09,0,0,1,0,.43,3.65,3.65,0,0,1-.42,1.46c-.09.18-.18.37-.26.57l-.3.75-.21.43a1.44,1.44,0,0,1-.33.37.78.78,0,0,1-.46.2.6.6,0,0,1-.18-.07,1.68,1.68,0,0,1-.49-.66l0-.2c-.14-.5-.19-1-.28-1.53a8.18,8.18,0,0,1,.49-2.39,4.23,4.23,0,0,1,.42-.82,3.27,3.27,0,0,1,.28-.37A1.23,1.23,0,0,1,1006.81,1019.36Z"/><path class="cls-3" d="M1012.93,1032.37l1.09.13q.57.07,1.14.18c.35,0,.71.12,1.06.19a1.66,1.66,0,0,1,.06.21l0,0-5.53,2.24-5.24,2.14-.39.16a4.59,4.59,0,0,1,.59-1l.22-.28c.11-.12.22-.24.32-.37a3.66,3.66,0,0,0,1.27-3,4.9,4.9,0,0,0-.12-.6,23.05,23.05,0,0,1,3.31-.19C1011.46,1032.26,1012.19,1032.3,1012.93,1032.37Z"/><path class="cls-3" d="M1017,1021.46a12.49,12.49,0,0,1,.22,3.93c-.07.78-.18,1.54-.31,2.3-.17,1.08-.49,2.1-.73,3.15a.93.93,0,0,1-.18.4.54.54,0,0,1-.51.18h-.1l-1.1-.18-1.1-.14-.3,0a24.83,24.83,0,0,0-4-.11,19.41,19.41,0,0,0-2.15.26h-.26l-.21,0-.39,0c1.24-4.23,2.43-8.25,5.18-11.18a4.9,4.9,0,0,1,1.64-1.14,2.83,2.83,0,0,1,.36-.16,3.33,3.33,0,0,1,1-.17h.3a.86.86,0,0,1,.17,0,2.49,2.49,0,0,1,1.24.6,3.75,3.75,0,0,1,.64.77A5.21,5.21,0,0,1,1017,1021.46Zm-1.65,2.4c.19-1.26-.38-2.19-1.5-2.3h0a2.39,2.39,0,0,0-1.62.46c-1.29,1-1.67,2.67-1.77,4.47.47-.62.79-1.35,1.25-2a5.89,5.89,0,0,1,1.61-1.58,1,1,0,0,1,.52-.14c.39,0,.6.47.53,1.13-.11.89-.3,1.77-.45,2.66a4.2,4.2,0,0,0,1.46-2.74"/></g><path class="cls-3" d="M988,1010.57l.12,0a12,12,0,0,1,2.81.66,84.65,84.65,0,0,1,13.24,5.91c.65.37.94.72.92,1.18a1.52,1.52,0,0,1,0,.21,3,3,0,0,1-.34.75,6.91,6.91,0,0,0-1,2.72,6.81,6.81,0,0,0-.07,1,1,1,0,0,1-.31.89,1.39,1.39,0,0,1-.3.16c-1.07.41-2.15.8-3.24,1.16a52.92,52.92,0,0,1-16.18,3h-.56l-2.67-.13,0,.17c-.93-.2-1.86-.45-2.79-.7l-3.84-1a1,1,0,0,1-.54-.3.81.81,0,0,1-.26-.49,1.92,1.92,0,0,1,0-.48,5.19,5.19,0,0,0,0-1.11,6.88,6.88,0,0,1,.18-2.47,5.46,5.46,0,0,1,1.09-2.09c.37-.46.76-.9,1.15-1.34a53.78,53.78,0,0,1,5.31-5.26,11.61,11.61,0,0,1,2.35-1.57,9.12,9.12,0,0,1,1.85-.67A9.42,9.42,0,0,1,988,1010.57Z"/><path class="cls-3" d="M967.13,1077.64v4.48l-.29-.14-1.5-.75c-.57-.3-1.11-.59-1.64-.92a.92.92,0,0,1-.52-1l0-.11a.91.91,0,0,1,.48-.44l.48-.18C965.13,1078.24,966.12,1078,967.13,1077.64Z"/><path class="cls-3" d="M966.25,1100.68a2.43,2.43,0,0,1,1.15.41,2,2,0,0,1-1.7.67h-.08a1.9,1.9,0,0,1-1-.49,1.74,1.74,0,0,1,1.2-.58A1.85,1.85,0,0,1,966.25,1100.68Z"/><path class="cls-3" d="M970.08,1101.44l.18,0,.34.07a1,1,0,1,1-.56,1.27,4.09,4.09,0,0,1-.7,0,4.34,4.34,0,0,1-.54-.09,2.33,2.33,0,0,1-1.19-.61A3,3,0,0,1,970.08,1101.44Z"/><path class="cls-3" d="M982.92,1094.26c.3,0,.6.08.89.13,1.29.19,2.58.51,3.86.81a5.37,5.37,0,0,1,1.2.7v.22c0,.07,0,.14,0,.22a7.48,7.48,0,0,1-1.61.5c-3.25.27-6.5.48-9.75.72l-1.06.09-.59.08-1,.13a2.14,2.14,0,0,0-.52.22,5,5,0,0,1-.49.31c0,.1,0,.2,0,.31a5.53,5.53,0,0,0,1.13.49c.6.15,1.21.24,1.81.39l.16,0,.51.15a1.29,1.29,0,0,1,.46.38l.13.18a.56.56,0,0,1,.11.32,1,1,0,0,1-.7.78l-.81.09a11,11,0,0,1-2.3.06l-.16,0c-2.64-.33-5.28-.77-7.92-1.25a3.46,3.46,0,0,1-1-.39,7.23,7.23,0,0,1-.66-.4l-.18-.15-.18-.18a.78.78,0,0,1-.23-.55.52.52,0,0,1,.13-.36,1.16,1.16,0,0,1,.49-.36c.14-.06.29-.1.44-.15a10.23,10.23,0,0,1,1.72-.33c1.81-.24,3.64-.31,5.44-.56a17.86,17.86,0,0,0,2.62-.52c.28-.08.57-.17.85-.27,1.35-.48,2.67-1.08,4-1.46a9.79,9.79,0,0,1,2.36-.39A6.66,6.66,0,0,1,982.92,1094.26Z"/><path class="cls-3" d="M1010.42,1099.63h0l.1,0,.73.43.36.22-1,.7-.1-.18h-.1a.58.58,0,0,1-.14,0l-.08,0c-.24-.19-.46-.4-.69-.6l0-.05c.24-.15.48-.32.74-.46A.48.48,0,0,1,1010.42,1099.63Z"/><path class="cls-3" d="M971.39,1071.58c.39,1.17.76,2.3,1.15,3.41.49,1.42,1,2.84,1.49,4.26s1,2.84,1.51,4.25a1.49,1.49,0,0,1,.12.71,1.07,1.07,0,0,1-.28.59,5.17,5.17,0,0,1-.74.74,4.14,4.14,0,0,1-.81.55,4.22,4.22,0,0,1-.45.18,3.51,3.51,0,0,1-1.5.18h0a3.46,3.46,0,0,1-3.33-3.21,16,16,0,0,1-.11-5.46,12.64,12.64,0,0,1,.53-2.12c.08-.23.16-.45.26-.68a11.24,11.24,0,0,1,.63-1.31,13,13,0,0,1,1.26-1.83l.08-.07.21-.16Z"/><path class="cls-3" d="M999.18,1063.27l.72.24c1.3.45,2.59.86,3.85,1.38a2,2,0,0,1,1.32,1.53l0,.25a3.5,3.5,0,0,1,0,.73,2.05,2.05,0,0,1-.07.34,1.56,1.56,0,0,1-1,1.13,9.56,9.56,0,0,1-3,.5,10.93,10.93,0,0,1-1.27-.07l-.38,0c-.56-.07-1.11-.16-1.66-.26l-.62-.08a8.27,8.27,0,0,0-2.23.08,8.67,8.67,0,0,0-.88.21,6.35,6.35,0,0,0-.7.23,11.32,11.32,0,0,0-1.36.66c-.6.35-1.2.71-1.79,1.08a2.42,2.42,0,0,1-1.56.39,3.29,3.29,0,0,1-1.23-.4,1.25,1.25,0,0,1-.24-.16,1.94,1.94,0,0,1-.29-.21,2.87,2.87,0,0,1-.47-.52,1.34,1.34,0,0,1-.18-.28l0-.06a2.53,2.53,0,0,1-.25-1,2,2,0,0,1,0-.54,2.34,2.34,0,0,1,.42-1,4.3,4.3,0,0,1,.67-.79,5,5,0,0,1,1.2-.83l.44-.22c.3-.13.61-.25.91-.35h.14a3.74,3.74,0,0,1,.49.3c.41.26.81.63,1.23.86a1.82,1.82,0,0,0,.43.19c.21.06.43.12.64.16a6.64,6.64,0,0,0,1.07.18l.22,0a6.6,6.6,0,0,0,2.21-.21,4.7,4.7,0,0,0,.92-.3,2,2,0,0,0,.33-.16,3.76,3.76,0,0,0,.47-.3A4.5,4.5,0,0,0,999.18,1063.27Z"/><path class="cls-3" d="M1004.34,1051.56h0a2.73,2.73,0,0,1,1.76,1,3.25,3.25,0,0,1,.7,2.06,2.87,2.87,0,0,1-.11.74,2.56,2.56,0,0,1-.63,1.16,1.64,1.64,0,0,1-.33.26,2.27,2.27,0,0,1-.77.31,3.15,3.15,0,0,1-.44,0h-.24a2.5,2.5,0,0,1-1.4-.63,3,3,0,0,1-.87-1.32,3.22,3.22,0,0,1-.17-1.13,2.91,2.91,0,0,1,.26-1.21,2.4,2.4,0,0,1,.17-.32A2.11,2.11,0,0,1,1004.34,1051.56Z"/><path class="cls-3" d="M980.57,1055.74a2.41,2.41,0,0,1,1,.32,3.18,3.18,0,0,1,1.4,2,3.31,3.31,0,0,1,.1.83,2.93,2.93,0,0,1-.34,1.38,2.25,2.25,0,0,1-1.17,1,2,2,0,0,1-.92.11h0a2.6,2.6,0,0,1-1.73-1,3.14,3.14,0,0,1-.44-.78,3.53,3.53,0,0,1-.22-.72,3.33,3.33,0,0,1,0-1.15,3.8,3.8,0,0,1,.14-.51,2.23,2.23,0,0,1,1.88-1.52Z"/><path class="cls-3" d="M1029.54,1085.71c.22,1.2.48,2.39.74,3.7l-1.78,0h-1.82c-.36,0-.74,0-1.11,0-5.06,0-10.12-.25-15.19-.62-2.56-.18-5.14-.4-7.71-.65s-5.14-.55-7.72-.86c-2.42-.3-4.85-.66-7.28-1l-7.27-1.16c-.74-.12-1.47-.24-2.2-.34l-.31-.07a1.76,1.76,0,0,1-.39-.17,1.85,1.85,0,0,1-.72-1.06c-.28-.78-.55-1.57-.83-2.36-.12-.33-.23-.67-.35-1-2-5.56-3.89-11.12-5.47-16.8-.26-1-.52-1.95-.77-2.93q-.23-.87-.42-1.74c-.25-1.07-.46-2.13-.65-3.2-.13-.76-.24-1.52-.34-2.28a32.6,32.6,0,0,1-.18-6.84,11.54,11.54,0,0,1,.16-1.18c.21-1.17.56-2.31.86-3.45a.79.79,0,0,1,.68-.43c1.75.2,3.49.43,5.23.66l2.56.36a1.86,1.86,0,0,1,.39.1,7.68,7.68,0,0,1,1.15.57l1.8,1c.3.16.6.32.91.47a19.64,19.64,0,0,0,4.67,1.73c.14,0,.28,0,.43.06l.2,0a4.48,4.48,0,0,0,.82,0,2.84,2.84,0,0,0,1.26-.34,1.78,1.78,0,0,0,.82-.91c0-.09,0-.19.08-.28a1.6,1.6,0,0,0,.07-.33,5.12,5.12,0,0,0,0-1.27l.66,0,1.95-.15a1.35,1.35,0,0,1,.42.21,7.3,7.3,0,0,0,1.52,1.17,4,4,0,0,0,1.57.53,4,4,0,0,0,2.89-1,19.36,19.36,0,0,0,1.86-1.66l.89-.88c.3-.3.61-.59.91-.87a5.47,5.47,0,0,1,1.51-1c4.74-2,9.5-3.87,14.24-5.85a1.15,1.15,0,0,1,.59-.12c.26,0,.47.19.73.51a17.48,17.48,0,0,1,1.78,2.7,22.79,22.79,0,0,1,1.71,4.18c.13.41.25.83.35,1.25s.22.85.31,1.29c2,9.09,3.42,18.27,4.67,27.47v.52c-.35.07-.64.11-.92.18a3.4,3.4,0,0,0-.56.21,2.66,2.66,0,0,0-1.53,2.07c0,.14,0,.27,0,.41a3.82,3.82,0,0,0,0,.57c0,.08,0,.17,0,.26a5.31,5.31,0,0,0,.23.71,4.31,4.31,0,0,0,.45.85c.31.46.64.9,1,1.34a8.61,8.61,0,0,1,1.49,3,7,7,0,0,1,.24,1.12c.1.62.2,1.23.31,1.85S1029.43,1085.1,1029.54,1085.71Zm-24.15-25.32c4.26.43,7.8-3.28,7.76-8.15s-3.56-9.19-7.79-9.65-7.78,3.32-7.76,8.17,3.56,9.21,7.79,9.63m-23.21,4a5.16,5.16,0,0,0,.88-.1,6.67,6.67,0,0,0,4-2.25,8.24,8.24,0,0,0,1.1-1.64,8.87,8.87,0,0,0,.64-1.75,11,11,0,0,0,.21-1.17,8.07,8.07,0,0,0,.08-1.22,10,10,0,0,0-5.19-8.86l-.46-.22a6.9,6.9,0,0,0-1.19-.39,7.08,7.08,0,0,0-.9-.16,7.55,7.55,0,0,0-1.58,0,6.51,6.51,0,0,0-3.09,1.27,6.62,6.62,0,0,0-.85.75,8.59,8.59,0,0,0-2.25,6,9.2,9.2,0,0,0,.08,1.17,6.92,6.92,0,0,0,.17,1,10.19,10.19,0,0,0,3.81,6,7.88,7.88,0,0,0,2.13,1.11,7.41,7.41,0,0,0,1.55.35,7,7,0,0,0,.91,0m23.82,4a4.76,4.76,0,0,0,.24-1.74,3.24,3.24,0,0,0-.22-1.08,3.89,3.89,0,0,0-1.79-1.9l-.21-.12a11,11,0,0,0-3.5-1.23c-.24-.05-.49-.09-.73-.12l-.81-.09-.66-.06c0,.08,0,.17,0,.25s0,.16,0,.22A2.06,2.06,0,0,1,998,1064a1.93,1.93,0,0,1-.29.35,3.31,3.31,0,0,1-.5.41,5.17,5.17,0,0,1-2.22.87l-.16,0a6.08,6.08,0,0,1-1.28,0l-.16,0a6.47,6.47,0,0,1-.88-.15,3.5,3.5,0,0,1-2.26-1.56l-.08-.07a.63.63,0,0,0-.34-.12.36.36,0,0,0-.19,0,24.72,24.72,0,0,0-3.63,2,3.35,3.35,0,0,0-1.22,1.91,2.85,2.85,0,0,0-.08.51,4.23,4.23,0,0,0,0,1.06,4.32,4.32,0,0,0,3.72,3.6,3.34,3.34,0,0,0,1.83-.33c.8-.4,1.54-.91,2.32-1.35l.18-.1.28-.14a7.17,7.17,0,0,1,1.52-.57,6.41,6.41,0,0,1,1.59-.2l.75,0,.36,0,1,.14,1,.13.69.08.28,0,1,0h.77l.59,0a6.72,6.72,0,0,0,1.69-.39,2.87,2.87,0,0,0,1.51-1.31,3.38,3.38,0,0,0,.22-.47m-12.11-8.12c-2.12.07-3.72,1.22-3.58,2.57.12,1.17,1.52,2.11,3.29,2.28a5.17,5.17,0,0,0,.79,0c2.12-.08,3.72-1.23,3.58-2.57-.12-1.17-1.53-2.11-3.29-2.28a5.17,5.17,0,0,0-.79,0m0,15.4a1.14,1.14,0,0,0,1.16-1.27v-.09a17.3,17.3,0,0,0-.23-2.12c-.05-.26-.08-.54-.12-.83l-.67.35-.95.52-.72.4a1,1,0,0,0-.31.38v.1c.09.19.17.4.26.59a5.46,5.46,0,0,0,.27.6,3.57,3.57,0,0,0,.66,1,1.08,1.08,0,0,0,.67.34m5.06-1.62c0-.41,0-.83,0-1.25,0-.22,0-.44,0-.66s0-.44,0-.65l-3.35-.34.12.49.35,1.36c.12.44.23.85.36,1.26a1.26,1.26,0,0,0,1.1,1h.27a1.27,1.27,0,0,0,.79-.3,1,1,0,0,0,.24-.34,1.41,1.41,0,0,0,.11-.48v-.06"/><path class="cls-3" d="M1000.42,1100.35a1.23,1.23,0,0,1,.55.23l.55.39.19.14-.61.41-.69.48-1-.88a3.88,3.88,0,0,1-.31-.26,2.6,2.6,0,0,0,.34-.16,3.81,3.81,0,0,1,.68-.32A1.27,1.27,0,0,1,1000.42,1100.35Z"/><path class="cls-3" d="M1007.8,1100.07l.14,0a5.06,5.06,0,0,1,.91.62l-.76.55-.3.21-1.08-1a8.49,8.49,0,0,1,.82-.38A.63.63,0,0,1,1007.8,1100.07Z"/><polygon class="cls-5" points="724.13 640.75 417.32 611.01 565.99 495.9 872.8 525.64 724.13 640.75"/><polygon class="cls-1" points="724.13 640.74 724.13 878.62 694.68 875.76 635.7 870.06 594.39 866.05 571.33 863.82 513.15 858.17 484.11 855.38 442.81 851.37 417.31 848.9 417.31 611.02 724.13 640.74"/><polygon class="cls-6" points="872.8 763.52 724.13 878.63 724.13 640.75 872.8 525.64 872.8 763.52"/><path class="cls-6" d="M569.41,509.16v21.06c0,10,21.86,18.13,48.82,18.13s48.82-8.12,48.82-18.13V509.16Z"/><path class="cls-1" d="M667.05,509.16c0,10-21.86,18.13-48.82,18.13s-48.82-8.11-48.82-18.13S591.27,491,618.23,491,667.05,499.15,667.05,509.16Z"/><path class="cls-6" d="M492.14,566.48v21.06c0,10,21.86,18.13,48.82,18.13s48.82-8.12,48.82-18.13V566.48Z"/><path class="cls-1" d="M589.78,566.48c0,10-21.86,18.13-48.82,18.13s-48.82-8.12-48.82-18.13S514,548.35,541,548.35,589.78,556.47,589.78,566.48Z"/><path class="cls-6" d="M709.75,521.05v21.06c0,10,21.86,18.13,48.82,18.13s48.82-8.12,48.82-18.13V521.05Z"/><ellipse class="cls-1" cx="758.57" cy="521.05" rx="48.82" ry="18.13"/><path class="cls-6" d="M632.49,578.37v21.06c0,10,21.85,18.13,48.81,18.13s48.82-8.12,48.82-18.13V578.37Z"/><ellipse class="cls-1" cx="681.3" cy="578.37" rx="48.82" ry="18.13"/><path class="cls-3" d="M526.22,769.44c1.32.13,2.09,1.29,2.09,2.82l.08,22.37c0,5.43-2.25,9.56-6.41,11.75a10,10,0,0,1-6.26,1.33l-1-.09c-4.74-.47-8.55-3.46-10.84-8.46a16.21,16.21,0,0,1-1.74-7.33v-1.09c0-5.44,2.25-9.55,6.42-11.75a10,10,0,0,1,6.25-1.33l.95.09a13.93,13.93,0,0,1,8,4.7l0-10.64c0-1.31.75-2.54,2.07-2.41Zm-3.51,28.76a10.56,10.56,0,0,0,1.12-4.89A10.79,10.79,0,0,0,520,784.9a9,9,0,0,0-4.94-2.23c-3.61-.36-6.26,1.55-7.77,5.1a11,11,0,0,0-.93,4,10.67,10.67,0,0,0,4.77,9.16,8.63,8.63,0,0,0,4,1.48c3.42.34,5.88-1.15,7.58-4.24"/><g class="cls-8"><polygon class="cls-3" points="593.6 696.67 593.65 711.11 581.04 709.86 580.99 695.42 593.6 696.67"/><path class="cls-3" d="M634.71,708.51l1.63,1.27-1,1.76c-3.29,7.26-10,9.05-16.88,8.36-.5,0-1-.11-1.52-.19-11.22,30-35.11,42.06-64.22,39.17-15.21-1.5-29.14-9.54-37-25.13v-.37l-1.3-2.72a48.94,48.94,0,0,1-3-21.39l.32-2.19,83.78,8.3a23.2,23.2,0,0,0,8.72-.62c1.3-.62,2.91-1.2,4.2-1.8a24,24,0,0,1-2.94-9.55c-.34-4.48.61-10.31,3.19-13.38l1.29-1.72,1.62,1.63c4.22,4.12,7.47,9.26,8.14,15.25a19.19,19.19,0,0,1,5.69-.29A17.49,17.49,0,0,1,634.71,708.51ZM536.5,737.29c3.56.35,6.78-2.66,6.77-6.74s-2.94-7.69-6.82-8.07-6.78,2.66-6.76,6.73,3.25,7.72,6.81,8.08"/></g><polygon class="cls-3" points="531.17 690.49 531.22 704.93 518.6 703.68 518.55 689.24 531.17 690.49"/><polygon class="cls-3" points="546.7 692.02 546.75 706.47 534.13 705.22 534.08 690.77 546.7 692.02"/><polygon class="cls-3" points="546.64 673.87 546.68 688.32 534.07 687.07 534.02 672.63 546.64 673.87"/><polygon class="cls-3" points="562.55 693.59 562.6 708.04 549.98 706.79 549.93 692.34 562.55 693.59"/><polygon class="cls-3" points="562.49 675.44 562.54 689.89 549.92 688.64 549.87 674.2 562.49 675.44"/><polygon class="cls-3" points="578.08 695.13 578.13 709.58 565.51 708.33 565.46 693.88 578.08 695.13"/><polygon class="cls-3" points="578.02 676.98 578.07 691.43 565.45 690.18 565.4 675.73 578.02 676.98"/><polygon class="cls-3" points="577.96 658.47 578 672.91 565.38 671.66 565.34 657.22 577.96 658.47"/><path class="cls-3" d="M643.73,790.85a2.67,2.67,0,0,1,2.28,2.83c0,2.17-1.69,2.44-3.21,2.29a6.64,6.64,0,0,0-5.12,2.32,9.35,9.35,0,0,0-2.44,6.71l0,12.17c0,1.3-.75,2.52-2.08,2.39l-.38,0c-1.33-.13-2.09-1.29-2.09-2.81l-.05-12.82a13.13,13.13,0,0,1,5.47-11.18,11.19,11.19,0,0,1,7.2-1.89Z"/><path class="cls-3" d="M626.86,795.7l.19.45c1,1.83-.18,3.24-1.5,4.2l-4,3.51c-3.41,2.71-6.25,5.25-9.09,7.79a7.45,7.45,0,0,0,2.76.79,9.86,9.86,0,0,0,2.37-.06,9.85,9.85,0,0,1,3.55-1l.24.05.38,0a2.15,2.15,0,0,1,1.14,1.42c.58,1.36.39,2.64-.75,3.18l-.37.18a9.74,9.74,0,0,1-6,1.35,14.11,14.11,0,0,1-6.74-2.82,16.36,16.36,0,0,1-4.57-5.67l-.19-.45a15.6,15.6,0,0,1,.7-15.79,11.15,11.15,0,0,1,4-3.73l.57-.38a10.22,10.22,0,0,1,6.06-1.3,14.06,14.06,0,0,1,6.09,2.29A15.39,15.39,0,0,1,626.86,795.7Zm-8.52,3.93a44,44,0,0,0,3.4-3.14,11,11,0,0,0-3.61-3.18,7.64,7.64,0,0,0-2.81-.88,8.23,8.23,0,0,0-4.6,1c-3,1.66-4.34,4.79-4.14,8.72a9.22,9.22,0,0,0,1.16,4.46,6.11,6.11,0,0,1,1,1.61c3.22-2.94,6.43-5.66,9.65-8.6"/><path class="cls-3" d="M598.83,811l.76.94A2.59,2.59,0,0,1,600,813v.65a1.88,1.88,0,0,1-1.89,1.77l-.38,0c-.76-.08-1.53-1-2.09-1.73-1-1.18-2.1-2.38-3.06-3.77l-3.42-4,0,6.08c0,1.31-.75,2.54-2.08,2.41l-.38,0c-1.33-.13-2.09-1.29-2.1-2.82L584.49,778c0-1.31.75-2.32,2.08-2.19l.38,0a2.42,2.42,0,0,1,2.09,2.6l.06,15.42,5.1-5.36c.57-.37,2.27-2.6,3-2.52l.76.07a2.35,2.35,0,0,1,1.72,2.35v.43c0,.87-.94,1.65-1.33,2.26-.94,1.21-2.07,2.18-3,3.39l-5.29,5.56,6.85,8.5Z"/><path class="cls-3" d="M579.78,787.12l.19.24a4,4,0,0,1,.39,1.34v.44a1.83,1.83,0,0,1-1.9,2l-.19,0a21.7,21.7,0,0,1-3.23-1.84,5.75,5.75,0,0,0-2.66-.7l-.45-.06c-3.37-.33-5.87,1.77-7.31,5.16a9.38,9.38,0,0,0-.74,4.05,10.71,10.71,0,0,0,5.34,9.66,9.79,9.79,0,0,0,4.18,1.27,10.35,10.35,0,0,0,3.79-.92l.95.09a2.34,2.34,0,0,1,1.72,2.34v.44c0,3-4.93,3.2-6.63,3.26-.31,0-.62,0-.92-.06-6-.6-10.58-5.11-12.4-11.91a12.25,12.25,0,0,1-.39-3.73v-1.09c0-5.43,2.24-9.55,6.41-11.74a10.07,10.07,0,0,1,6.26-1.34l1,.1a11.2,11.2,0,0,1,6.46,2.81Z"/><path class="cls-3" d="M543.71,780.73c5.12.5,8.93,3.71,11.41,8.95a15.77,15.77,0,0,1,1.54,6.67v1.08c0,5.43-2.24,9.56-6.41,11.75a10,10,0,0,1-6.25,1.33l-1-.09C538.3,810,534.5,807,532.2,802a16.33,16.33,0,0,1-1.73-7.33v-1.09c0-5.44,2.24-9.55,6.41-11.75a12.27,12.27,0,0,1,6.26-1.12ZM551.36,801a10.45,10.45,0,0,0,1.13-4.89,11.43,11.43,0,0,0-4-8.65,8,8,0,0,0-4.56-2c-3.6-.36-6.25,1.55-7.76,5.09a6.53,6.53,0,0,0-.93,4,11.43,11.43,0,0,0,4.39,8.91A8.72,8.72,0,0,0,544,805.3c3.23.32,5.69-1.39,7.38-4.26"/><path class="cls-3" d="M1257.21,1146.35l.26,0a4.18,4.18,0,0,1,3.52,4.28c0,2.12-1.51,3.86-3.5,3.67a5.34,5.34,0,0,0-4,1,9.47,9.47,0,0,0-3,3.33,22.06,22.06,0,0,0-2.69,6.1l0,14.39a3.43,3.43,0,0,1-3.63,3.65,4.32,4.32,0,0,1-3.52-4.36l-.1-29.84a3.31,3.31,0,0,1,3.5-3.59,4.3,4.3,0,0,1,3.64,4.3v.53a8.57,8.57,0,0,1,1.38-1.38A12.26,12.26,0,0,1,1257.21,1146.35Z"/><path class="cls-3" d="M1275.18,1148.05c8.6.86,15.44,8.88,16,19.15v.38a2.15,2.15,0,0,1-.06.67,2.94,2.94,0,0,1-3.43,2.7l-21-2.09a11.55,11.55,0,0,0,2.27,5.22,11.05,11.05,0,0,0,6.36,4,9.05,9.05,0,0,0,.93.13,8.7,8.7,0,0,0,5.94-1.35,3.43,3.43,0,0,1,5,.27c.87,1.15,1.53,3.49,0,4.92a14.14,14.14,0,0,1-11.83,3.83c-9.06-1-16.1-10.22-16.2-20.53S1266.12,1147.16,1275.18,1148.05Zm-8.88,14.34,18.72,1.86a12.77,12.77,0,0,0-9.82-9,8.52,8.52,0,0,0-8.9,7.14"/><path class="cls-3" d="M1321.2,1137.47a4.42,4.42,0,0,1,3.59,4.44l.1,30,0,14.85c0,2.19-1.58,3.93-3.56,3.73a4.23,4.23,0,0,1-3.52-3.6,13.63,13.63,0,0,1-9,2.37c-8.93-.89-16.11-10.23-16.14-20.45,0-10.38,7.08-18.3,16-17.42a15.86,15.86,0,0,1,8.87,4l0-14.23A3.46,3.46,0,0,1,1321.2,1137.47Zm-6.15,41a10.46,10.46,0,0,0,2.63-7.23,12.75,12.75,0,0,0-2.68-7.92,9,9,0,0,0-6.22-3.72,7.3,7.3,0,0,0-6.21,2.49,10.59,10.59,0,0,0-2.62,7.39,12.65,12.65,0,0,0,2.67,7.76,9.14,9.14,0,0,0,6.23,3.72,7.2,7.2,0,0,0,6.2-2.49"/><path class="cls-3" d="M1333.79,1138.72a4.3,4.3,0,0,1,3.59,4.44v1.59c0,2.27-1.51,4-3.56,3.81s-3.57-2.25-3.58-4.52v-1.59C1330.22,1140.18,1331.8,1138.52,1333.79,1138.72Z"/><path class="cls-3" d="M1333.84,1153.94c2.05.2,3.58,2.09,3.59,4.52l.1,29.53c0,2.27-1.51,3.94-3.56,3.74a4.35,4.35,0,0,1-3.59-4.45l-.1-29.53C1330.28,1155.32,1331.85,1153.74,1333.84,1153.94Z"/><path class="cls-3" d="M1354.06,1155.86c4.57.45,7.82,3.27,9.94,5.15a4.79,4.79,0,0,1,1.08,5.71,3,3,0,0,1-2.9,1.48,3.54,3.54,0,0,1-2-.91c-2.12-1.8-4-3.19-6.1-3.4a5.65,5.65,0,0,0-4,1,2.06,2.06,0,0,0-1.05,1.64,1,1,0,0,0,.13.62,2.26,2.26,0,0,0,.73.82,13.85,13.85,0,0,0,4.84,2.3,26,26,0,0,1,6.29,2.9,12.4,12.4,0,0,1,4.71,4.93,11.57,11.57,0,0,1,1.27,5.12,10.15,10.15,0,0,1-4.13,8.37,12.68,12.68,0,0,1-8.59,2.18c-5.16-.59-9.14-3.7-11.8-6.39a4.55,4.55,0,0,1-.48-5.65,2.92,2.92,0,0,1,2.73-1.28,3.56,3.56,0,0,1,2.23,1.16c1.69,1.81,4.59,3.79,7.13,4.05h.16a7.34,7.34,0,0,0,4.49-1,2.85,2.85,0,0,0,1.18-2.15,1.36,1.36,0,0,0-.19-.78,2.58,2.58,0,0,0-.87-1,15.71,15.71,0,0,0-5.3-2.64,25.27,25.27,0,0,1-5.83-2.55,13.46,13.46,0,0,1-4.58-4.84,11.06,11.06,0,0,1-1.14-4.89,9.92,9.92,0,0,1,3.88-7.94A12,12,0,0,1,1354.06,1155.86Z"/><path class="cls-3" d="M1349,1061.57s0,9.12,0,10.07-1,2-3.44,3.2c-4.7,2.35-29.05,11.41-34.23,14-2.78,1.39-4.9,1.94-6.9,1.75a12,12,0,0,1-5.27-2.13c-4.11-2.65-30.1-17.22-34.79-20.24-2.33-1.51-3.57-2.71-3.57-3.72l0-10.21c0-1,1.09-1.87,3.38-2.68,4.58-1.6,30.35-10.64,35.8-12.33,2.87-.9,4.75-1.29,6.57-1.11a14.91,14.91,0,0,1,5.42,1.92c4.65,2.4,28.93,15.85,33.52,18.23C1347.89,1059.53,1349.08,1060.55,1349,1061.57Zm-25.34,3.29,12.07-4.27-12.12-6.67-13.36,4.73,12.1,6.67,1.31-.46m-25.45-22.18,2,4.37-6.58,2.07,8.83,1.78,2.78,5.53,1.7-4.54,7.63-.15-5.93-3.13,1.56-4.16-5.81,1.6-6.18-3.37m-24.12,12.51c0,2.68,4.9,5.34,10.94,5.93s10.92-1.08,10.91-3.76-4.91-5.34-10.94-5.93-10.92,1.09-10.91,3.76m30.75,18.44,6.14-9.75-20.43,1.57,14.29,8.18"/><path class="cls-3" d="M1345.27,1076.44l.32.16c2.36,1.23,3.55,2.25,3.51,3.27,0,0,0,9.12,0,10.07s-1.05,2-3.44,3.2c-4.7,2.34-29,11.41-34.23,14-2.78,1.39-4.9,1.94-6.9,1.74a11.83,11.83,0,0,1-5.27-2.13c-4.11-2.64-30.1-17.21-34.78-20.23-2.34-1.52-3.58-2.72-3.58-3.73l0-10.21c0-1,1.08-1.87,3.37-2.67l.41-.14c2.87,1.79,10.52,6.18,17.94,10.42s14.42,8.26,16.39,9.54a12.46,12.46,0,0,0,5.49,2.2c2.06.2,4.26-.35,7.15-1.79,2.64-1.32,10.35-4.35,17.81-7.28C1336.16,1080.21,1342.52,1077.71,1345.27,1076.44Z"/><path class="cls-3" d="M1346.48,1094.17c1.81,1,2.71,1.92,2.68,2.81,0,0,0,9.12,0,10.07s-1,2-3.44,3.2c-4.7,2.34-29,11.41-34.23,14-2.78,1.39-4.9,1.94-6.9,1.74a11.83,11.83,0,0,1-5.27-2.13c-4.11-2.64-30.1-17.21-34.79-20.23-2.33-1.52-3.57-2.72-3.57-3.74l0-10.2c0-.91.85-1.67,2.63-2.39.22.16.46.32.71.48,2.43,1.57,10.54,6.21,18.39,10.71,7.42,4.25,14.42,8.26,16.39,9.53a12.22,12.22,0,0,0,5.49,2.2c2.06.21,4.26-.34,7.15-1.78,2.64-1.32,10.35-4.35,17.81-7.29,7.26-2.85,14.11-5.55,16.42-6.7Z"/><polygon class="cls-5" points="1156.79 738.4 849.98 708.66 998.65 593.55 1305.46 623.29 1156.79 738.4"/><polygon class="cls-1" points="1156.8 738.4 1156.8 976.28 1064.17 967.31 1023.82 963.38 986.67 959.79 949.2 956.16 926.2 953.94 890.12 950.43 861.89 947.7 849.98 946.54 849.98 708.66 1156.8 738.4"/><polygon class="cls-6" points="1305.46 861.16 1156.79 976.28 1156.79 738.4 1305.46 623.29 1305.46 861.16"/><path class="cls-6" d="M1002.07,606.81v21.06c0,10,21.86,18.13,48.82,18.13s48.82-8.12,48.82-18.13V606.81Z"/><ellipse class="cls-1" cx="1050.89" cy="606.81" rx="48.82" ry="18.13"/><path class="cls-6" d="M924.8,664.13v21.06c0,10,21.86,18.13,48.82,18.13s48.82-8.12,48.82-18.13V664.13Z"/><path class="cls-1" d="M1022.44,664.13c0,10-21.86,18.13-48.82,18.13s-48.82-8.12-48.82-18.13S946.66,646,973.62,646,1022.44,654.12,1022.44,664.13Z"/><path class="cls-6" d="M1142.41,618.7v21.06c0,10,21.86,18.13,48.82,18.13s48.82-8.12,48.82-18.13V618.7Z"/><ellipse class="cls-1" cx="1191.23" cy="618.7" rx="48.82" ry="18.13"/><path class="cls-6" d="M1065.15,676v21.06c0,10,21.85,18.13,48.81,18.13s48.82-8.12,48.82-18.13V676Z"/><ellipse class="cls-1" cx="1113.96" cy="676.02" rx="48.82" ry="18.13"/><path class="cls-3" d="M999.57,766.13c25.66,2.54,46.54,28.41,46.64,57.77s-20.62,51.12-46.28,48.58-46.53-28.4-46.63-57.77S973.92,763.59,999.57,766.13Zm21.91,71.35a30,30,0,0,0,7-12.67l-10,1.23c-.1,0-2.11.38-5.18.74a20.45,20.45,0,0,0,4.25-12.85c0-7.4-1.6-11.46-4.23-16.88-1.61-3.36-4-10.25-2-15.37-4.63,3.77-5.85,15.87-6.09,24.23-.83-4.12-.71-10.47-1.78-14.36-2.84-10.34-6-14.72-3.52-19.2-2.82-.08-5.61,5.31-5.6,10.2,0,4.73-1.07,12.32-3.72,16.27-.22-9.12-2.92-15.21-5.43-15.7,2.61,7.79-4.5,16.4-4.46,27.06A24.6,24.6,0,0,0,985.25,824c-2.9-.9-4.79-1.58-4.89-1.62-3.73-1.33-8.93-3.16-9.27-3.2,1,3.42,2.08,6.77,6.57,13.42.14.21.3.41.43.62l43.39,4.29m.21,13.74,0-9.06L978,837.84l0,9.06,43.67,4.32m-21.78,14.44c7.3.72,13.2-4.28,13.18-11.16l-26.44-2.61c0,6.88,6,13.05,13.26,13.77"/><path class="cls-3" d="M939.87,887.27a9.45,9.45,0,0,1,.47,3,8,8,0,0,1-.49,2.89,5.51,5.51,0,0,1-1.42,2.15,5.74,5.74,0,0,1-2.34,1.26,8.52,8.52,0,0,1-3.21.22l-3.22-.32,0,8.6-2.7-.27-.08-23,5.92.59a10.23,10.23,0,0,1,3.31.83,6.94,6.94,0,0,1,2.34,1.67A6.76,6.76,0,0,1,939.87,887.27Zm-2.56,4.62a5.28,5.28,0,0,0,.3-1.91,5.15,5.15,0,0,0-1.19-3.55,5.27,5.27,0,0,0-3.58-1.59l-3.22-.32,0,9.47,3.22.31a5.19,5.19,0,0,0,2-.15,3.58,3.58,0,0,0,1.49-.84,3.53,3.53,0,0,0,.9-1.42"/><path class="cls-3" d="M950.05,890.54a3.43,3.43,0,0,1,1.06.26,3.74,3.74,0,0,1,.89.51l-.32,2.1c-.06.26-.21.38-.43.36a2.26,2.26,0,0,1-.6-.21,3.28,3.28,0,0,0-1.13-.27,2.7,2.7,0,0,0-2.18.65,5.72,5.72,0,0,0-1.45,2.37l0,10.34-2.5-.24,0-16.24,1.43.14a.79.79,0,0,1,.56.23,1.28,1.28,0,0,1,.21.63l.18,2.55a6.31,6.31,0,0,1,1.79-2.48A3.35,3.35,0,0,1,950.05,890.54Z"/><path class="cls-3" d="M966.7,897.13a12.82,12.82,0,0,1,.48,3.5,11.51,11.51,0,0,1-.46,3.42,6.91,6.91,0,0,1-1.34,2.49,5,5,0,0,1-2.12,1.47,6.37,6.37,0,0,1-2.8.31,7.18,7.18,0,0,1-2.81-.87,7,7,0,0,1-2.15-1.88,8.84,8.84,0,0,1-1.36-2.77,12,12,0,0,1-.49-3.5,11.55,11.55,0,0,1,.46-3.42,7,7,0,0,1,1.35-2.5,5.31,5.31,0,0,1,2.14-1.47,6.08,6.08,0,0,1,2.8-.31,6.91,6.91,0,0,1,2.81.87,6.76,6.76,0,0,1,2.13,1.89A8.74,8.74,0,0,1,966.7,897.13Zm-3.12,7.66a7.7,7.7,0,0,0,1-4.4,8.93,8.93,0,0,0-1.05-4.62,3.92,3.92,0,0,0-3.14-1.93,3.77,3.77,0,0,0-1.85.23,3.23,3.23,0,0,0-1.31,1.08,5.16,5.16,0,0,0-.77,1.85,11,11,0,0,0-.25,2.56,12.2,12.2,0,0,0,.26,2.61,6.85,6.85,0,0,0,.79,2,4.37,4.37,0,0,0,1.32,1.32,4.17,4.17,0,0,0,1.85.6,3.13,3.13,0,0,0,3.13-1.3"/><path class="cls-3" d="M984.72,894a4.93,4.93,0,0,1,2,.6,4.65,4.65,0,0,1,1.49,1.34,6.34,6.34,0,0,1,.94,2,10.22,10.22,0,0,1,.33,2.65l0,10.34-2.5-.25,0-10.34a5.33,5.33,0,0,0-.74-3,2.79,2.79,0,0,0-2.12-1.19,2.86,2.86,0,0,0-1.17.13,2.58,2.58,0,0,0-1,.63,3.13,3.13,0,0,0-.66,1.15,5.15,5.15,0,0,0-.24,1.66l0,10.35-2.5-.25,0-10.34a5.33,5.33,0,0,0-.7-3,2.61,2.61,0,0,0-2-1.17,2.66,2.66,0,0,0-1.71.41,4.88,4.88,0,0,0-1.44,1.4l0,12.1-2.49-.24-.06-16.24,1.49.14a.76.76,0,0,1,.67.66l.19,1.69a6.59,6.59,0,0,1,1.75-1.64,3.55,3.55,0,0,1,2.26-.48,3.49,3.49,0,0,1,2.33,1.14,6,6,0,0,1,1.29,2.6,5.1,5.1,0,0,1,.77-1.45,4,4,0,0,1,1.09-.94,3.51,3.51,0,0,1,1.28-.49A4.83,4.83,0,0,1,984.72,894Z"/><path class="cls-3" d="M1004.62,904.13a.45.45,0,0,1-.47.18l-9.44-.94a10.9,10.9,0,0,0,.37,2.72,6.67,6.67,0,0,0,.93,2,4.35,4.35,0,0,0,1.41,1.27,4.56,4.56,0,0,0,1.82.56,4.35,4.35,0,0,0,1.61-.09,6.3,6.3,0,0,0,1.17-.42,8.19,8.19,0,0,0,.82-.45,1,1,0,0,1,.57-.2.59.59,0,0,1,.47.33l.71,1.1a4.11,4.11,0,0,1-1.11,1,5.53,5.53,0,0,1-1.37.64,7.73,7.73,0,0,1-1.52.31,8,8,0,0,1-1.55,0,7,7,0,0,1-2.72-.84,7.24,7.24,0,0,1-2.15-1.88,9,9,0,0,1-1.41-2.85,13.28,13.28,0,0,1-.52-3.78,10.43,10.43,0,0,1,.45-3.13,6.77,6.77,0,0,1,1.3-2.42,5.2,5.2,0,0,1,2.08-1.5,5.81,5.81,0,0,1,2.77-.34,6.31,6.31,0,0,1,2.36.72,6.05,6.05,0,0,1,1.86,1.6,7.46,7.46,0,0,1,1.24,2.4,10.79,10.79,0,0,1,.45,3.13A1.9,1.9,0,0,1,1004.62,904.13Zm-9.83-2.53,7.71.77a6.84,6.84,0,0,0-.24-1.85,4.57,4.57,0,0,0-.71-1.49,3.6,3.6,0,0,0-2.65-1.52,3.25,3.25,0,0,0-2.84.91,5.46,5.46,0,0,0-1.27,3.18"/><path class="cls-3" d="M1011.19,891.61l0,5.59,4.06.4v2.07l-4.07-.4,0,9.75a2.44,2.44,0,0,0,.44,1.56,1.56,1.56,0,0,0,1.12.61,1.64,1.64,0,0,0,.68-.05,2.49,2.49,0,0,0,.49-.21l.36-.23a.45.45,0,0,1,.26-.1c.13,0,.24.11.35.31l.74,1.43a4,4,0,0,1-1.56.93,4.54,4.54,0,0,1-1.87.21,3.58,3.58,0,0,1-2.59-1.33,5.09,5.09,0,0,1-.92-3.18l0-10-1.71-.16a.64.64,0,0,1-.38-.2.69.69,0,0,1-.15-.48V897l2.32-.1.56-5a.51.51,0,0,1,.18-.37.44.44,0,0,1,.39-.11Z"/><path class="cls-3" d="M1020.82,890.46l0,9.56a6.82,6.82,0,0,1,2-1.58,4.69,4.69,0,0,1,2.55-.41,5,5,0,0,1,2,.65,4.82,4.82,0,0,1,1.49,1.39,6.92,6.92,0,0,1,.91,2,10.72,10.72,0,0,1,.32,2.55l0,10.34-2.49-.25,0-10.34a5.17,5.17,0,0,0-.74-2.93,2.93,2.93,0,0,0-2.26-1.25,3.58,3.58,0,0,0-2.06.41,6.16,6.16,0,0,0-1.76,1.47l0,12-2.5-.25-.07-23.62Z"/><path class="cls-3" d="M1045.32,908.16a.46.46,0,0,1-.47.18l-9.45-.94a10.44,10.44,0,0,0,.38,2.72,6.21,6.21,0,0,0,.93,2,4.22,4.22,0,0,0,1.4,1.27,5,5,0,0,0,3.44.47,6.58,6.58,0,0,0,1.17-.42c.32-.16.6-.31.82-.45a1,1,0,0,1,.56-.2.59.59,0,0,1,.48.33l.7,1.1a4.23,4.23,0,0,1-1.1,1,5.78,5.78,0,0,1-1.38.64,7.49,7.49,0,0,1-1.51.31,8.13,8.13,0,0,1-1.56,0,7,7,0,0,1-2.71-.84,7.12,7.12,0,0,1-2.15-1.88,9.28,9.28,0,0,1-1.42-2.85,13,13,0,0,1-.51-3.78,10.76,10.76,0,0,1,.44-3.13,7.09,7.09,0,0,1,1.3-2.42,5.24,5.24,0,0,1,2.09-1.5,5.77,5.77,0,0,1,2.76-.34,6,6,0,0,1,4.23,2.32,7.65,7.65,0,0,1,1.23,2.4,10.15,10.15,0,0,1,.45,3.13A2.09,2.09,0,0,1,1045.32,908.16Zm-9.83-2.53,7.71.77a6.78,6.78,0,0,0-.25-1.85,4.76,4.76,0,0,0-.7-1.49,3.61,3.61,0,0,0-1.13-1,3.45,3.45,0,0,0-1.52-.48,3.23,3.23,0,0,0-2.84.91,5.4,5.4,0,0,0-1.27,3.18"/><path class="cls-3" d="M1060.06,901.72l.06,16.24-1.48-.15a.74.74,0,0,1-.68-.66l-.2-1.76a6.81,6.81,0,0,1-2.07,1.67,4.48,4.48,0,0,1-2.63.46,4.85,4.85,0,0,1-2-.65,4.7,4.7,0,0,1-1.49-1.39,6.24,6.24,0,0,1-.92-2,10.73,10.73,0,0,1-.31-2.55l0-10.36,2.49.25,0,10.35a5,5,0,0,0,.75,2.93,2.92,2.92,0,0,0,2.25,1.23,3.55,3.55,0,0,0,2-.39,5.74,5.74,0,0,0,1.77-1.47l0-12Z"/><path class="cls-3" d="M1068.41,902.29a6.63,6.63,0,0,1,2.52.76,6.83,6.83,0,0,1,1.93,1.57l-.56,1a.48.48,0,0,1-.52.3,1,1,0,0,1-.47-.22c-.18-.14-.4-.29-.66-.46a5.21,5.21,0,0,0-.92-.49,4,4,0,0,0-1.26-.31,3.19,3.19,0,0,0-1.13.07,2.38,2.38,0,0,0-.86.42,1.81,1.81,0,0,0-.54.69,2.23,2.23,0,0,0-.19.9,1.84,1.84,0,0,0,.32,1.08,3.07,3.07,0,0,0,.84.8,7.27,7.27,0,0,0,1.18.65c.43.2.89.41,1.35.64s.91.46,1.35.72a5.89,5.89,0,0,1,1.18.91,4,4,0,0,1,.83,1.26,4.14,4.14,0,0,1,.33,1.71,5.74,5.74,0,0,1-.34,2,4.17,4.17,0,0,1-1,1.55,4.3,4.3,0,0,1-1.68.93,6,6,0,0,1-2.3.18,6.88,6.88,0,0,1-2.69-.82,7.72,7.72,0,0,1-2-1.63l.59-1a.74.74,0,0,1,.26-.29.59.59,0,0,1,.41-.07,1,1,0,0,1,.53.27c.19.17.41.36.68.57a5.78,5.78,0,0,0,1,.59,4.38,4.38,0,0,0,1.42.37,3.22,3.22,0,0,0,1.27-.1,2.16,2.16,0,0,0,.91-.49,2,2,0,0,0,.54-.79,3.06,3.06,0,0,0,.17-1,2,2,0,0,0-.32-1.15,3.27,3.27,0,0,0-.83-.83,7.1,7.1,0,0,0-1.19-.67c-.44-.2-.9-.4-1.36-.62s-.92-.46-1.36-.72a5.73,5.73,0,0,1-1.19-.94,4.5,4.5,0,0,1-.83-1.31,4.9,4.9,0,0,1-.33-1.8,4.71,4.71,0,0,1,.33-1.76,3.89,3.89,0,0,1,1-1.41,4.26,4.26,0,0,1,1.58-.88A5.46,5.46,0,0,1,1068.41,902.29Z"/><ellipse class="cls-4" cx="221.86" cy="1164.32" rx="181.02" ry="40.15"/><g id="Hand_R" data-name="Hand R"><path class="cls-9" d="M426.39,889.45s15.82.57,29.55-5.2,32.51-11,29.4-31c-1.91-12.31-31.51-6-31.51-6s-21.67,8-36.06,7.19"/><path class="cls-2" d="M426.39,891.51c12.3.38,23.88-2.77,35.17-7.33,9.75-3.94,21.27-8.63,25-19.43,1.53-4.43,2.15-11.07-.45-15.24-2.09-3.34-6.14-4.76-9.83-5.42a56.39,56.39,0,0,0-22.87,1.12c-11.87,3.1-23.1,7.63-35.66,7.14-2.66-.11-2.65,4,0,4.12,16.29.64,30.61-7.44,46.52-8.61a40.73,40.73,0,0,1,12.61.56c5.45,1.33,7,4.61,6.7,10.12-.72,12-12.37,17.28-22.1,21.24-11.32,4.6-22.75,8-35.11,7.61-2.65-.08-2.65,4,0,4.12Z"/></g><g id="Ear_R" data-name="Ear R"><path class="cls-1" d="M283.31,622s.34-36.09,19.59-35.74,11.34,41.93,11.34,41.93"/><path class="cls-2" d="M285.37,622c.13-10.31,3.92-38.37,20.06-33.3,8.07,2.54,8.36,15,8.36,21.82a93.65,93.65,0,0,1-1.54,17.12c-.49,2.59,3.49,3.71,4,1.1,2.16-11.52,4-27.08-2.11-37.66a13.62,13.62,0,0,0-17.59-5.64c-7.14,3.06-10.67,11-12.63,18A73.17,73.17,0,0,0,281.24,622c0,2.66,4.09,2.66,4.13,0Z"/></g><g id="Feet_R" data-name="Feet R"><path class="cls-9" d="M291.83,1122.23S319,1169.14,333.58,1160s-18.83-48.78-18.83-48.78"/><path class="cls-2" d="M290.05,1123.27a180.06,180.06,0,0,0,11.17,16.85c5.77,7.79,12.46,16.68,21.3,21.18,6.26,3.18,14.57,2.12,16.47-5.69,2.15-8.81-4.21-19.1-8.58-26.23a163.13,163.13,0,0,0-14.2-19.67c-1.71-2-4.61.9-2.91,2.92a159.27,159.27,0,0,1,9.61,12.79c4.9,7.16,10.34,15.29,12,24s-5,11.68-11.95,7.42c-7.73-4.72-13.75-12.7-19-19.92a181.26,181.26,0,0,1-10.32-15.69c-1.34-2.3-4.9-.22-3.56,2.08Z"/></g><g id="Tail"><path class="cls-1" d="M56.46,1033.43c-18.22-2.06-18.22-4.47-27.5-2.06s-34.37,17.87-24.75,25.09,10.66,9.62,23.38,7.56,39.18-7.9,39.18-7.9"/><path class="cls-2" d="M56.46,1031.37c-9.23-1.09-18.81-4.54-28-2a55.12,55.12,0,0,0-23.77,14.37c-2.3,2.4-4.84,5.59-4.63,9.13.26,4.27,4.65,6.53,7.68,8.82,3.78,2.86,7.41,4.92,12.24,5.08,5.62.18,11.44-1.29,16.92-2.34,10.19-2,20.34-4.1,30.47-6.34,2.59-.57,1.49-4.54-1.1-4-9.31,2-18.65,4-28,5.86-6,1.17-12.68,3.09-18.83,2.65a14.92,14.92,0,0,1-7.76-3.12c-1.94-1.38-6.43-3.75-7.26-6-1.57-4.24,5.54-9.26,8.33-11.32a61.56,61.56,0,0,1,14-7.94c9.73-3.78,19.83,0,29.76,1.2,2.63.31,2.61-3.81,0-4.12Z"/></g><g id="Eye_R" data-name="Eye R"><ellipse class="cls-3" cx="412.16" cy="726.64" rx="62.28" ry="59.12"/><path class="cls-2" d="M472.38,726.64c-.29,24.48-16.65,45.78-39.67,53.65-23.34,8-50.26,1.52-66.73-17a55.3,55.3,0,0,1-5.48-66c13.31-21,39.45-31.29,63.66-26.59,27,5.24,47.89,28.12,48.22,55.93,0,2.65,4.16,2.66,4.13,0-.31-26.13-17.61-48.76-42.07-57.41-25.16-8.89-54.82-1.61-72.22,18.84-16.66,19.58-19.1,48.16-5.28,70,14.24,22.49,41.73,33.36,67.64,28.61,29.05-5.32,51.57-30.23,51.93-60C476.54,724,472.41,724,472.38,726.64Z"/><ellipse class="cls-10" cx="458.4" cy="725.98" rx="16.04" ry="15.59"/><path class="cls-11" d="M462.3,724.81a5.1,5.1,0,1,1-5.1-5.08A5.08,5.08,0,0,1,462.3,724.81Z"/></g><g id="Body"><path class="cls-1" d="M73.46,741.62c1.25-17.88,30.24-79.74,79.74-101.73s68.74-22,116.86-26.13,121,38.5,134.73,56.37,23.37,34.09,26.12,58.29,2.75,35.2,6.88,60S436.41,908,421.29,943.72c-10,23.64-25.41,82.14-59,127.81-17.18,23.4-39.12,43.43-67.54,53.67-83.86,30.25-133.37,12.87-145.73,12.38-35.6-1.42-43-11.65-83.86-60.5-24.73-29.56-28.69-64.94-28.69-89.71,0-30.07,41.25-101.39,42.62-142.63C81.59,771.38,70.06,790.2,73.46,741.62Z"/><path class="cls-2" d="M75.52,741.62c.59-7.31,3.68-14.66,6.6-21.29a180.81,180.81,0,0,1,16.29-29.06,165.79,165.79,0,0,1,25.8-29.78c11.08-10,23.42-17.08,37.06-22.89,14.23-6.06,28.82-11.41,43.92-14.9,12.78-3,25.8-4.49,38.85-5.67,13.7-1.25,27.72-3.31,41.48-2.08,13.48,1.21,26.72,4.84,39.43,9.37,23.4,8.35,46.59,20,66.39,35.16s33.6,40.45,37.15,65.09c2.21,15.38,2.84,31,4.81,46.4,1.29,10.14,3.22,20.07,3.58,30.3.81,22.89-.72,46-3.05,68.73s-5.09,46.63-13,68.27-15.44,43.21-24.13,64.38c-12.27,29.86-27.58,59.35-49.62,83.24a142.76,142.76,0,0,1-36.62,29c-15.65,8.48-33.39,13.53-50.62,17.67-25.46,6.12-51.78,8.79-77.91,6.53-13-1.13-25.71-3.93-38.71-4.94-8.76-.69-17.46-2.39-25.23-6.66-8.74-4.79-15.89-12-22.58-19.27-10.69-11.6-21-23.76-30.79-36.16a118.23,118.23,0,0,1-21.23-43.93,164.57,164.57,0,0,1-4.8-40.63c0-9.64,2.85-19,5.83-28.12,8.31-25.22,19.48-49.4,27.84-74.62,3.76-11.34,7.11-23,8.47-34.86,1.56-13.66,1.14-27.95.43-41.66a170.41,170.41,0,0,0-2.77-23.62c-1.1-5.68-2.44-11.31-3-17.08-.88-9-.47-18,.14-27,.18-2.65-4-2.63-4.13,0-.63,9.38-1,18.87,0,28.23.67,5.91,2,11.67,3.14,17.5a175.1,175.1,0,0,1,2.73,27.23c.45,14.18.93,28.92-1.66,42.93-5,27-16.64,52.64-26.51,78.12-4.47,11.55-9,23.2-12.07,35.22-2.57,10-2.81,19.64-2.14,29.93a150.88,150.88,0,0,0,8.6,42.55c6,16.17,15.42,29.42,26.39,42.53,9.36,11.19,18.58,22.67,29,32.91,6.43,6.34,13.54,12.12,21.92,15.66,8.63,3.64,17.92,4.66,27.19,5.16,5,.27,9.84,1.36,14.74,2.17a233.13,233.13,0,0,0,62.76,2,282.38,282.38,0,0,0,46.45-9c16.71-4.68,33.31-10.25,48.06-19.58,27.32-17.3,47.39-43.92,62.66-72,14.1-25.91,24.18-53.58,34-81.3,3.11-8.77,6.94-17.34,9.73-26.22a240,240,0,0,0,7.49-33.54A581.16,581.16,0,0,0,441,825c.26-9.68.37-19.41-.32-29.07-.91-12.62-3.56-25.09-4.78-37.69-1.55-15.93-1.93-32.44-6.52-47.86-4.4-14.76-12.57-27.79-21.83-40-5.09-6.68-11.72-11.85-18.53-16.67a248.69,248.69,0,0,0-32.22-19.1c-23.64-11.89-50-22.17-76.77-23.11-14.63-.51-29.74,1.71-44.28,3.22a246.18,246.18,0,0,0-38,6.61c-28.65,7.64-57.65,19.35-79.39,40a177.74,177.74,0,0,0-41.11,60.06c-2.67,6.42-5.26,13.25-5.83,20.24C71.18,744.27,75.3,744.25,75.52,741.62Z"/></g><path class="cls-9" d="M114.2,1121.77s-14.43,43.65,7.56,46,24.06-40.21,24.06-40.21"/><path class="cls-2" d="M112.21,1121.22c-3.95,12-8.48,30.16-1.54,41.8,4.09,6.86,13.24,8.76,20.19,5.21,7.68-3.91,11.44-13,13.69-20.79a88.25,88.25,0,0,0,3.33-19.83c.14-2.65-4-2.65-4.12,0-.57,11.16-2.87,25.81-11,34.08-5.19,5.3-14.72,6-18.74-1.07-3.73-6.59-2.66-15.74-1.52-22.87a99.87,99.87,0,0,1,3.66-15.44c.83-2.52-3.15-3.61-4-1.09Z"/><path class="cls-1" d="M109.82,1115.8s3.25,16.32,10,20.68c0,0,1.21-11.69,2.36-12.15s16.73,12.38,14.43,14.21,13.32-8.12,13.31-12.65"/><path class="cls-2" d="M107.83,1116.35c1.56,7.65,4.32,17.12,10.9,21.91,1.4,1,3-.4,3.11-1.78.25-2.45.55-4.9,1-7.32a9.1,9.1,0,0,0,.44-2.17q.08-.36.18-.72.51-1.23-1.65.06a24.09,24.09,0,0,0,2.5,1.67,65.43,65.43,0,0,1,7,6c.88.87,1.82,2.45,2.82,3.12.23.15,1.23,1.37,1-.05,0,.08-.53.6-.55.64-1.19,1.56.76,3.35,2.32,3,2.82-.59,6-3.87,8.11-5.62,2.88-2.37,6.5-5.29,6.94-9.24.3-2.63-3.83-2.61-4.12,0s-4.83,5.62-6.69,7.08c-1.32,1-4.56,3.64-5.33,3.8l2.33,3c3.53-4.65-9-13.52-12.62-16-7.47-5-7.28,7.89-7.79,12.68l3.1-1.78c-5.55-4-7.7-13-9-19.45-.53-2.6-4.51-1.5-4,1.1Z"/><g id="Eye_L" data-name="Eye L"><path class="cls-3" d="M359.89,740.86c0,38.72-33.53,70.12-74.88,70.12s-74.89-31.4-74.89-70.12,33.53-70.12,74.89-70.12S359.89,702.14,359.89,740.86Z"/><path class="cls-2" d="M357.83,740.86c-.3,29.58-20.63,54.94-48.39,64.13-28.15,9.32-60.61,1.59-80.49-20.68a65.31,65.31,0,0,1-6.36-78.53c16.19-25.17,47.73-37.15,76.79-31.65,32.3,6.11,58.11,33.22,58.45,66.73,0,2.65,4.15,2.66,4.12,0-.31-31-21.22-57.55-50.12-67.67C281.92,662.72,246.64,671,225.6,695c-20.19,23.06-23.25,57.11-6.57,83,17.11,26.61,50,39.22,80.75,33.68,34.4-6.19,61.81-35.34,62.17-70.84C362,738.21,357.86,738.2,357.83,740.86Z"/><ellipse class="cls-10" cx="306.82" cy="730.78" rx="24.29" ry="22"/><path class="cls-11" d="M306.82,724.39A6.42,6.42,0,1,1,300.4,718,6.41,6.41,0,0,1,306.82,724.39Z"/></g><path class="cls-1" d="M134.14,678.38,107.1,644s-13.52-21.87,7.56-30.53,35.52,8.07,36.66,9.68,18.1,27.27,18.1,27.27"/><path class="cls-2" d="M135.59,676.92,119.93,657l-9.37-11.91c-1.77-2.25-1.63-1.86-2.66-3.93-2-4.09-3.46-9-2.92-13.56,1.09-9.1,10.55-13.48,18.75-14.36,10.33-1.12,21.37,4.34,27,12.64,5.72,8.48,11.32,17,17,25.58,1.46,2.2,5,.14,3.56-2.09-5.73-8.67-11.36-17.42-17.24-26A34.32,34.32,0,0,0,127.51,609C112.18,608.5,98,618.78,101.4,635c1.52,7.18,5.28,11.76,9.67,17.33l21.61,27.47c1.64,2.08,4.54-.85,2.91-2.92Z"/><path class="cls-2" d="M130.7,634.61s-.14,12.38,5.43,17.88,10.61,9.39,13.36,7.33-4.81-17.19-8-19S136.2,633.93,130.7,634.61Z"/><path class="cls-2" d="M128.64,634.61c0,6.1,1.11,13.18,5,18.09,2.37,3,14,14.8,18,7.67,2.6-4.62-3-13.49-5.39-17.15-1.69-2.55-3.74-4-5.94-6.08-2.94-2.74-5.38-4.77-9.6-4.59-2.64.12-2.66,4.24,0,4.13,3.92-.18,8.78,4.45,11.22,7.51,2.18,2.72,6.2,9,5.93,12.59-.16,2.15-1.15,1.25-2.94.43a20.13,20.13,0,0,1-4.59-3.58c-2.68-2.41-4.73-4.73-5.9-8.2a33.64,33.64,0,0,1-1.66-10.82C132.77,632,128.65,632,128.64,634.61Z"/><g id="Nose"><path class="cls-12" d="M437.94,746.86c0,10-11.29,18.12-25.21,18.12s-25.2-8.11-25.2-18.12,11.28-18.13,25.2-18.13S437.94,736.85,437.94,746.86Z"/><path class="cls-2" d="M435.87,746.86c-.48,11.21-13.59,16.06-23.14,16.06-9.17,0-23.14-4.86-23.14-16.06,0-10.89,13.35-15.85,22.34-16.05,9.74-.22,23.45,4.51,23.94,16.05.12,2.64,4.24,2.66,4.13,0-.59-13.6-15.26-20.19-27.27-20.19-11.53,0-27.27,6.59-27.27,20.19s15.74,20.19,27.27,20.19c12,0,26.68-6.6,27.27-20.19C440.11,744.2,436,744.21,435.87,746.86Z"/><path class="cls-3" d="M394.22,789.6v34s-1.9,4.74,11.37,5.41,14.78,0,14.78,0,6.82,2.26,9.47-8.79,9.48-31.77,9.48-31.77Z"/><path class="cls-2" d="M392.15,789.6v21.86c0,3.7,0,7.4,0,11.1,0,1,0,.82,0,.76a6.11,6.11,0,0,0,.33,2.8c1.55,3.42,6.31,4.24,9.56,4.66a75.35,75.35,0,0,0,17.31.48c.25,0,2.3-.23,1-.23s1.75.24,2.29.19c4.15-.43,6.81-3.85,8.24-7.5,2.64-6.72,3.95-14.22,6.08-21.13q2.1-6.81,4.31-13.57a2.08,2.08,0,0,0-2-2.61l-45.1,1.12c-2.65.07-2.66,4.2,0,4.13l45.1-1.13-2-2.61c-2.65,8.07-5.2,16.18-7.51,24.35-1.2,4.27-1.75,12.76-6.49,14.58a11.11,11.11,0,0,1-3.77.26c-3.44.06-6.88.16-10.34,0-2.91-.11-11.45.45-13-3,.05.1.09-2.27.09-3V789.6C396.28,786.94,392.15,786.94,392.15,789.6Z"/><path class="cls-9" d="M411.16,760.16s-11.55-5.44-23.47-2.46S361.8,773.05,362.94,785s13.29,19.93,20.63,20.16c2.76.09,9.24,2.52,24.38,2.52,13.55,0,15.81-1.28,23.83-1.6,10.27-.42,17.55-8.25,17.32-22.69S439,761.59,428.48,762.28,411.16,760.16,411.16,760.16Z"/><path class="cls-2" d="M412.2,758.38a38,38,0,0,0-46.11,11.47c-5.12,6.69-6.84,14.76-3.16,22.57a27.09,27.09,0,0,0,17.38,14.32c14.54,3.43,30,3.59,44.74,1.93,6.79-.77,13.53-.42,18.95-5.31,6.24-5.65,7.86-15.07,7-23.09-.95-8.43-5.83-16-14-18.91s-17,.09-25.22-3.19c-2.47-1-3.54,3-1.1,4,11.16,4.46,26.43-2.07,33.6,10.22,4,6.91,3.92,17.32,0,24.25-3.82,6.67-10.07,7-16.91,7.68-13.2,1.29-26.18,1.94-39.31-.53-4.44-.84-8.55-1.13-12.54-3.61-6.76-4.2-12.14-12.18-9.92-20.38,2.5-9.24,12.05-16.66,20.82-19.53,7.52-2.46,16.6-1.61,23.81,1.69C412.51,763,414.61,759.48,412.2,758.38Z"/></g><path class="cls-9" d="M196.72,929.29s-2.68,14.28,0,27.67,10.71,33,26.78,29.46,7.14-27.23,7.14-27.23-4.91-19.19-2.23-32.13"/><path class="cls-2" d="M194.73,928.74a76.57,76.57,0,0,0,1.15,33.61c2.57,9.37,7.28,20.67,16.71,25,7.63,3.49,17.95,1.14,21.25-7.09,2.68-6.67,1-14.24-1-20.86-2.91-9.94-4.38-21.56-2.49-31.77.48-2.6-3.49-3.71-4-1.1-2,10.67-.67,22.72,2.22,33.17,1.7,6.18,4.14,13.56,1.07,19.75-2.84,5.74-10.74,6.57-16,3.88-5.62-2.89-9.09-9.1-11.41-14.73-5-12.11-5.94-25.91-3.6-38.74.47-2.6-3.5-3.71-4-1.1Z"/><path class="cls-1" d="M186.52,923c8.1,11.91,27.8,13.17,27.8,13.17s-3.21-4.92,0-10c0,0,2.9,6.08,8.86,8.83l10.54-12"/><path class="cls-2" d="M184.74,924.08c6.64,9.16,18.58,13.43,29.58,14.19a2.07,2.07,0,0,0,1.78-3.1,7.91,7.91,0,0,1,0-7.89h-3.56a22.18,22.18,0,0,0,9.6,9.57,2.1,2.1,0,0,0,2.5-.33l10.54-12c1.74-2-1.16-4.91-2.92-2.91l-10.54,12,2.5-.33a18.44,18.44,0,0,1-8.12-8.08,2.08,2.08,0,0,0-3.56,0c-2,3.9-2.32,8.18,0,12l1.78-3.1c-9.4-.66-20.33-4.31-26-12.16-1.55-2.12-5.12-.07-3.56,2.09Z"/><path class="cls-5" d="M392.27,862.24c-29.19-2.19-60.65,35.4-66.06,67.3-10.17,60-28.68,80.83-45,101.74-22.19,28.46-21.54,51.33,6.88,66.61,23.72,12.76,55.13-8.63,60.13-12.22,21.47-23.68,36.51-52.7,48.57-82.09,5.13-12.51,9.72-25.22,14.24-38,3.17-9,6.74-17.73,10-26.64a177.58,177.58,0,0,0,6.5-23.13C430.51,887.35,419.37,864.28,392.27,862.24Z"/></g></g></svg>